<?xml version="1.0" encoding="utf-8" standalone="no"?>
<!DOCTYPE svg PUBLIC "-//W3C//DTD SVG 1.1//EN"
  "http://www.w3.org/Graphics/SVG/1.1/DTD/svg11.dtd">
<svg xmlns:xlink="http://www.w3.org/1999/xlink" width="710.690156pt" height="268.6pt" viewBox="0 0 710.690156 268.6" xmlns="http://www.w3.org/2000/svg" version="1.1">
 <metadata>
  <rdf:RDF xmlns:dc="http://purl.org/dc/elements/1.1/" xmlns:cc="http://creativecommons.org/ns#" xmlns:rdf="http://www.w3.org/1999/02/22-rdf-syntax-ns#">
   <cc:Work>
    <dc:type rdf:resource="http://purl.org/dc/dcmitype/StillImage"/>
    <dc:date>2026-01-26T19:03:15.587800</dc:date>
    <dc:format>image/svg+xml</dc:format>
    <dc:creator>
     <cc:Agent>
      <dc:title>Matplotlib v3.10.6, https://matplotlib.org/</dc:title>
     </cc:Agent>
    </dc:creator>
   </cc:Work>
  </rdf:RDF>
 </metadata>
 <defs>
  <style type="text/css">*{stroke-linejoin: round; stroke-linecap: butt}</style>
 </defs>
 <g id="figure_1">
  <g id="patch_1">
   <path d="M 0 268.6 
L 710.690156 268.6 
L 710.690156 0 
L 0 0 
z
" style="fill: #ffffff"/>
  </g>
  <g id="axes_1">
   <g id="patch_2">
    <path d="M 45.830156 88.643721 
L 695.990156 88.643721 
L 695.990156 7.2 
L 45.830156 7.2 
z
" style="fill: #ffffff"/>
   </g>
   <g id="matplotlib.axis_1">
    <g id="xtick_1">
     <g id="line2d_1">
      <defs>
       <path id="m662c3695ab" d="M 0 0 
L 0 3 
" style="stroke: #000000; stroke-width: 0.8"/>
      </defs>
      <g>
       <use xlink:href="#m662c3695ab" x="45.830156" y="88.643721" style="stroke: #000000; stroke-width: 0.8"/>
      </g>
     </g>
    </g>
    <g id="xtick_2">
     <g id="line2d_2">
      <g>
       <use xlink:href="#m662c3695ab" x="100.010156" y="88.643721" style="stroke: #000000; stroke-width: 0.8"/>
      </g>
     </g>
    </g>
    <g id="xtick_3">
     <g id="line2d_3">
      <g>
       <use xlink:href="#m662c3695ab" x="154.190156" y="88.643721" style="stroke: #000000; stroke-width: 0.8"/>
      </g>
     </g>
    </g>
    <g id="xtick_4">
     <g id="line2d_4">
      <g>
       <use xlink:href="#m662c3695ab" x="208.370156" y="88.643721" style="stroke: #000000; stroke-width: 0.8"/>
      </g>
     </g>
    </g>
    <g id="xtick_5">
     <g id="line2d_5">
      <g>
       <use xlink:href="#m662c3695ab" x="262.550156" y="88.643721" style="stroke: #000000; stroke-width: 0.8"/>
      </g>
     </g>
    </g>
    <g id="xtick_6">
     <g id="line2d_6">
      <g>
       <use xlink:href="#m662c3695ab" x="316.730156" y="88.643721" style="stroke: #000000; stroke-width: 0.8"/>
      </g>
     </g>
    </g>
    <g id="xtick_7">
     <g id="line2d_7">
      <g>
       <use xlink:href="#m662c3695ab" x="370.910156" y="88.643721" style="stroke: #000000; stroke-width: 0.8"/>
      </g>
     </g>
    </g>
    <g id="xtick_8">
     <g id="line2d_8">
      <g>
       <use xlink:href="#m662c3695ab" x="425.090156" y="88.643721" style="stroke: #000000; stroke-width: 0.8"/>
      </g>
     </g>
    </g>
    <g id="xtick_9">
     <g id="line2d_9">
      <g>
       <use xlink:href="#m662c3695ab" x="479.270156" y="88.643721" style="stroke: #000000; stroke-width: 0.8"/>
      </g>
     </g>
    </g>
    <g id="xtick_10">
     <g id="line2d_10">
      <g>
       <use xlink:href="#m662c3695ab" x="533.450156" y="88.643721" style="stroke: #000000; stroke-width: 0.8"/>
      </g>
     </g>
    </g>
    <g id="xtick_11">
     <g id="line2d_11">
      <g>
       <use xlink:href="#m662c3695ab" x="587.630156" y="88.643721" style="stroke: #000000; stroke-width: 0.8"/>
      </g>
     </g>
    </g>
    <g id="xtick_12">
     <g id="line2d_12">
      <g>
       <use xlink:href="#m662c3695ab" x="641.810156" y="88.643721" style="stroke: #000000; stroke-width: 0.8"/>
      </g>
     </g>
    </g>
    <g id="xtick_13">
     <g id="line2d_13">
      <g>
       <use xlink:href="#m662c3695ab" x="695.990156" y="88.643721" style="stroke: #000000; stroke-width: 0.8"/>
      </g>
     </g>
    </g>
   </g>
   <g id="matplotlib.axis_2">
    <g id="ytick_1">
     <g id="line2d_14">
      <defs>
       <path id="mcca7da0d0b" d="M 0 0 
L -3 0 
" style="stroke: #000000; stroke-width: 0.8"/>
      </defs>
      <g>
       <use xlink:href="#mcca7da0d0b" x="45.830156" y="84.941734" style="stroke: #000000; stroke-width: 0.8"/>
      </g>
     </g>
     <g id="text_1">
      <!-- −1.0 -->
      <g transform="translate(21.191094 88.413609) scale(0.1 -0.1)">
       <defs>
        <path id="TimesNewRomanPSMT-2212" d="M 3484 2000 
L 116 2000 
L 116 2256 
L 3484 2256 
L 3484 2000 
z
" transform="scale(0.015625)"/>
        <path id="TimesNewRomanPSMT-31" d="M 750 3822 
L 1781 4325 
L 1884 4325 
L 1884 747 
Q 1884 391 1914 303 
Q 1944 216 2037 169 
Q 2131 122 2419 116 
L 2419 0 
L 825 0 
L 825 116 
Q 1125 122 1212 167 
Q 1300 213 1334 289 
Q 1369 366 1369 747 
L 1369 3034 
Q 1369 3497 1338 3628 
Q 1316 3728 1258 3775 
Q 1200 3822 1119 3822 
Q 1003 3822 797 3725 
L 750 3822 
z
" transform="scale(0.015625)"/>
        <path id="TimesNewRomanPSMT-2e" d="M 800 606 
Q 947 606 1047 504 
Q 1147 403 1147 259 
Q 1147 116 1045 14 
Q 944 -88 800 -88 
Q 656 -88 554 14 
Q 453 116 453 259 
Q 453 406 554 506 
Q 656 606 800 606 
z
" transform="scale(0.015625)"/>
        <path id="TimesNewRomanPSMT-30" d="M 231 2094 
Q 231 2819 450 3342 
Q 669 3866 1031 4122 
Q 1313 4325 1613 4325 
Q 2100 4325 2488 3828 
Q 2972 3213 2972 2159 
Q 2972 1422 2759 906 
Q 2547 391 2217 158 
Q 1888 -75 1581 -75 
Q 975 -75 572 641 
Q 231 1244 231 2094 
z
M 844 2016 
Q 844 1141 1059 588 
Q 1238 122 1591 122 
Q 1759 122 1940 273 
Q 2122 425 2216 781 
Q 2359 1319 2359 2297 
Q 2359 3022 2209 3506 
Q 2097 3866 1919 4016 
Q 1791 4119 1609 4119 
Q 1397 4119 1231 3928 
Q 1006 3669 925 3112 
Q 844 2556 844 2016 
z
" transform="scale(0.015625)"/>
       </defs>
       <use xlink:href="#TimesNewRomanPSMT-2212"/>
       <use xlink:href="#TimesNewRomanPSMT-31" transform="translate(56.396484 0)"/>
       <use xlink:href="#TimesNewRomanPSMT-2e" transform="translate(106.396484 0)"/>
       <use xlink:href="#TimesNewRomanPSMT-30" transform="translate(131.396484 0)"/>
      </g>
     </g>
    </g>
    <g id="ytick_2">
     <g id="line2d_15">
      <g>
       <use xlink:href="#mcca7da0d0b" x="45.830156" y="66.431797" style="stroke: #000000; stroke-width: 0.8"/>
      </g>
     </g>
     <g id="text_2">
      <!-- −0.5 -->
      <g transform="translate(21.191094 69.903672) scale(0.1 -0.1)">
       <defs>
        <path id="TimesNewRomanPSMT-35" d="M 2778 4238 
L 2534 3706 
L 1259 3706 
L 981 3138 
Q 1809 3016 2294 2522 
Q 2709 2097 2709 1522 
Q 2709 1188 2573 903 
Q 2438 619 2231 419 
Q 2025 219 1772 97 
Q 1413 -75 1034 -75 
Q 653 -75 479 54 
Q 306 184 306 341 
Q 306 428 378 495 
Q 450 563 559 563 
Q 641 563 702 538 
Q 763 513 909 409 
Q 1144 247 1384 247 
Q 1750 247 2026 523 
Q 2303 800 2303 1197 
Q 2303 1581 2056 1914 
Q 1809 2247 1375 2428 
Q 1034 2569 447 2591 
L 1259 4238 
L 2778 4238 
z
" transform="scale(0.015625)"/>
       </defs>
       <use xlink:href="#TimesNewRomanPSMT-2212"/>
       <use xlink:href="#TimesNewRomanPSMT-30" transform="translate(56.396484 0)"/>
       <use xlink:href="#TimesNewRomanPSMT-2e" transform="translate(106.396484 0)"/>
       <use xlink:href="#TimesNewRomanPSMT-35" transform="translate(131.396484 0)"/>
      </g>
     </g>
    </g>
    <g id="ytick_3">
     <g id="line2d_16">
      <g>
       <use xlink:href="#mcca7da0d0b" x="45.830156" y="47.92186" style="stroke: #000000; stroke-width: 0.8"/>
      </g>
     </g>
     <g id="text_3">
      <!-- 0.0 -->
      <g transform="translate(26.830156 51.393735) scale(0.1 -0.1)">
       <use xlink:href="#TimesNewRomanPSMT-30"/>
       <use xlink:href="#TimesNewRomanPSMT-2e" transform="translate(50 0)"/>
       <use xlink:href="#TimesNewRomanPSMT-30" transform="translate(75 0)"/>
      </g>
     </g>
    </g>
    <g id="ytick_4">
     <g id="line2d_17">
      <g>
       <use xlink:href="#mcca7da0d0b" x="45.830156" y="29.411924" style="stroke: #000000; stroke-width: 0.8"/>
      </g>
     </g>
     <g id="text_4">
      <!-- 0.5 -->
      <g transform="translate(26.830156 32.883799) scale(0.1 -0.1)">
       <use xlink:href="#TimesNewRomanPSMT-30"/>
       <use xlink:href="#TimesNewRomanPSMT-2e" transform="translate(50 0)"/>
       <use xlink:href="#TimesNewRomanPSMT-35" transform="translate(75 0)"/>
      </g>
     </g>
    </g>
    <g id="ytick_5">
     <g id="line2d_18">
      <g>
       <use xlink:href="#mcca7da0d0b" x="45.830156" y="10.901987" style="stroke: #000000; stroke-width: 0.8"/>
      </g>
     </g>
     <g id="text_5">
      <!-- 1.0 -->
      <g transform="translate(26.830156 14.373862) scale(0.1 -0.1)">
       <use xlink:href="#TimesNewRomanPSMT-31"/>
       <use xlink:href="#TimesNewRomanPSMT-2e" transform="translate(50 0)"/>
       <use xlink:href="#TimesNewRomanPSMT-30" transform="translate(75 0)"/>
      </g>
     </g>
    </g>
    <g id="text_6">
     <!-- Parameter -->
     <g transform="translate(14.838125 70.214907) rotate(-90) scale(0.11 -0.11)">
      <defs>
       <path id="TimesNewRomanPSMT-50" d="M 1313 1984 
L 1313 750 
Q 1313 350 1400 253 
Q 1519 116 1759 116 
L 1922 116 
L 1922 0 
L 106 0 
L 106 116 
L 266 116 
Q 534 116 650 291 
Q 713 388 713 750 
L 713 3488 
Q 713 3888 628 3984 
Q 506 4122 266 4122 
L 106 4122 
L 106 4238 
L 1659 4238 
Q 2228 4238 2556 4120 
Q 2884 4003 3109 3725 
Q 3334 3447 3334 3066 
Q 3334 2547 2992 2222 
Q 2650 1897 2025 1897 
Q 1872 1897 1694 1919 
Q 1516 1941 1313 1984 
z
M 1313 2163 
Q 1478 2131 1606 2115 
Q 1734 2100 1825 2100 
Q 2150 2100 2386 2351 
Q 2622 2603 2622 3003 
Q 2622 3278 2509 3514 
Q 2397 3750 2190 3867 
Q 1984 3984 1722 3984 
Q 1563 3984 1313 3925 
L 1313 2163 
z
" transform="scale(0.015625)"/>
       <path id="TimesNewRomanPSMT-61" d="M 1822 413 
Q 1381 72 1269 19 
Q 1100 -59 909 -59 
Q 613 -59 420 144 
Q 228 347 228 678 
Q 228 888 322 1041 
Q 450 1253 767 1440 
Q 1084 1628 1822 1897 
L 1822 2009 
Q 1822 2438 1686 2597 
Q 1550 2756 1291 2756 
Q 1094 2756 978 2650 
Q 859 2544 859 2406 
L 866 2225 
Q 866 2081 792 2003 
Q 719 1925 600 1925 
Q 484 1925 411 2006 
Q 338 2088 338 2228 
Q 338 2497 613 2722 
Q 888 2947 1384 2947 
Q 1766 2947 2009 2819 
Q 2194 2722 2281 2516 
Q 2338 2381 2338 1966 
L 2338 994 
Q 2338 584 2353 492 
Q 2369 400 2405 369 
Q 2441 338 2488 338 
Q 2538 338 2575 359 
Q 2641 400 2828 588 
L 2828 413 
Q 2478 -56 2159 -56 
Q 2006 -56 1915 50 
Q 1825 156 1822 413 
z
M 1822 616 
L 1822 1706 
Q 1350 1519 1213 1441 
Q 966 1303 859 1153 
Q 753 1003 753 825 
Q 753 600 887 451 
Q 1022 303 1197 303 
Q 1434 303 1822 616 
z
" transform="scale(0.015625)"/>
       <path id="TimesNewRomanPSMT-72" d="M 1038 2947 
L 1038 2303 
Q 1397 2947 1775 2947 
Q 1947 2947 2059 2842 
Q 2172 2738 2172 2600 
Q 2172 2478 2090 2393 
Q 2009 2309 1897 2309 
Q 1788 2309 1652 2417 
Q 1516 2525 1450 2525 
Q 1394 2525 1328 2463 
Q 1188 2334 1038 2041 
L 1038 669 
Q 1038 431 1097 309 
Q 1138 225 1241 169 
Q 1344 113 1538 113 
L 1538 0 
L 72 0 
L 72 113 
Q 291 113 397 181 
Q 475 231 506 341 
Q 522 394 522 644 
L 522 1753 
Q 522 2253 501 2348 
Q 481 2444 426 2487 
Q 372 2531 291 2531 
Q 194 2531 72 2484 
L 41 2597 
L 906 2947 
L 1038 2947 
z
" transform="scale(0.015625)"/>
       <path id="TimesNewRomanPSMT-6d" d="M 1050 2338 
Q 1363 2650 1419 2697 
Q 1559 2816 1721 2881 
Q 1884 2947 2044 2947 
Q 2313 2947 2506 2790 
Q 2700 2634 2766 2338 
Q 3088 2713 3309 2830 
Q 3531 2947 3766 2947 
Q 3994 2947 4170 2830 
Q 4347 2713 4450 2447 
Q 4519 2266 4519 1878 
L 4519 647 
Q 4519 378 4559 278 
Q 4591 209 4675 161 
Q 4759 113 4950 113 
L 4950 0 
L 3538 0 
L 3538 113 
L 3597 113 
Q 3781 113 3884 184 
Q 3956 234 3988 344 
Q 4000 397 4000 647 
L 4000 1878 
Q 4000 2228 3916 2372 
Q 3794 2572 3525 2572 
Q 3359 2572 3192 2489 
Q 3025 2406 2788 2181 
L 2781 2147 
L 2788 2013 
L 2788 647 
Q 2788 353 2820 281 
Q 2853 209 2943 161 
Q 3034 113 3253 113 
L 3253 0 
L 1806 0 
L 1806 113 
Q 2044 113 2133 169 
Q 2222 225 2256 338 
Q 2272 391 2272 647 
L 2272 1878 
Q 2272 2228 2169 2381 
Q 2031 2581 1784 2581 
Q 1616 2581 1450 2491 
Q 1191 2353 1050 2181 
L 1050 647 
Q 1050 366 1089 281 
Q 1128 197 1204 155 
Q 1281 113 1516 113 
L 1516 0 
L 100 0 
L 100 113 
Q 297 113 375 155 
Q 453 197 493 289 
Q 534 381 534 647 
L 534 1741 
Q 534 2213 506 2350 
Q 484 2453 437 2492 
Q 391 2531 309 2531 
Q 222 2531 100 2484 
L 53 2597 
L 916 2947 
L 1050 2947 
L 1050 2338 
z
" transform="scale(0.015625)"/>
       <path id="TimesNewRomanPSMT-65" d="M 681 1784 
Q 678 1147 991 784 
Q 1303 422 1725 422 
Q 2006 422 2214 576 
Q 2422 731 2563 1106 
L 2659 1044 
Q 2594 616 2278 264 
Q 1963 -88 1488 -88 
Q 972 -88 605 314 
Q 238 716 238 1394 
Q 238 2128 614 2539 
Q 991 2950 1559 2950 
Q 2041 2950 2350 2633 
Q 2659 2316 2659 1784 
L 681 1784 
z
M 681 1966 
L 2006 1966 
Q 1991 2241 1941 2353 
Q 1863 2528 1708 2628 
Q 1553 2728 1384 2728 
Q 1125 2728 920 2526 
Q 716 2325 681 1966 
z
" transform="scale(0.015625)"/>
       <path id="TimesNewRomanPSMT-74" d="M 1031 3803 
L 1031 2863 
L 1700 2863 
L 1700 2644 
L 1031 2644 
L 1031 788 
Q 1031 509 1111 412 
Q 1191 316 1316 316 
Q 1419 316 1516 380 
Q 1613 444 1666 569 
L 1788 569 
Q 1678 263 1478 108 
Q 1278 -47 1066 -47 
Q 922 -47 784 33 
Q 647 113 581 261 
Q 516 409 516 719 
L 516 2644 
L 63 2644 
L 63 2747 
Q 234 2816 414 2980 
Q 594 3144 734 3369 
Q 806 3488 934 3803 
L 1031 3803 
z
" transform="scale(0.015625)"/>
      </defs>
      <use xlink:href="#TimesNewRomanPSMT-50"/>
      <use xlink:href="#TimesNewRomanPSMT-61" transform="translate(55.615234 0)"/>
      <use xlink:href="#TimesNewRomanPSMT-72" transform="translate(100 0)"/>
      <use xlink:href="#TimesNewRomanPSMT-61" transform="translate(133.300781 0)"/>
      <use xlink:href="#TimesNewRomanPSMT-6d" transform="translate(177.685547 0)"/>
      <use xlink:href="#TimesNewRomanPSMT-65" transform="translate(255.46875 0)"/>
      <use xlink:href="#TimesNewRomanPSMT-74" transform="translate(299.853516 0)"/>
      <use xlink:href="#TimesNewRomanPSMT-65" transform="translate(327.636719 0)"/>
      <use xlink:href="#TimesNewRomanPSMT-72" transform="translate(372.021484 0)"/>
     </g>
    </g>
   </g>
   <g id="line2d_19">
    <path d="M 45.830156 47.92186 
L 153.106556 47.92186 
L 154.190156 10.901987 
L 261.466556 10.901987 
L 262.550156 84.941734 
L 370.910156 84.941734 
L 478.186556 10.901987 
L 479.270156 29.411924 
L 586.546556 29.411924 
L 587.630156 47.92186 
L 694.906556 47.92186 
L 694.906556 47.92186 
" clip-path="url(#pfcc909d65c)" style="fill: none; stroke: #1f77b4; stroke-width: 2; stroke-linecap: square"/>
   </g>
   <g id="patch_3">
    <path d="M 45.830156 88.643721 
L 45.830156 7.2 
" style="fill: none; stroke: #000000; stroke-width: 0.8; stroke-linejoin: miter; stroke-linecap: square"/>
   </g>
   <g id="patch_4">
    <path d="M 45.830156 88.643721 
L 695.990156 88.643721 
" style="fill: none; stroke: #000000; stroke-width: 0.8; stroke-linejoin: miter; stroke-linecap: square"/>
   </g>
  </g>
  <g id="axes_2">
   <g id="patch_5">
    <path d="M 45.830156 204.192 
L 695.990156 204.192 
L 695.990156 102.387349 
L 45.830156 102.387349 
z
" style="fill: #ffffff"/>
   </g>
   <g id="matplotlib.axis_3">
    <g id="xtick_14">
     <g id="line2d_20">
      <g>
       <use xlink:href="#m662c3695ab" x="45.830156" y="204.192" style="stroke: #000000; stroke-width: 0.8"/>
      </g>
     </g>
     <g id="text_7">
      <!-- 0 -->
      <g transform="translate(43.330156 217.63575) scale(0.1 -0.1)">
       <use xlink:href="#TimesNewRomanPSMT-30"/>
      </g>
     </g>
    </g>
    <g id="xtick_15">
     <g id="line2d_21">
      <g>
       <use xlink:href="#m662c3695ab" x="100.010156" y="204.192" style="stroke: #000000; stroke-width: 0.8"/>
      </g>
     </g>
    </g>
    <g id="xtick_16">
     <g id="line2d_22">
      <g>
       <use xlink:href="#m662c3695ab" x="154.190156" y="204.192" style="stroke: #000000; stroke-width: 0.8"/>
      </g>
     </g>
     <g id="text_8">
      <!-- 100 -->
      <g transform="translate(146.690156 217.63575) scale(0.1 -0.1)">
       <use xlink:href="#TimesNewRomanPSMT-31"/>
       <use xlink:href="#TimesNewRomanPSMT-30" transform="translate(50 0)"/>
       <use xlink:href="#TimesNewRomanPSMT-30" transform="translate(100 0)"/>
      </g>
     </g>
    </g>
    <g id="xtick_17">
     <g id="line2d_23">
      <g>
       <use xlink:href="#m662c3695ab" x="208.370156" y="204.192" style="stroke: #000000; stroke-width: 0.8"/>
      </g>
     </g>
    </g>
    <g id="xtick_18">
     <g id="line2d_24">
      <g>
       <use xlink:href="#m662c3695ab" x="262.550156" y="204.192" style="stroke: #000000; stroke-width: 0.8"/>
      </g>
     </g>
     <g id="text_9">
      <!-- 200 -->
      <g transform="translate(255.050156 217.63575) scale(0.1 -0.1)">
       <defs>
        <path id="TimesNewRomanPSMT-32" d="M 2934 816 
L 2638 0 
L 138 0 
L 138 116 
Q 1241 1122 1691 1759 
Q 2141 2397 2141 2925 
Q 2141 3328 1894 3587 
Q 1647 3847 1303 3847 
Q 991 3847 742 3664 
Q 494 3481 375 3128 
L 259 3128 
Q 338 3706 661 4015 
Q 984 4325 1469 4325 
Q 1984 4325 2329 3994 
Q 2675 3663 2675 3213 
Q 2675 2891 2525 2569 
Q 2294 2063 1775 1497 
Q 997 647 803 472 
L 1909 472 
Q 2247 472 2383 497 
Q 2519 522 2628 598 
Q 2738 675 2819 816 
L 2934 816 
z
" transform="scale(0.015625)"/>
       </defs>
       <use xlink:href="#TimesNewRomanPSMT-32"/>
       <use xlink:href="#TimesNewRomanPSMT-30" transform="translate(50 0)"/>
       <use xlink:href="#TimesNewRomanPSMT-30" transform="translate(100 0)"/>
      </g>
     </g>
    </g>
    <g id="xtick_19">
     <g id="line2d_25">
      <g>
       <use xlink:href="#m662c3695ab" x="316.730156" y="204.192" style="stroke: #000000; stroke-width: 0.8"/>
      </g>
     </g>
    </g>
    <g id="xtick_20">
     <g id="line2d_26">
      <g>
       <use xlink:href="#m662c3695ab" x="370.910156" y="204.192" style="stroke: #000000; stroke-width: 0.8"/>
      </g>
     </g>
     <g id="text_10">
      <!-- 300 -->
      <g transform="translate(363.410156 217.63575) scale(0.1 -0.1)">
       <defs>
        <path id="TimesNewRomanPSMT-33" d="M 325 3431 
Q 506 3859 782 4092 
Q 1059 4325 1472 4325 
Q 1981 4325 2253 3994 
Q 2459 3747 2459 3466 
Q 2459 3003 1878 2509 
Q 2269 2356 2469 2072 
Q 2669 1788 2669 1403 
Q 2669 853 2319 450 
Q 1863 -75 997 -75 
Q 569 -75 414 31 
Q 259 138 259 259 
Q 259 350 332 419 
Q 406 488 509 488 
Q 588 488 669 463 
Q 722 447 909 348 
Q 1097 250 1169 231 
Q 1284 197 1416 197 
Q 1734 197 1970 444 
Q 2206 691 2206 1028 
Q 2206 1275 2097 1509 
Q 2016 1684 1919 1775 
Q 1784 1900 1550 2001 
Q 1316 2103 1072 2103 
L 972 2103 
L 972 2197 
Q 1219 2228 1467 2375 
Q 1716 2522 1828 2728 
Q 1941 2934 1941 3181 
Q 1941 3503 1739 3701 
Q 1538 3900 1238 3900 
Q 753 3900 428 3381 
L 325 3431 
z
" transform="scale(0.015625)"/>
       </defs>
       <use xlink:href="#TimesNewRomanPSMT-33"/>
       <use xlink:href="#TimesNewRomanPSMT-30" transform="translate(50 0)"/>
       <use xlink:href="#TimesNewRomanPSMT-30" transform="translate(100 0)"/>
      </g>
     </g>
    </g>
    <g id="xtick_21">
     <g id="line2d_27">
      <g>
       <use xlink:href="#m662c3695ab" x="425.090156" y="204.192" style="stroke: #000000; stroke-width: 0.8"/>
      </g>
     </g>
    </g>
    <g id="xtick_22">
     <g id="line2d_28">
      <g>
       <use xlink:href="#m662c3695ab" x="479.270156" y="204.192" style="stroke: #000000; stroke-width: 0.8"/>
      </g>
     </g>
     <g id="text_11">
      <!-- 400 -->
      <g transform="translate(471.770156 217.63575) scale(0.1 -0.1)">
       <defs>
        <path id="TimesNewRomanPSMT-34" d="M 2978 1563 
L 2978 1119 
L 2409 1119 
L 2409 0 
L 1894 0 
L 1894 1119 
L 100 1119 
L 100 1519 
L 2066 4325 
L 2409 4325 
L 2409 1563 
L 2978 1563 
z
M 1894 1563 
L 1894 3666 
L 406 1563 
L 1894 1563 
z
" transform="scale(0.015625)"/>
       </defs>
       <use xlink:href="#TimesNewRomanPSMT-34"/>
       <use xlink:href="#TimesNewRomanPSMT-30" transform="translate(50 0)"/>
       <use xlink:href="#TimesNewRomanPSMT-30" transform="translate(100 0)"/>
      </g>
     </g>
    </g>
    <g id="xtick_23">
     <g id="line2d_29">
      <g>
       <use xlink:href="#m662c3695ab" x="533.450156" y="204.192" style="stroke: #000000; stroke-width: 0.8"/>
      </g>
     </g>
    </g>
    <g id="xtick_24">
     <g id="line2d_30">
      <g>
       <use xlink:href="#m662c3695ab" x="587.630156" y="204.192" style="stroke: #000000; stroke-width: 0.8"/>
      </g>
     </g>
     <g id="text_12">
      <!-- 500 -->
      <g transform="translate(580.130156 217.63575) scale(0.1 -0.1)">
       <use xlink:href="#TimesNewRomanPSMT-35"/>
       <use xlink:href="#TimesNewRomanPSMT-30" transform="translate(50 0)"/>
       <use xlink:href="#TimesNewRomanPSMT-30" transform="translate(100 0)"/>
      </g>
     </g>
    </g>
    <g id="xtick_25">
     <g id="line2d_31">
      <g>
       <use xlink:href="#m662c3695ab" x="641.810156" y="204.192" style="stroke: #000000; stroke-width: 0.8"/>
      </g>
     </g>
    </g>
    <g id="xtick_26">
     <g id="line2d_32">
      <g>
       <use xlink:href="#m662c3695ab" x="695.990156" y="204.192" style="stroke: #000000; stroke-width: 0.8"/>
      </g>
     </g>
     <g id="text_13">
      <!-- 600 -->
      <g transform="translate(688.490156 217.63575) scale(0.1 -0.1)">
       <defs>
        <path id="TimesNewRomanPSMT-36" d="M 2869 4325 
L 2869 4209 
Q 2456 4169 2195 4045 
Q 1934 3922 1679 3669 
Q 1425 3416 1258 3105 
Q 1091 2794 978 2366 
Q 1428 2675 1881 2675 
Q 2316 2675 2634 2325 
Q 2953 1975 2953 1425 
Q 2953 894 2631 456 
Q 2244 -75 1606 -75 
Q 1172 -75 869 213 
Q 275 772 275 1663 
Q 275 2231 503 2743 
Q 731 3256 1154 3653 
Q 1578 4050 1965 4187 
Q 2353 4325 2688 4325 
L 2869 4325 
z
M 925 2138 
Q 869 1716 869 1456 
Q 869 1156 980 804 
Q 1091 453 1309 247 
Q 1469 100 1697 100 
Q 1969 100 2183 356 
Q 2397 613 2397 1088 
Q 2397 1622 2184 2012 
Q 1972 2403 1581 2403 
Q 1463 2403 1327 2353 
Q 1191 2303 925 2138 
z
" transform="scale(0.015625)"/>
       </defs>
       <use xlink:href="#TimesNewRomanPSMT-36"/>
       <use xlink:href="#TimesNewRomanPSMT-30" transform="translate(50 0)"/>
       <use xlink:href="#TimesNewRomanPSMT-30" transform="translate(100 0)"/>
      </g>
     </g>
    </g>
    <g id="text_14">
     <!-- Episode -->
     <g transform="translate(353.190703 231.412937) scale(0.11 -0.11)">
      <defs>
       <path id="TimesNewRomanPSMT-45" d="M 1338 4006 
L 1338 2331 
L 2269 2331 
Q 2631 2331 2753 2441 
Q 2916 2584 2934 2947 
L 3050 2947 
L 3050 1472 
L 2934 1472 
Q 2891 1781 2847 1869 
Q 2791 1978 2662 2040 
Q 2534 2103 2269 2103 
L 1338 2103 
L 1338 706 
Q 1338 425 1363 364 
Q 1388 303 1450 267 
Q 1513 231 1688 231 
L 2406 231 
Q 2766 231 2928 281 
Q 3091 331 3241 478 
Q 3434 672 3638 1063 
L 3763 1063 
L 3397 0 
L 131 0 
L 131 116 
L 281 116 
Q 431 116 566 188 
Q 666 238 702 338 
Q 738 438 738 747 
L 738 3500 
Q 738 3903 656 3997 
Q 544 4122 281 4122 
L 131 4122 
L 131 4238 
L 3397 4238 
L 3444 3309 
L 3322 3309 
Q 3256 3644 3176 3769 
Q 3097 3894 2941 3959 
Q 2816 4006 2500 4006 
L 1338 4006 
z
" transform="scale(0.015625)"/>
       <path id="TimesNewRomanPSMT-70" d="M -6 2578 
L 875 2934 
L 994 2934 
L 994 2266 
Q 1216 2644 1439 2795 
Q 1663 2947 1909 2947 
Q 2341 2947 2628 2609 
Q 2981 2197 2981 1534 
Q 2981 794 2556 309 
Q 2206 -88 1675 -88 
Q 1444 -88 1275 -22 
Q 1150 25 994 166 
L 994 -706 
Q 994 -1000 1030 -1079 
Q 1066 -1159 1155 -1206 
Q 1244 -1253 1478 -1253 
L 1478 -1369 
L -22 -1369 
L -22 -1253 
L 56 -1253 
Q 228 -1256 350 -1188 
Q 409 -1153 442 -1076 
Q 475 -1000 475 -688 
L 475 2019 
Q 475 2297 450 2372 
Q 425 2447 370 2484 
Q 316 2522 222 2522 
Q 147 2522 31 2478 
L -6 2578 
z
M 994 2081 
L 994 1013 
Q 994 666 1022 556 
Q 1066 375 1236 237 
Q 1406 100 1666 100 
Q 1978 100 2172 344 
Q 2425 663 2425 1241 
Q 2425 1897 2138 2250 
Q 1938 2494 1663 2494 
Q 1513 2494 1366 2419 
Q 1253 2363 994 2081 
z
" transform="scale(0.015625)"/>
       <path id="TimesNewRomanPSMT-69" d="M 928 4444 
Q 1059 4444 1151 4351 
Q 1244 4259 1244 4128 
Q 1244 3997 1151 3903 
Q 1059 3809 928 3809 
Q 797 3809 703 3903 
Q 609 3997 609 4128 
Q 609 4259 701 4351 
Q 794 4444 928 4444 
z
M 1188 2947 
L 1188 647 
Q 1188 378 1227 289 
Q 1266 200 1342 156 
Q 1419 113 1622 113 
L 1622 0 
L 231 0 
L 231 113 
Q 441 113 512 153 
Q 584 194 626 287 
Q 669 381 669 647 
L 669 1750 
Q 669 2216 641 2353 
Q 619 2453 572 2492 
Q 525 2531 444 2531 
Q 356 2531 231 2484 
L 188 2597 
L 1050 2947 
L 1188 2947 
z
" transform="scale(0.015625)"/>
       <path id="TimesNewRomanPSMT-73" d="M 2050 2947 
L 2050 1972 
L 1947 1972 
Q 1828 2431 1642 2597 
Q 1456 2763 1169 2763 
Q 950 2763 815 2647 
Q 681 2531 681 2391 
Q 681 2216 781 2091 
Q 878 1963 1175 1819 
L 1631 1597 
Q 2266 1288 2266 781 
Q 2266 391 1970 151 
Q 1675 -88 1309 -88 
Q 1047 -88 709 6 
Q 606 38 541 38 
Q 469 38 428 -44 
L 325 -44 
L 325 978 
L 428 978 
Q 516 541 762 319 
Q 1009 97 1316 97 
Q 1531 97 1667 223 
Q 1803 350 1803 528 
Q 1803 744 1651 891 
Q 1500 1038 1047 1263 
Q 594 1488 453 1669 
Q 313 1847 313 2119 
Q 313 2472 555 2709 
Q 797 2947 1181 2947 
Q 1350 2947 1591 2875 
Q 1750 2828 1803 2828 
Q 1853 2828 1881 2850 
Q 1909 2872 1947 2947 
L 2050 2947 
z
" transform="scale(0.015625)"/>
       <path id="TimesNewRomanPSMT-6f" d="M 1600 2947 
Q 2250 2947 2644 2453 
Q 2978 2031 2978 1484 
Q 2978 1100 2793 706 
Q 2609 313 2286 112 
Q 1963 -88 1566 -88 
Q 919 -88 538 428 
Q 216 863 216 1403 
Q 216 1797 411 2186 
Q 606 2575 925 2761 
Q 1244 2947 1600 2947 
z
M 1503 2744 
Q 1338 2744 1170 2645 
Q 1003 2547 900 2300 
Q 797 2053 797 1666 
Q 797 1041 1045 587 
Q 1294 134 1700 134 
Q 2003 134 2200 384 
Q 2397 634 2397 1244 
Q 2397 2006 2069 2444 
Q 1847 2744 1503 2744 
z
" transform="scale(0.015625)"/>
       <path id="TimesNewRomanPSMT-64" d="M 2222 322 
Q 2013 103 1813 7 
Q 1613 -88 1381 -88 
Q 913 -88 563 304 
Q 213 697 213 1313 
Q 213 1928 600 2439 
Q 988 2950 1597 2950 
Q 1975 2950 2222 2709 
L 2222 3238 
Q 2222 3728 2198 3840 
Q 2175 3953 2125 3993 
Q 2075 4034 2000 4034 
Q 1919 4034 1784 3984 
L 1744 4094 
L 2597 4444 
L 2738 4444 
L 2738 1134 
Q 2738 631 2761 520 
Q 2784 409 2836 365 
Q 2888 322 2956 322 
Q 3041 322 3181 375 
L 3216 266 
L 2366 -88 
L 2222 -88 
L 2222 322 
z
M 2222 541 
L 2222 2016 
Q 2203 2228 2109 2403 
Q 2016 2578 1861 2667 
Q 1706 2756 1559 2756 
Q 1284 2756 1069 2509 
Q 784 2184 784 1559 
Q 784 928 1059 592 
Q 1334 256 1672 256 
Q 1956 256 2222 541 
z
" transform="scale(0.015625)"/>
      </defs>
      <use xlink:href="#TimesNewRomanPSMT-45"/>
      <use xlink:href="#TimesNewRomanPSMT-70" transform="translate(61.083984 0)"/>
      <use xlink:href="#TimesNewRomanPSMT-69" transform="translate(111.083984 0)"/>
      <use xlink:href="#TimesNewRomanPSMT-73" transform="translate(138.867188 0)"/>
      <use xlink:href="#TimesNewRomanPSMT-6f" transform="translate(177.783203 0)"/>
      <use xlink:href="#TimesNewRomanPSMT-64" transform="translate(227.783203 0)"/>
      <use xlink:href="#TimesNewRomanPSMT-65" transform="translate(277.783203 0)"/>
     </g>
    </g>
   </g>
   <g id="matplotlib.axis_4">
    <g id="ytick_6">
     <g id="line2d_33">
      <g>
       <use xlink:href="#mcca7da0d0b" x="45.830156" y="199.568748" style="stroke: #000000; stroke-width: 0.8"/>
      </g>
     </g>
     <g id="text_15">
      <!-- 0.00 -->
      <g transform="translate(21.830156 203.040623) scale(0.1 -0.1)">
       <use xlink:href="#TimesNewRomanPSMT-30"/>
       <use xlink:href="#TimesNewRomanPSMT-2e" transform="translate(50 0)"/>
       <use xlink:href="#TimesNewRomanPSMT-30" transform="translate(75 0)"/>
       <use xlink:href="#TimesNewRomanPSMT-30" transform="translate(125 0)"/>
      </g>
     </g>
    </g>
    <g id="ytick_7">
     <g id="line2d_34">
      <g>
       <use xlink:href="#mcca7da0d0b" x="45.830156" y="176.430269" style="stroke: #000000; stroke-width: 0.8"/>
      </g>
     </g>
     <g id="text_16">
      <!-- 0.25 -->
      <g transform="translate(21.830156 179.902144) scale(0.1 -0.1)">
       <use xlink:href="#TimesNewRomanPSMT-30"/>
       <use xlink:href="#TimesNewRomanPSMT-2e" transform="translate(50 0)"/>
       <use xlink:href="#TimesNewRomanPSMT-32" transform="translate(75 0)"/>
       <use xlink:href="#TimesNewRomanPSMT-35" transform="translate(125 0)"/>
      </g>
     </g>
    </g>
    <g id="ytick_8">
     <g id="line2d_35">
      <g>
       <use xlink:href="#mcca7da0d0b" x="45.830156" y="153.29179" style="stroke: #000000; stroke-width: 0.8"/>
      </g>
     </g>
     <g id="text_17">
      <!-- 0.50 -->
      <g transform="translate(21.830156 156.763665) scale(0.1 -0.1)">
       <use xlink:href="#TimesNewRomanPSMT-30"/>
       <use xlink:href="#TimesNewRomanPSMT-2e" transform="translate(50 0)"/>
       <use xlink:href="#TimesNewRomanPSMT-35" transform="translate(75 0)"/>
       <use xlink:href="#TimesNewRomanPSMT-30" transform="translate(125 0)"/>
      </g>
     </g>
    </g>
    <g id="ytick_9">
     <g id="line2d_36">
      <g>
       <use xlink:href="#mcca7da0d0b" x="45.830156" y="130.153312" style="stroke: #000000; stroke-width: 0.8"/>
      </g>
     </g>
     <g id="text_18">
      <!-- 0.75 -->
      <g transform="translate(21.830156 133.625187) scale(0.1 -0.1)">
       <defs>
        <path id="TimesNewRomanPSMT-37" d="M 644 4238 
L 2916 4238 
L 2916 4119 
L 1503 -88 
L 1153 -88 
L 2419 3728 
L 1253 3728 
Q 900 3728 750 3644 
Q 488 3500 328 3200 
L 238 3234 
L 644 4238 
z
" transform="scale(0.015625)"/>
       </defs>
       <use xlink:href="#TimesNewRomanPSMT-30"/>
       <use xlink:href="#TimesNewRomanPSMT-2e" transform="translate(50 0)"/>
       <use xlink:href="#TimesNewRomanPSMT-37" transform="translate(75 0)"/>
       <use xlink:href="#TimesNewRomanPSMT-35" transform="translate(125 0)"/>
      </g>
     </g>
    </g>
    <g id="ytick_10">
     <g id="line2d_37">
      <g>
       <use xlink:href="#mcca7da0d0b" x="45.830156" y="107.014833" style="stroke: #000000; stroke-width: 0.8"/>
      </g>
     </g>
     <g id="text_19">
      <!-- 1.00 -->
      <g transform="translate(21.830156 110.486708) scale(0.1 -0.1)">
       <use xlink:href="#TimesNewRomanPSMT-31"/>
       <use xlink:href="#TimesNewRomanPSMT-2e" transform="translate(50 0)"/>
       <use xlink:href="#TimesNewRomanPSMT-30" transform="translate(75 0)"/>
       <use xlink:href="#TimesNewRomanPSMT-30" transform="translate(125 0)"/>
      </g>
     </g>
    </g>
    <g id="text_20">
     <!-- Likelihood -->
     <g transform="translate(15.477187 177.424362) rotate(-90) scale(0.11 -0.11)">
      <defs>
       <path id="TimesNewRomanPSMT-4c" d="M 3669 1172 
L 3772 1150 
L 3409 0 
L 128 0 
L 128 116 
L 288 116 
Q 556 116 672 291 
Q 738 391 738 753 
L 738 3488 
Q 738 3884 650 3984 
Q 528 4122 288 4122 
L 128 4122 
L 128 4238 
L 2047 4238 
L 2047 4122 
Q 1709 4125 1573 4059 
Q 1438 3994 1388 3894 
Q 1338 3794 1338 3416 
L 1338 753 
Q 1338 494 1388 397 
Q 1425 331 1503 300 
Q 1581 269 1991 269 
L 2300 269 
Q 2788 269 2984 341 
Q 3181 413 3343 595 
Q 3506 778 3669 1172 
z
" transform="scale(0.015625)"/>
       <path id="TimesNewRomanPSMT-6b" d="M 1047 4444 
L 1047 1597 
L 1775 2259 
Q 2006 2472 2044 2528 
Q 2069 2566 2069 2603 
Q 2069 2666 2017 2711 
Q 1966 2756 1847 2763 
L 1847 2863 
L 3091 2863 
L 3091 2763 
Q 2834 2756 2664 2684 
Q 2494 2613 2291 2428 
L 1556 1750 
L 2291 822 
Q 2597 438 2703 334 
Q 2853 188 2966 144 
Q 3044 113 3238 113 
L 3238 0 
L 1847 0 
L 1847 113 
Q 1966 116 2008 148 
Q 2050 181 2050 241 
Q 2050 313 1925 472 
L 1047 1594 
L 1047 644 
Q 1047 366 1086 278 
Q 1125 191 1197 153 
Q 1269 116 1509 113 
L 1509 0 
L 53 0 
L 53 113 
Q 272 113 381 166 
Q 447 200 481 272 
Q 528 375 528 628 
L 528 3234 
Q 528 3731 506 3842 
Q 484 3953 434 3995 
Q 384 4038 303 4038 
Q 238 4038 106 3984 
L 53 4094 
L 903 4444 
L 1047 4444 
z
" transform="scale(0.015625)"/>
       <path id="TimesNewRomanPSMT-6c" d="M 1184 4444 
L 1184 647 
Q 1184 378 1223 290 
Q 1263 203 1344 158 
Q 1425 113 1647 113 
L 1647 0 
L 244 0 
L 244 113 
Q 441 113 512 153 
Q 584 194 625 287 
Q 666 381 666 647 
L 666 3247 
Q 666 3731 644 3842 
Q 622 3953 573 3993 
Q 525 4034 450 4034 
Q 369 4034 244 3984 
L 191 4094 
L 1044 4444 
L 1184 4444 
z
" transform="scale(0.015625)"/>
       <path id="TimesNewRomanPSMT-68" d="M 1041 4444 
L 1041 2350 
Q 1388 2731 1591 2839 
Q 1794 2947 1997 2947 
Q 2241 2947 2416 2812 
Q 2591 2678 2675 2391 
Q 2734 2191 2734 1659 
L 2734 647 
Q 2734 375 2778 275 
Q 2809 200 2884 156 
Q 2959 113 3159 113 
L 3159 0 
L 1753 0 
L 1753 113 
L 1819 113 
Q 2019 113 2097 173 
Q 2175 234 2206 353 
Q 2216 403 2216 647 
L 2216 1659 
Q 2216 2128 2167 2275 
Q 2119 2422 2012 2495 
Q 1906 2569 1756 2569 
Q 1603 2569 1437 2487 
Q 1272 2406 1041 2159 
L 1041 647 
Q 1041 353 1073 281 
Q 1106 209 1195 161 
Q 1284 113 1503 113 
L 1503 0 
L 84 0 
L 84 113 
Q 275 113 384 172 
Q 447 203 484 290 
Q 522 378 522 647 
L 522 3238 
Q 522 3728 498 3840 
Q 475 3953 426 3993 
Q 378 4034 297 4034 
Q 231 4034 84 3984 
L 41 4094 
L 897 4444 
L 1041 4444 
z
" transform="scale(0.015625)"/>
      </defs>
      <use xlink:href="#TimesNewRomanPSMT-4c"/>
      <use xlink:href="#TimesNewRomanPSMT-69" transform="translate(61.083984 0)"/>
      <use xlink:href="#TimesNewRomanPSMT-6b" transform="translate(88.867188 0)"/>
      <use xlink:href="#TimesNewRomanPSMT-65" transform="translate(138.867188 0)"/>
      <use xlink:href="#TimesNewRomanPSMT-6c" transform="translate(183.251953 0)"/>
      <use xlink:href="#TimesNewRomanPSMT-69" transform="translate(211.035156 0)"/>
      <use xlink:href="#TimesNewRomanPSMT-68" transform="translate(238.818359 0)"/>
      <use xlink:href="#TimesNewRomanPSMT-6f" transform="translate(288.818359 0)"/>
      <use xlink:href="#TimesNewRomanPSMT-6f" transform="translate(338.818359 0)"/>
      <use xlink:href="#TimesNewRomanPSMT-64" transform="translate(388.818359 0)"/>
     </g>
    </g>
   </g>
   <g id="line2d_38">
    <path d="M 46.913756 111.639953 
L 47.997356 110.935634 
L 49.080956 111.158307 
L 50.164556 108.911394 
L 51.248156 109.609403 
L 52.331756 109.507009 
L 53.415356 107.899073 
L 54.498956 108.588575 
L 55.582556 107.829221 
L 56.666156 107.668151 
L 58.833356 107.832072 
L 59.916956 107.474798 
L 61.000556 107.792477 
L 63.167756 107.345894 
L 64.251356 107.557434 
L 71.836556 107.233567 
L 76.170956 107.162744 
L 77.254556 107.115381 
L 78.338156 107.229507 
L 79.421756 107.105888 
L 81.588956 107.137214 
L 84.839756 107.149479 
L 96.759356 107.159375 
L 98.926556 107.129457 
L 154.190156 107.044055 
L 155.273756 133.864854 
L 156.357356 139.436235 
L 157.440956 144.206683 
L 158.524556 148.423383 
L 159.608156 151.347505 
L 160.691756 155.1914 
L 163.942556 162.526684 
L 165.026156 164.617677 
L 166.109756 165.953424 
L 167.193356 166.975984 
L 169.360556 170.239419 
L 170.444156 171.340049 
L 172.611356 174.641962 
L 173.694956 175.220052 
L 174.778556 175.929896 
L 175.862156 177.109969 
L 179.112956 179.601126 
L 180.196556 180.249787 
L 181.280156 181.156251 
L 182.363756 181.451962 
L 183.447356 181.868261 
L 184.530956 182.984937 
L 185.614556 183.370875 
L 186.698156 183.234681 
L 187.781756 184.417343 
L 188.865356 184.62406 
L 189.948956 185.791149 
L 191.032556 186.33597 
L 193.199756 186.573958 
L 194.283356 186.969048 
L 195.366956 187.592803 
L 196.450556 187.813612 
L 197.534156 188.483935 
L 200.784956 189.041507 
L 201.868556 189.285343 
L 202.952156 189.340438 
L 204.035756 189.822296 
L 205.119356 190.486068 
L 207.286556 191.238935 
L 208.370156 191.389812 
L 209.453756 191.754983 
L 211.620956 191.433016 
L 212.704556 191.805332 
L 213.788156 191.949193 
L 215.955356 192.439834 
L 218.122556 192.543281 
L 219.206156 192.821519 
L 221.373356 193.076294 
L 222.456956 193.427194 
L 223.540556 193.442498 
L 224.624156 193.571229 
L 226.791356 193.707494 
L 228.958556 194.198001 
L 230.042156 194.407096 
L 233.292956 194.426912 
L 234.376556 194.57654 
L 235.460156 194.38373 
L 237.627356 195.216566 
L 238.710956 195.308279 
L 239.794556 195.19656 
L 244.128956 195.47237 
L 245.212556 195.262506 
L 246.296156 195.493248 
L 249.546956 195.7552 
L 251.714156 196.005572 
L 252.797756 196.037167 
L 254.964956 196.38391 
L 256.048556 196.420865 
L 257.132156 196.599073 
L 258.215756 196.564021 
L 259.299356 196.385092 
L 262.550156 196.642482 
L 263.633756 187.988879 
L 264.717356 186.020763 
L 266.884556 185.26171 
L 267.968156 186.511432 
L 269.051756 187.084353 
L 270.135356 188.694188 
L 271.218956 188.894202 
L 272.302556 189.369469 
L 273.386156 189.506948 
L 274.469756 189.913824 
L 275.553356 191.11565 
L 276.636956 191.233009 
L 277.720556 191.88524 
L 278.804156 192.315322 
L 279.887756 192.341688 
L 280.971356 191.925364 
L 282.054956 191.962524 
L 284.222156 192.272491 
L 285.305756 192.845924 
L 286.389356 192.965071 
L 288.556556 193.508245 
L 289.640156 193.203147 
L 290.723756 193.363933 
L 292.890956 192.949045 
L 293.974556 193.374065 
L 295.058156 193.995005 
L 296.141756 194.289508 
L 298.308956 194.07681 
L 299.392556 194.449236 
L 301.559756 194.376944 
L 302.643356 194.593574 
L 304.810556 194.350597 
L 306.977756 194.604891 
L 308.061356 194.956269 
L 309.144956 195.574419 
L 311.312156 195.936207 
L 312.395756 196.269253 
L 314.562956 196.36133 
L 315.646556 196.183178 
L 316.730156 196.462036 
L 317.813756 196.324271 
L 318.897356 196.504775 
L 319.980956 196.334419 
L 321.064556 196.539686 
L 322.148156 196.631832 
L 323.231756 196.353406 
L 325.398956 196.23543 
L 326.482556 196.538046 
L 328.649756 196.658104 
L 329.733356 196.945932 
L 332.984156 196.793449 
L 336.234956 196.549124 
L 338.402156 196.691592 
L 341.652956 196.775256 
L 342.736556 196.532478 
L 343.820156 196.694748 
L 345.987356 196.855638 
L 347.070956 197.121624 
L 349.238156 197.322224 
L 350.321756 197.254212 
L 352.488956 197.451859 
L 353.572556 197.35791 
L 354.656156 197.554777 
L 355.739756 197.576377 
L 357.906956 197.833498 
L 360.074156 197.79025 
L 361.157756 197.947802 
L 363.324956 197.949377 
L 364.408556 197.841648 
L 366.575756 198.026378 
L 367.659356 197.931887 
L 374.160956 198.323709 
L 375.244556 198.238201 
L 376.328156 198.397222 
L 401.250956 198.565154 
L 403.418156 198.559878 
L 405.585356 198.646577 
L 409.919756 198.614145 
L 413.170556 198.56763 
L 416.421356 198.583455 
L 418.588556 198.728453 
L 419.672156 192.572643 
L 420.755756 194.49971 
L 421.839356 188.576916 
L 422.922956 114.054486 
L 424.006556 113.174257 
L 426.173756 112.752915 
L 428.340956 112.69436 
L 429.424556 113.451132 
L 430.508156 113.340926 
L 431.591756 121.755859 
L 432.675356 197.713925 
L 433.758956 197.76685 
L 435.926156 197.693401 
L 438.093356 197.799504 
L 443.511356 197.705315 
L 455.430956 198.120237 
L 456.514556 198.069779 
L 458.681756 198.198505 
L 459.765356 198.151824 
L 460.848956 198.299387 
L 466.266956 198.194302 
L 467.350556 198.29484 
L 469.517756 198.188162 
L 471.684956 198.185781 
L 473.852156 198.008592 
L 474.935756 198.092708 
L 476.019356 198.046487 
L 479.270156 198.21227 
L 481.437356 198.185443 
L 482.520956 198.315428 
L 489.022556 198.357105 
L 492.273356 198.322944 
L 494.440556 198.491062 
L 496.607756 198.367454 
L 497.691356 198.331193 
L 500.942156 198.494188 
L 504.192956 198.445439 
L 506.360156 198.54318 
L 517.196156 198.56527 
L 519.363356 198.583272 
L 522.614156 198.601206 
L 524.781356 198.530141 
L 530.199356 198.630787 
L 532.366556 198.695095 
L 536.700956 198.854884 
L 544.286156 198.767375 
L 546.453356 198.809701 
L 548.620556 198.748454 
L 550.787756 198.88699 
L 552.954956 198.839545 
L 555.122156 198.868734 
L 558.372956 198.901725 
L 585.462956 198.891562 
L 587.630156 198.954321 
L 588.713756 113.494479 
L 594.131756 113.198719 
L 596.298956 113.094804 
L 600.633356 112.642402 
L 602.800556 112.692945 
L 603.884156 112.669078 
L 604.967756 112.518688 
L 607.134956 112.456167 
L 609.302156 112.431348 
L 611.469356 112.196042 
L 612.552956 112.1679 
L 613.636556 113.027477 
L 614.720156 112.130172 
L 620.138156 111.947794 
L 621.221756 111.953134 
L 623.388956 111.784445 
L 624.472556 111.733355 
L 626.639756 111.841734 
L 636.392156 111.370996 
L 637.475756 111.226615 
L 638.559356 111.25595 
L 639.642956 113.737579 
L 640.726556 111.15887 
L 645.060956 111.341846 
L 651.562556 110.892745 
L 652.646156 110.995555 
L 656.980556 110.770127 
L 658.064156 110.723797 
L 660.231356 110.770349 
L 665.649356 110.721871 
L 667.816556 110.741808 
L 668.900156 110.634165 
L 669.983756 114.111264 
L 671.067356 110.571043 
L 673.234556 110.49631 
L 675.401756 110.41804 
L 677.568956 110.321957 
L 679.736156 110.398352 
L 682.986956 110.264413 
L 686.237756 110.20041 
L 690.572156 110.137043 
L 691.655756 110.196077 
L 693.822956 110.134261 
L 694.906556 110.174479 
L 694.906556 110.174479 
" clip-path="url(#p79143c8abf)" style="fill: none; stroke: #1f77b4; stroke-width: 1.6; stroke-linecap: square"/>
   </g>
   <g id="line2d_39">
    <path d="M 155.273756 173.126986 
L 156.357356 167.461533 
L 157.440956 162.615006 
L 158.524556 158.447081 
L 159.608156 155.580866 
L 160.691756 151.60834 
L 163.942556 144.281939 
L 165.026156 142.253612 
L 166.109756 140.787944 
L 167.193356 139.683504 
L 169.360556 136.521843 
L 170.444156 135.523376 
L 172.611356 132.220322 
L 174.778556 130.818009 
L 175.862156 129.686598 
L 176.945756 128.732209 
L 181.280156 125.604075 
L 183.447356 124.855924 
L 184.530956 123.653133 
L 185.614556 123.306478 
L 186.698156 123.404349 
L 187.781756 122.278611 
L 188.865356 122.045401 
L 189.948956 120.930064 
L 191.032556 120.317005 
L 193.199756 120.159438 
L 195.366956 119.095376 
L 196.450556 118.852162 
L 197.534156 118.160281 
L 199.701356 117.759597 
L 202.952156 117.295951 
L 204.035756 116.83157 
L 205.119356 116.167056 
L 207.286556 115.416319 
L 208.370156 115.250937 
L 209.453756 114.898802 
L 211.620956 115.183655 
L 212.704556 114.82515 
L 214.871756 114.414064 
L 215.955356 114.200035 
L 217.038956 114.21198 
L 218.122556 114.081257 
L 220.289756 113.649026 
L 221.373356 113.575473 
L 222.456956 113.189788 
L 225.707756 113.031031 
L 226.791356 112.949469 
L 227.874956 112.626187 
L 231.125756 112.237632 
L 233.292956 112.198972 
L 234.376556 112.054313 
L 235.460156 112.231641 
L 236.543756 111.883618 
L 237.627356 111.412368 
L 238.710956 111.315059 
L 239.794556 111.402168 
L 244.128956 111.149634 
L 245.212556 111.352731 
L 246.296156 111.143198 
L 247.379756 111.054575 
L 248.463356 111.07888 
L 250.630556 110.68478 
L 253.881356 110.394269 
L 254.964956 110.229715 
L 256.048556 110.211344 
L 257.132156 110.042023 
L 258.215756 110.036142 
L 259.299356 110.226974 
L 262.550156 109.974852 
L 263.633756 145.050077 
L 264.717356 152.50873 
L 266.884556 161.457139 
L 267.968156 163.288721 
L 269.051756 166.627449 
L 270.135356 167.616877 
L 272.302556 171.632959 
L 274.469756 174.918114 
L 275.553356 174.990013 
L 276.636956 176.420796 
L 277.720556 177.573604 
L 278.804156 178.110608 
L 279.887756 179.113931 
L 280.971356 180.364717 
L 284.222156 183.247976 
L 285.305756 183.118253 
L 286.389356 184.057304 
L 287.472956 184.329939 
L 288.556556 184.868141 
L 289.640156 185.87577 
L 290.723756 186.249214 
L 291.807356 186.751621 
L 292.890956 187.604494 
L 295.058156 188.069474 
L 296.141756 187.887477 
L 298.308956 189.533224 
L 299.392556 189.417502 
L 301.559756 190.069247 
L 304.810556 191.493187 
L 305.894156 191.496906 
L 306.977756 191.896858 
L 308.061356 191.830032 
L 309.144956 191.567358 
L 310.228556 191.804605 
L 314.562956 192.121179 
L 315.646556 192.498608 
L 316.730156 192.322222 
L 317.813756 192.501081 
L 318.897356 192.45955 
L 319.980956 192.875422 
L 322.148156 193.162096 
L 323.231756 193.557204 
L 324.315356 193.539113 
L 325.398956 193.948267 
L 326.482556 193.630329 
L 329.733356 194.08687 
L 330.816956 194.399029 
L 331.900556 194.26004 
L 334.067756 194.933774 
L 335.151356 195.327898 
L 336.234956 195.347726 
L 337.318556 195.214174 
L 338.402156 195.413092 
L 339.485756 195.14456 
L 341.652956 195.265526 
L 342.736556 195.506755 
L 343.820156 195.535595 
L 344.903756 195.713773 
L 345.987356 195.54044 
L 350.321756 196.086907 
L 351.405356 196.272888 
L 353.572556 196.328436 
L 355.739756 195.999302 
L 356.823356 196.066986 
L 360.074156 195.871149 
L 363.324956 196.040138 
L 364.408556 196.231828 
L 365.492156 196.20744 
L 367.659356 196.726487 
L 371.993756 196.451317 
L 377.411756 196.731355 
L 379.578956 196.822534 
L 380.662556 196.97266 
L 386.080556 197.117196 
L 390.414956 197.294968 
L 394.749356 197.218044 
L 400.167356 197.533647 
L 401.250956 197.418821 
L 402.334556 197.464761 
L 403.418156 197.630394 
L 406.668956 197.623057 
L 408.836156 197.653859 
L 420.755756 198.089706 
L 421.839356 197.832003 
L 422.922956 196.527527 
L 424.006556 196.551585 
L 426.173756 196.815702 
L 428.340956 196.894123 
L 429.424556 196.12111 
L 430.508156 196.274119 
L 431.591756 187.899612 
L 432.675356 112.904804 
L 437.009756 112.384274 
L 438.093356 112.437023 
L 443.511356 112.04279 
L 445.678556 111.941867 
L 446.762156 111.761621 
L 453.263756 111.582564 
L 455.430956 111.468791 
L 456.514556 111.587839 
L 460.848956 111.286103 
L 466.266956 111.234007 
L 469.517756 110.961522 
L 480.353756 110.788424 
L 485.771756 110.410951 
L 486.855356 110.394633 
L 487.938956 110.522586 
L 494.440556 110.151647 
L 498.774956 110.187911 
L 500.942156 110.054171 
L 502.025756 110.102813 
L 506.360156 109.882359 
L 509.610956 109.828032 
L 512.861756 109.691749 
L 518.279756 109.772902 
L 524.781356 109.747343 
L 529.115756 109.468611 
L 530.199356 109.559814 
L 532.366556 109.431057 
L 535.617356 109.403739 
L 541.035356 109.330699 
L 543.202556 109.352651 
L 546.453356 109.25682 
L 548.620556 109.256719 
L 552.954956 109.12728 
L 559.456556 109.042661 
L 562.707356 109.047127 
L 563.790956 108.968273 
L 565.958156 109.02978 
L 582.212156 108.944798 
L 584.379356 108.932628 
L 587.630156 108.839714 
L 588.713756 194.760329 
L 597.382556 194.928744 
L 598.466156 195.153654 
L 601.716956 195.206392 
L 603.884156 195.179242 
L 607.134956 195.383464 
L 608.218556 195.264482 
L 613.636556 195.600185 
L 615.803756 195.58853 
L 616.887356 195.705903 
L 623.388956 195.767892 
L 624.472556 195.833237 
L 625.556156 195.722681 
L 629.890556 195.772254 
L 630.974156 195.981333 
L 633.141356 196.04189 
L 635.308556 196.146603 
L 637.475756 196.377588 
L 638.559356 196.295192 
L 639.642956 196.406664 
L 642.893756 196.235417 
L 645.060956 196.227927 
L 648.311756 196.40527 
L 651.562556 196.499206 
L 652.646156 196.430433 
L 658.064156 196.723004 
L 659.147756 196.629553 
L 662.398556 196.719096 
L 663.482156 196.64994 
L 665.649356 196.628061 
L 669.983756 196.694368 
L 677.568956 197.033813 
L 679.736156 196.946716 
L 681.903356 197.139119 
L 684.070556 197.115052 
L 693.822956 197.104193 
L 694.906556 197.020043 
L 694.906556 197.020043 
" clip-path="url(#p79143c8abf)" style="fill: none; stroke: #ff7f0e; stroke-width: 1.6; stroke-linecap: square"/>
   </g>
   <g id="line2d_40">
    <path d="M 263.633756 173.379746 
L 264.717356 167.977865 
L 265.800956 163.405631 
L 266.884556 159.720774 
L 267.968156 156.441085 
L 269.051756 152.65523 
L 270.135356 149.992485 
L 272.302556 145.318124 
L 273.386156 143.573206 
L 274.469756 141.478889 
L 275.553356 140.250547 
L 277.720556 136.834324 
L 283.138556 131.851288 
L 284.222156 130.694349 
L 285.305756 130.302899 
L 286.389356 129.209799 
L 287.472956 128.636622 
L 289.640156 127.190979 
L 290.723756 126.631103 
L 291.807356 126.343164 
L 293.974556 125.023697 
L 295.058156 124.205609 
L 296.141756 124.037325 
L 298.308956 122.64212 
L 300.476156 122.129184 
L 301.559756 121.749526 
L 302.643356 121.106936 
L 304.810556 120.41036 
L 305.894156 120.219802 
L 306.977756 119.722211 
L 309.144956 119.06476 
L 310.228556 118.641659 
L 311.312156 118.414611 
L 312.395756 118.015493 
L 316.730156 117.439481 
L 318.897356 117.220922 
L 319.980956 117.00576 
L 321.064556 116.635998 
L 323.231756 116.281721 
L 324.315356 116.35289 
L 325.398956 116.031413 
L 326.482556 116.021451 
L 328.649756 115.544755 
L 330.816956 114.862627 
L 331.900556 114.968442 
L 332.984156 114.835484 
L 335.151356 114.245079 
L 337.318556 114.342717 
L 338.402156 114.087518 
L 339.485756 114.343823 
L 340.569356 114.159337 
L 342.736556 114.130878 
L 344.903756 113.745689 
L 345.987356 113.80258 
L 347.070956 113.39455 
L 348.154556 113.254483 
L 349.238156 112.958259 
L 350.321756 112.856189 
L 351.405356 112.540512 
L 352.488956 112.383447 
L 353.572556 112.496008 
L 354.656156 112.487484 
L 355.739756 112.605002 
L 356.823356 112.383248 
L 358.990556 112.476769 
L 360.074156 112.520413 
L 361.157756 112.315956 
L 365.492156 112.032336 
L 366.575756 111.676593 
L 367.659356 111.540304 
L 368.742956 111.527173 
L 369.826556 111.648657 
L 370.910156 111.503177 
L 371.993756 111.532218 
L 373.077356 111.341334 
L 375.244556 111.267389 
L 376.328156 111.050156 
L 378.495356 110.963847 
L 380.662556 110.761675 
L 383.913356 110.789657 
L 384.996956 110.648403 
L 386.080556 110.638389 
L 388.247756 110.370871 
L 392.582156 110.476579 
L 395.832956 110.351883 
L 400.167356 110.097541 
L 402.334556 110.191695 
L 403.418156 109.989615 
L 406.668956 109.935467 
L 407.752556 110.003522 
L 411.003356 109.877927 
L 412.086956 109.890674 
L 414.254156 109.708893 
L 418.588556 109.48249 
L 419.672156 115.602173 
L 420.755756 113.587386 
L 421.839356 119.761008 
L 422.922956 195.611782 
L 424.006556 196.441199 
L 426.173756 196.605702 
L 427.257356 196.534516 
L 429.424556 196.602699 
L 431.591756 196.51623 
L 432.675356 195.559531 
L 437.009756 196.002793 
L 438.093356 195.932447 
L 441.344156 196.305471 
L 446.762156 196.521505 
L 452.180156 196.357215 
L 454.347356 196.59524 
L 460.848956 196.590595 
L 467.350556 196.744718 
L 469.517756 197.02728 
L 471.684956 196.949078 
L 473.852156 197.191654 
L 474.935756 197.19327 
L 476.019356 197.30998 
L 478.186556 197.124803 
L 480.353756 197.178474 
L 482.520956 197.301879 
L 517.196156 197.854635 
L 518.279756 197.76797 
L 529.115756 198.110046 
L 530.199356 197.970156 
L 532.366556 198.037034 
L 534.533756 197.953183 
L 543.202556 198.052026 
L 547.536956 198.142971 
L 565.958156 198.294479 
L 573.543356 198.361684 
L 575.710556 198.44591 
L 577.877756 198.313668 
L 587.630156 198.372459 
L 588.713756 197.91731 
L 595.215356 198.101375 
L 596.298956 198.112445 
L 597.382556 198.29272 
L 607.134956 198.333403 
L 608.218556 198.459074 
L 610.385756 198.417873 
L 612.552956 198.392338 
L 613.636556 197.54146 
L 614.720156 198.45826 
L 619.054556 198.559145 
L 624.472556 198.59603 
L 635.308556 198.63351 
L 636.392156 198.52764 
L 638.559356 198.613816 
L 639.642956 196.030805 
L 640.726556 198.618014 
L 641.810156 198.589076 
L 642.893756 198.676212 
L 645.060956 198.606205 
L 649.395356 198.723001 
L 650.478956 198.665506 
L 651.562556 198.77335 
L 658.064156 198.716013 
L 668.900156 198.850713 
L 669.983756 195.352512 
L 671.067356 198.833232 
L 674.318156 198.765347 
L 676.485356 198.841748 
L 680.819756 198.750064 
L 682.986956 198.824773 
L 685.154156 198.790094 
L 694.906556 198.971244 
L 694.906556 198.971244 
" clip-path="url(#p79143c8abf)" style="fill: none; stroke: #2ca02c; stroke-width: 1.6; stroke-linecap: square"/>
   </g>
   <g id="line2d_41">
    <path d="M 45.830156 107.014833 
L 46.913756 194.943627 
L 47.997356 195.647947 
L 49.080956 195.425274 
L 50.164556 197.672187 
L 51.248156 196.974178 
L 52.331756 197.076572 
L 53.415356 198.684507 
L 54.498956 197.995006 
L 55.582556 198.75436 
L 56.666156 198.91543 
L 58.833356 198.751509 
L 59.916956 199.108783 
L 61.000556 198.791104 
L 63.167756 199.237686 
L 64.251356 199.026147 
L 71.836556 199.350013 
L 76.170956 199.420836 
L 77.254556 199.4682 
L 78.338156 199.354073 
L 79.421756 199.477693 
L 81.588956 199.446367 
L 84.839756 199.434102 
L 96.759356 199.424206 
L 98.926556 199.454124 
L 154.190156 199.539526 
L 155.273756 199.160489 
L 157.440956 199.33064 
L 159.608156 199.223958 
L 160.691756 199.352588 
L 165.026156 199.28104 
L 167.193356 199.492841 
L 168.276956 199.505412 
L 170.444156 199.288904 
L 171.527756 199.412542 
L 172.611356 199.290045 
L 173.694956 199.421536 
L 178.029356 199.428863 
L 180.196556 199.460933 
L 181.280156 199.392002 
L 182.363756 199.504408 
L 183.447356 199.428144 
L 184.530956 199.514259 
L 187.781756 199.456375 
L 192.116156 199.470796 
L 193.199756 199.418932 
L 194.283356 199.517938 
L 196.450556 199.486555 
L 200.784956 199.523462 
L 202.952156 199.51594 
L 209.453756 199.498544 
L 215.955356 199.512459 
L 219.206156 199.51187 
L 227.874956 199.526471 
L 231.125756 199.526142 
L 244.128956 199.530325 
L 260.382956 199.539188 
L 262.550156 199.534995 
L 263.633756 199.302374 
L 264.717356 199.213718 
L 265.800956 199.413665 
L 266.884556 199.281452 
L 267.968156 199.479839 
L 269.051756 199.354044 
L 271.218956 199.451906 
L 273.386156 199.346834 
L 276.636956 199.519861 
L 277.720556 199.427909 
L 284.222156 199.50626 
L 286.389356 199.488903 
L 387.164156 199.546503 
L 393.665756 199.550335 
L 419.672156 199.550525 
L 435.926156 199.54228 
L 441.344156 199.544256 
L 460.848956 199.544992 
L 482.520956 199.550265 
L 522.614156 199.55873 
L 694.906556 199.55531 
L 694.906556 199.55531 
" clip-path="url(#p79143c8abf)" style="fill: none; stroke-dasharray: 5.92,2.56; stroke-dashoffset: 0; stroke: #d62728; stroke-width: 1.6"/>
   </g>
   <g id="patch_6">
    <path d="M 45.830156 204.192 
L 45.830156 102.387349 
" style="fill: none; stroke: #000000; stroke-width: 0.8; stroke-linejoin: miter; stroke-linecap: square"/>
   </g>
   <g id="patch_7">
    <path d="M 45.830156 204.192 
L 695.990156 204.192 
" style="fill: none; stroke: #000000; stroke-width: 0.8; stroke-linejoin: miter; stroke-linecap: square"/>
   </g>
  </g>
  <g id="legend_1">
   <g id="line2d_42">
    <path d="M 168.175 251.760937 
L 179.175 251.760937 
L 190.175 251.760937 
" style="fill: none; stroke: #1f77b4; stroke-width: 1.6; stroke-linecap: square"/>
   </g>
   <g id="text_21">
    <!-- Context 1 -->
    <g transform="translate(198.175 255.260937) scale(0.1 -0.1)">
     <defs>
      <path id="TimesNewRomanPSMT-43" d="M 3853 4334 
L 3950 2894 
L 3853 2894 
Q 3659 3541 3300 3825 
Q 2941 4109 2438 4109 
Q 2016 4109 1675 3895 
Q 1334 3681 1139 3212 
Q 944 2744 944 2047 
Q 944 1472 1128 1050 
Q 1313 628 1683 403 
Q 2053 178 2528 178 
Q 2941 178 3256 354 
Q 3572 531 3950 1056 
L 4047 994 
Q 3728 428 3303 165 
Q 2878 -97 2294 -97 
Q 1241 -97 663 684 
Q 231 1266 231 2053 
Q 231 2688 515 3219 
Q 800 3750 1298 4042 
Q 1797 4334 2388 4334 
Q 2847 4334 3294 4109 
Q 3425 4041 3481 4041 
Q 3566 4041 3628 4100 
Q 3709 4184 3744 4334 
L 3853 4334 
z
" transform="scale(0.015625)"/>
      <path id="TimesNewRomanPSMT-6e" d="M 1034 2341 
Q 1538 2947 1994 2947 
Q 2228 2947 2397 2830 
Q 2566 2713 2666 2444 
Q 2734 2256 2734 1869 
L 2734 647 
Q 2734 375 2778 278 
Q 2813 200 2889 156 
Q 2966 113 3172 113 
L 3172 0 
L 1756 0 
L 1756 113 
L 1816 113 
Q 2016 113 2095 173 
Q 2175 234 2206 353 
Q 2219 400 2219 647 
L 2219 1819 
Q 2219 2209 2117 2386 
Q 2016 2563 1775 2563 
Q 1403 2563 1034 2156 
L 1034 647 
Q 1034 356 1069 288 
Q 1113 197 1189 155 
Q 1266 113 1500 113 
L 1500 0 
L 84 0 
L 84 113 
L 147 113 
Q 366 113 442 223 
Q 519 334 519 647 
L 519 1709 
Q 519 2225 495 2337 
Q 472 2450 423 2490 
Q 375 2531 294 2531 
Q 206 2531 84 2484 
L 38 2597 
L 900 2947 
L 1034 2947 
L 1034 2341 
z
" transform="scale(0.015625)"/>
      <path id="TimesNewRomanPSMT-78" d="M 84 2863 
L 1431 2863 
L 1431 2747 
Q 1303 2747 1251 2703 
Q 1200 2659 1200 2588 
Q 1200 2513 1309 2356 
Q 1344 2306 1413 2200 
L 1616 1875 
L 1850 2200 
Q 2075 2509 2075 2591 
Q 2075 2656 2022 2701 
Q 1969 2747 1850 2747 
L 1850 2863 
L 2819 2863 
L 2819 2747 
Q 2666 2738 2553 2663 
Q 2400 2556 2134 2200 
L 1744 1678 
L 2456 653 
Q 2719 275 2831 198 
Q 2944 122 3122 113 
L 3122 0 
L 1772 0 
L 1772 113 
Q 1913 113 1991 175 
Q 2050 219 2050 291 
Q 2050 363 1850 653 
L 1431 1266 
L 972 653 
Q 759 369 759 316 
Q 759 241 829 180 
Q 900 119 1041 113 
L 1041 0 
L 106 0 
L 106 113 
Q 219 128 303 191 
Q 422 281 703 653 
L 1303 1450 
L 759 2238 
Q 528 2575 401 2661 
Q 275 2747 84 2747 
L 84 2863 
z
" transform="scale(0.015625)"/>
      <path id="TimesNewRomanPSMT-20" transform="scale(0.015625)"/>
     </defs>
     <use xlink:href="#TimesNewRomanPSMT-43"/>
     <use xlink:href="#TimesNewRomanPSMT-6f" transform="translate(66.699219 0)"/>
     <use xlink:href="#TimesNewRomanPSMT-6e" transform="translate(116.699219 0)"/>
     <use xlink:href="#TimesNewRomanPSMT-74" transform="translate(166.699219 0)"/>
     <use xlink:href="#TimesNewRomanPSMT-65" transform="translate(194.482422 0)"/>
     <use xlink:href="#TimesNewRomanPSMT-78" transform="translate(238.867188 0)"/>
     <use xlink:href="#TimesNewRomanPSMT-74" transform="translate(288.867188 0)"/>
     <use xlink:href="#TimesNewRomanPSMT-20" transform="translate(316.650391 0)"/>
     <use xlink:href="#TimesNewRomanPSMT-31" transform="translate(341.650391 0)"/>
    </g>
   </g>
   <g id="line2d_43">
    <path d="M 249.340625 251.760937 
L 260.340625 251.760937 
L 271.340625 251.760937 
" style="fill: none; stroke: #ff7f0e; stroke-width: 1.6; stroke-linecap: square"/>
   </g>
   <g id="text_22">
    <!-- Context 2 -->
    <g transform="translate(279.340625 255.260937) scale(0.1 -0.1)">
     <use xlink:href="#TimesNewRomanPSMT-43"/>
     <use xlink:href="#TimesNewRomanPSMT-6f" transform="translate(66.699219 0)"/>
     <use xlink:href="#TimesNewRomanPSMT-6e" transform="translate(116.699219 0)"/>
     <use xlink:href="#TimesNewRomanPSMT-74" transform="translate(166.699219 0)"/>
     <use xlink:href="#TimesNewRomanPSMT-65" transform="translate(194.482422 0)"/>
     <use xlink:href="#TimesNewRomanPSMT-78" transform="translate(238.867188 0)"/>
     <use xlink:href="#TimesNewRomanPSMT-74" transform="translate(288.867188 0)"/>
     <use xlink:href="#TimesNewRomanPSMT-20" transform="translate(316.650391 0)"/>
     <use xlink:href="#TimesNewRomanPSMT-32" transform="translate(341.650391 0)"/>
    </g>
   </g>
   <g id="line2d_44">
    <path d="M 330.50625 251.760937 
L 341.50625 251.760937 
L 352.50625 251.760937 
" style="fill: none; stroke: #2ca02c; stroke-width: 1.6; stroke-linecap: square"/>
   </g>
   <g id="text_23">
    <!-- Context 3 -->
    <g transform="translate(360.50625 255.260937) scale(0.1 -0.1)">
     <use xlink:href="#TimesNewRomanPSMT-43"/>
     <use xlink:href="#TimesNewRomanPSMT-6f" transform="translate(66.699219 0)"/>
     <use xlink:href="#TimesNewRomanPSMT-6e" transform="translate(116.699219 0)"/>
     <use xlink:href="#TimesNewRomanPSMT-74" transform="translate(166.699219 0)"/>
     <use xlink:href="#TimesNewRomanPSMT-65" transform="translate(194.482422 0)"/>
     <use xlink:href="#TimesNewRomanPSMT-78" transform="translate(238.867188 0)"/>
     <use xlink:href="#TimesNewRomanPSMT-74" transform="translate(288.867188 0)"/>
     <use xlink:href="#TimesNewRomanPSMT-20" transform="translate(316.650391 0)"/>
     <use xlink:href="#TimesNewRomanPSMT-33" transform="translate(341.650391 0)"/>
    </g>
   </g>
   <g id="line2d_45">
    <path d="M 411.671875 251.760937 
L 422.671875 251.760937 
L 433.671875 251.760937 
" style="fill: none; stroke-dasharray: 5.92,2.56; stroke-dashoffset: 0; stroke: #d62728; stroke-width: 1.6"/>
   </g>
   <g id="text_24">
    <!-- Novel context -->
    <g transform="translate(441.671875 255.260937) scale(0.1 -0.1)">
     <defs>
      <path id="TimesNewRomanPSMT-4e" d="M -84 4238 
L 1066 4238 
L 3656 1059 
L 3656 3503 
Q 3656 3894 3569 3991 
Q 3453 4122 3203 4122 
L 3056 4122 
L 3056 4238 
L 4531 4238 
L 4531 4122 
L 4381 4122 
Q 4113 4122 4000 3959 
Q 3931 3859 3931 3503 
L 3931 -69 
L 3819 -69 
L 1025 3344 
L 1025 734 
Q 1025 344 1109 247 
Q 1228 116 1475 116 
L 1625 116 
L 1625 0 
L 150 0 
L 150 116 
L 297 116 
Q 569 116 681 278 
Q 750 378 750 734 
L 750 3681 
Q 566 3897 470 3965 
Q 375 4034 191 4094 
Q 100 4122 -84 4122 
L -84 4238 
z
" transform="scale(0.015625)"/>
      <path id="TimesNewRomanPSMT-76" d="M 53 2863 
L 1400 2863 
L 1400 2747 
L 1313 2747 
Q 1191 2747 1127 2687 
Q 1063 2628 1063 2528 
Q 1063 2419 1128 2269 
L 1794 688 
L 2463 2328 
Q 2534 2503 2534 2594 
Q 2534 2638 2509 2666 
Q 2475 2713 2422 2730 
Q 2369 2747 2206 2747 
L 2206 2863 
L 3141 2863 
L 3141 2747 
Q 2978 2734 2916 2681 
Q 2806 2588 2719 2369 
L 1703 -88 
L 1575 -88 
L 553 2328 
Q 484 2497 421 2570 
Q 359 2644 263 2694 
Q 209 2722 53 2747 
L 53 2863 
z
" transform="scale(0.015625)"/>
      <path id="TimesNewRomanPSMT-63" d="M 2631 1088 
Q 2516 522 2178 217 
Q 1841 -88 1431 -88 
Q 944 -88 581 321 
Q 219 731 219 1428 
Q 219 2103 620 2525 
Q 1022 2947 1584 2947 
Q 2006 2947 2278 2723 
Q 2550 2500 2550 2259 
Q 2550 2141 2473 2067 
Q 2397 1994 2259 1994 
Q 2075 1994 1981 2113 
Q 1928 2178 1911 2362 
Q 1894 2547 1784 2644 
Q 1675 2738 1481 2738 
Q 1169 2738 978 2506 
Q 725 2200 725 1697 
Q 725 1184 976 792 
Q 1228 400 1656 400 
Q 1963 400 2206 609 
Q 2378 753 2541 1131 
L 2631 1088 
z
" transform="scale(0.015625)"/>
     </defs>
     <use xlink:href="#TimesNewRomanPSMT-4e"/>
     <use xlink:href="#TimesNewRomanPSMT-6f" transform="translate(72.216797 0)"/>
     <use xlink:href="#TimesNewRomanPSMT-76" transform="translate(122.216797 0)"/>
     <use xlink:href="#TimesNewRomanPSMT-65" transform="translate(172.216797 0)"/>
     <use xlink:href="#TimesNewRomanPSMT-6c" transform="translate(216.601562 0)"/>
     <use xlink:href="#TimesNewRomanPSMT-20" transform="translate(244.384766 0)"/>
     <use xlink:href="#TimesNewRomanPSMT-63" transform="translate(269.384766 0)"/>
     <use xlink:href="#TimesNewRomanPSMT-6f" transform="translate(313.769531 0)"/>
     <use xlink:href="#TimesNewRomanPSMT-6e" transform="translate(363.769531 0)"/>
     <use xlink:href="#TimesNewRomanPSMT-74" transform="translate(413.769531 0)"/>
     <use xlink:href="#TimesNewRomanPSMT-65" transform="translate(441.552734 0)"/>
     <use xlink:href="#TimesNewRomanPSMT-78" transform="translate(485.9375 0)"/>
     <use xlink:href="#TimesNewRomanPSMT-74" transform="translate(535.9375 0)"/>
    </g>
   </g>
  </g>
 </g>
 <defs>
  <clipPath id="pfcc909d65c">
   <rect x="45.830156" y="7.2" width="650.16" height="81.443721"/>
  </clipPath>
  <clipPath id="p79143c8abf">
   <rect x="45.830156" y="102.387349" width="650.16" height="101.804651"/>
  </clipPath>
 </defs>
</svg>
