<?xml version="1.0" encoding="utf-8" standalone="no"?>
<!DOCTYPE svg PUBLIC "-//W3C//DTD SVG 1.1//EN"
  "http://www.w3.org/Graphics/SVG/1.1/DTD/svg11.dtd">
<svg xmlns:xlink="http://www.w3.org/1999/xlink" width="692.349062pt" height="1196.794688pt" viewBox="0 0 692.349062 1196.794688" xmlns="http://www.w3.org/2000/svg" version="1.1">
 <metadata>
  <rdf:RDF xmlns:dc="http://purl.org/dc/elements/1.1/" xmlns:cc="http://creativecommons.org/ns#" xmlns:rdf="http://www.w3.org/1999/02/22-rdf-syntax-ns#">
   <cc:Work>
    <dc:type rdf:resource="http://purl.org/dc/dcmitype/StillImage"/>
    <dc:date>2025-05-13T21:04:36.179279</dc:date>
    <dc:format>image/svg+xml</dc:format>
    <dc:creator>
     <cc:Agent>
      <dc:title>Matplotlib v3.10.1, https://matplotlib.org/</dc:title>
     </cc:Agent>
    </dc:creator>
   </cc:Work>
  </rdf:RDF>
 </metadata>
 <defs>
  <style type="text/css">*{stroke-linejoin: round; stroke-linecap: butt}</style>
 </defs>
 <g id="figure_1">
  <g id="patch_1">
   <path d="M 0 1196.794688 
L 692.349062 1196.794688 
L 692.349062 0 
L 0 0 
z
" style="fill: #ffffff"/>
  </g>
  <g id="axes_1">
   <g id="patch_2">
    <path d="M 62.549063 371.513125 
L 685.149063 371.513125 
L 685.149063 26.393125 
L 62.549063 26.393125 
z
" style="fill: #ffffff"/>
   </g>
   <g id="PathCollection_1">
    <defs>
     <path id="C0_0_398b80bfbc" d="M 0 3.872983 
C 1.027127 3.872983 2.012324 3.464901 2.738613 2.738613 
C 3.464901 2.012324 3.872983 1.027127 3.872983 -0 
C 3.872983 -1.027127 3.464901 -2.012324 2.738613 -2.738613 
C 2.012324 -3.464901 1.027127 -3.872983 0 -3.872983 
C -1.027127 -3.872983 -2.012324 -3.464901 -2.738613 -2.738613 
C -3.464901 -2.012324 -3.872983 -1.027127 -3.872983 0 
C -3.872983 1.027127 -3.464901 2.012324 -2.738613 2.738613 
C -2.012324 3.464901 -1.027127 3.872983 0 3.872983 
z
"/>
    </defs>
    <g clip-path="url(#p1fca1b47bf)">
     <use xlink:href="#C0_0_398b80bfbc" x="144.889264" y="355.825852" style="fill: #ff0000; fill-opacity: 0.15"/>
    </g>
    <g clip-path="url(#p1fca1b47bf)">
     <use xlink:href="#C0_0_398b80bfbc" x="144.889264" y="355.825852" style="fill: #ff0000; fill-opacity: 0.15"/>
    </g>
    <g clip-path="url(#p1fca1b47bf)">
     <use xlink:href="#C0_0_398b80bfbc" x="144.889264" y="355.825852" style="fill: #ff0000; fill-opacity: 0.15"/>
    </g>
    <g clip-path="url(#p1fca1b47bf)">
     <use xlink:href="#C0_0_398b80bfbc" x="144.889264" y="355.825852" style="fill: #ff0000; fill-opacity: 0.15"/>
    </g>
    <g clip-path="url(#p1fca1b47bf)">
     <use xlink:href="#C0_0_398b80bfbc" x="144.889264" y="355.825852" style="fill: #ff0000; fill-opacity: 0.15"/>
    </g>
    <g clip-path="url(#p1fca1b47bf)">
     <use xlink:href="#C0_0_398b80bfbc" x="372.426952" y="355.825852" style="fill: #ff0000; fill-opacity: 0.15"/>
    </g>
    <g clip-path="url(#p1fca1b47bf)">
     <use xlink:href="#C0_0_398b80bfbc" x="372.426952" y="355.825852" style="fill: #ff0000; fill-opacity: 0.15"/>
    </g>
    <g clip-path="url(#p1fca1b47bf)">
     <use xlink:href="#C0_0_398b80bfbc" x="372.426952" y="355.825852" style="fill: #ff0000; fill-opacity: 0.15"/>
    </g>
    <g clip-path="url(#p1fca1b47bf)">
     <use xlink:href="#C0_0_398b80bfbc" x="372.426952" y="355.825852" style="fill: #ff0000; fill-opacity: 0.15"/>
    </g>
    <g clip-path="url(#p1fca1b47bf)">
     <use xlink:href="#C0_0_398b80bfbc" x="372.426952" y="355.825852" style="fill: #ff0000; fill-opacity: 0.15"/>
    </g>
    <g clip-path="url(#p1fca1b47bf)">
     <use xlink:href="#C0_0_398b80bfbc" x="372.426952" y="355.825852" style="fill: #ff0000; fill-opacity: 0.15"/>
    </g>
    <g clip-path="url(#p1fca1b47bf)">
     <use xlink:href="#C0_0_398b80bfbc" x="429.311374" y="355.825852" style="fill: #ff0000; fill-opacity: 0.15"/>
    </g>
    <g clip-path="url(#p1fca1b47bf)">
     <use xlink:href="#C0_0_398b80bfbc" x="486.195796" y="355.825852" style="fill: #ff0000; fill-opacity: 0.15"/>
    </g>
    <g clip-path="url(#p1fca1b47bf)">
     <use xlink:href="#C0_0_398b80bfbc" x="543.080218" y="355.825852" style="fill: #ff0000; fill-opacity: 0.15"/>
    </g>
    <g clip-path="url(#p1fca1b47bf)">
     <use xlink:href="#C0_0_398b80bfbc" x="599.96464" y="355.825852" style="fill: #ff0000; fill-opacity: 0.15"/>
    </g>
    <g clip-path="url(#p1fca1b47bf)">
     <use xlink:href="#C0_0_398b80bfbc" x="372.426952" y="355.825852" style="fill: #ff0000; fill-opacity: 0.15"/>
    </g>
    <g clip-path="url(#p1fca1b47bf)">
     <use xlink:href="#C0_0_398b80bfbc" x="372.426952" y="355.825852" style="fill: #ff0000; fill-opacity: 0.15"/>
    </g>
    <g clip-path="url(#p1fca1b47bf)">
     <use xlink:href="#C0_0_398b80bfbc" x="372.426952" y="355.825852" style="fill: #ff0000; fill-opacity: 0.15"/>
    </g>
    <g clip-path="url(#p1fca1b47bf)">
     <use xlink:href="#C0_0_398b80bfbc" x="372.426952" y="355.825852" style="fill: #ff0000; fill-opacity: 0.15"/>
    </g>
    <g clip-path="url(#p1fca1b47bf)">
     <use xlink:href="#C0_0_398b80bfbc" x="372.426952" y="355.825852" style="fill: #ff0000; fill-opacity: 0.15"/>
    </g>
   </g>
   <g id="matplotlib.axis_1">
    <g id="xtick_1">
     <g id="line2d_1">
      <defs>
       <path id="mb43a0a0242" d="M 0 0 
L 0 3.5 
" style="stroke: #000000; stroke-width: 0.8"/>
      </defs>
      <g>
       <use xlink:href="#mb43a0a0242" x="88.004841" y="371.513125" style="stroke: #000000; stroke-width: 0.8"/>
      </g>
     </g>
    </g>
    <g id="xtick_2">
     <g id="line2d_2">
      <g>
       <use xlink:href="#mb43a0a0242" x="159.110369" y="371.513125" style="stroke: #000000; stroke-width: 0.8"/>
      </g>
     </g>
    </g>
    <g id="xtick_3">
     <g id="line2d_3">
      <g>
       <use xlink:href="#mb43a0a0242" x="230.215897" y="371.513125" style="stroke: #000000; stroke-width: 0.8"/>
      </g>
     </g>
    </g>
    <g id="xtick_4">
     <g id="line2d_4">
      <g>
       <use xlink:href="#mb43a0a0242" x="301.321424" y="371.513125" style="stroke: #000000; stroke-width: 0.8"/>
      </g>
     </g>
    </g>
    <g id="xtick_5">
     <g id="line2d_5">
      <g>
       <use xlink:href="#mb43a0a0242" x="372.426952" y="371.513125" style="stroke: #000000; stroke-width: 0.8"/>
      </g>
     </g>
    </g>
    <g id="xtick_6">
     <g id="line2d_6">
      <g>
       <use xlink:href="#mb43a0a0242" x="443.53248" y="371.513125" style="stroke: #000000; stroke-width: 0.8"/>
      </g>
     </g>
    </g>
    <g id="xtick_7">
     <g id="line2d_7">
      <g>
       <use xlink:href="#mb43a0a0242" x="514.638007" y="371.513125" style="stroke: #000000; stroke-width: 0.8"/>
      </g>
     </g>
    </g>
    <g id="xtick_8">
     <g id="line2d_8">
      <g>
       <use xlink:href="#mb43a0a0242" x="585.743535" y="371.513125" style="stroke: #000000; stroke-width: 0.8"/>
      </g>
     </g>
    </g>
    <g id="xtick_9">
     <g id="line2d_9">
      <g>
       <use xlink:href="#mb43a0a0242" x="656.849063" y="371.513125" style="stroke: #000000; stroke-width: 0.8"/>
      </g>
     </g>
    </g>
   </g>
   <g id="matplotlib.axis_2">
    <g id="ytick_1">
     <g id="line2d_10">
      <defs>
       <path id="mb501f299fb" d="M 0 0 
L -3.5 0 
" style="stroke: #000000; stroke-width: 0.8"/>
      </defs>
      <g>
       <use xlink:href="#mb501f299fb" x="62.549063" y="355.825852" style="stroke: #000000; stroke-width: 0.8"/>
      </g>
     </g>
     <g id="text_1">
      <!-- 0 -->
      <g transform="translate(47.549063 361.380852) scale(0.16 -0.16)">
       <defs>
        <path id="TimesNewRomanPSMT-30" d="M 231 2094 
Q 231 2819 450 3342 
Q 669 3866 1031 4122 
Q 1313 4325 1613 4325 
Q 2100 4325 2488 3828 
Q 2972 3213 2972 2159 
Q 2972 1422 2759 906 
Q 2547 391 2217 158 
Q 1888 -75 1581 -75 
Q 975 -75 572 641 
Q 231 1244 231 2094 
z
M 844 2016 
Q 844 1141 1059 588 
Q 1238 122 1591 122 
Q 1759 122 1940 273 
Q 2122 425 2216 781 
Q 2359 1319 2359 2297 
Q 2359 3022 2209 3506 
Q 2097 3866 1919 4016 
Q 1791 4119 1609 4119 
Q 1397 4119 1231 3928 
Q 1006 3669 925 3112 
Q 844 2556 844 2016 
z
" transform="scale(0.015625)"/>
       </defs>
       <use xlink:href="#TimesNewRomanPSMT-30"/>
      </g>
     </g>
    </g>
    <g id="ytick_2">
     <g id="line2d_11">
      <g>
       <use xlink:href="#mb501f299fb" x="62.549063" y="302.641445" style="stroke: #000000; stroke-width: 0.8"/>
      </g>
     </g>
     <g id="text_2">
      <!-- 20 -->
      <g transform="translate(39.549063 308.196445) scale(0.16 -0.16)">
       <defs>
        <path id="TimesNewRomanPSMT-32" d="M 2934 816 
L 2638 0 
L 138 0 
L 138 116 
Q 1241 1122 1691 1759 
Q 2141 2397 2141 2925 
Q 2141 3328 1894 3587 
Q 1647 3847 1303 3847 
Q 991 3847 742 3664 
Q 494 3481 375 3128 
L 259 3128 
Q 338 3706 661 4015 
Q 984 4325 1469 4325 
Q 1984 4325 2329 3994 
Q 2675 3663 2675 3213 
Q 2675 2891 2525 2569 
Q 2294 2063 1775 1497 
Q 997 647 803 472 
L 1909 472 
Q 2247 472 2383 497 
Q 2519 522 2628 598 
Q 2738 675 2819 816 
L 2934 816 
z
" transform="scale(0.015625)"/>
       </defs>
       <use xlink:href="#TimesNewRomanPSMT-32"/>
       <use xlink:href="#TimesNewRomanPSMT-30" transform="translate(50 0)"/>
      </g>
     </g>
    </g>
    <g id="ytick_3">
     <g id="line2d_12">
      <g>
       <use xlink:href="#mb501f299fb" x="62.549063" y="249.457038" style="stroke: #000000; stroke-width: 0.8"/>
      </g>
     </g>
     <g id="text_3">
      <!-- 40 -->
      <g transform="translate(39.549063 255.012038) scale(0.16 -0.16)">
       <defs>
        <path id="TimesNewRomanPSMT-34" d="M 2978 1563 
L 2978 1119 
L 2409 1119 
L 2409 0 
L 1894 0 
L 1894 1119 
L 100 1119 
L 100 1519 
L 2066 4325 
L 2409 4325 
L 2409 1563 
L 2978 1563 
z
M 1894 1563 
L 1894 3666 
L 406 1563 
L 1894 1563 
z
" transform="scale(0.015625)"/>
       </defs>
       <use xlink:href="#TimesNewRomanPSMT-34"/>
       <use xlink:href="#TimesNewRomanPSMT-30" transform="translate(50 0)"/>
      </g>
     </g>
    </g>
    <g id="ytick_4">
     <g id="line2d_13">
      <g>
       <use xlink:href="#mb501f299fb" x="62.549063" y="196.272631" style="stroke: #000000; stroke-width: 0.8"/>
      </g>
     </g>
     <g id="text_4">
      <!-- 60 -->
      <g transform="translate(39.549063 201.827631) scale(0.16 -0.16)">
       <defs>
        <path id="TimesNewRomanPSMT-36" d="M 2869 4325 
L 2869 4209 
Q 2456 4169 2195 4045 
Q 1934 3922 1679 3669 
Q 1425 3416 1258 3105 
Q 1091 2794 978 2366 
Q 1428 2675 1881 2675 
Q 2316 2675 2634 2325 
Q 2953 1975 2953 1425 
Q 2953 894 2631 456 
Q 2244 -75 1606 -75 
Q 1172 -75 869 213 
Q 275 772 275 1663 
Q 275 2231 503 2743 
Q 731 3256 1154 3653 
Q 1578 4050 1965 4187 
Q 2353 4325 2688 4325 
L 2869 4325 
z
M 925 2138 
Q 869 1716 869 1456 
Q 869 1156 980 804 
Q 1091 453 1309 247 
Q 1469 100 1697 100 
Q 1969 100 2183 356 
Q 2397 613 2397 1088 
Q 2397 1622 2184 2012 
Q 1972 2403 1581 2403 
Q 1463 2403 1327 2353 
Q 1191 2303 925 2138 
z
" transform="scale(0.015625)"/>
       </defs>
       <use xlink:href="#TimesNewRomanPSMT-36"/>
       <use xlink:href="#TimesNewRomanPSMT-30" transform="translate(50 0)"/>
      </g>
     </g>
    </g>
    <g id="ytick_5">
     <g id="line2d_14">
      <g>
       <use xlink:href="#mb501f299fb" x="62.549063" y="143.088224" style="stroke: #000000; stroke-width: 0.8"/>
      </g>
     </g>
     <g id="text_5">
      <!-- 80 -->
      <g transform="translate(39.549063 148.643224) scale(0.16 -0.16)">
       <defs>
        <path id="TimesNewRomanPSMT-38" d="M 1228 2134 
Q 725 2547 579 2797 
Q 434 3047 434 3316 
Q 434 3728 753 4026 
Q 1072 4325 1600 4325 
Q 2113 4325 2425 4047 
Q 2738 3769 2738 3413 
Q 2738 3175 2569 2928 
Q 2400 2681 1866 2347 
Q 2416 1922 2594 1678 
Q 2831 1359 2831 1006 
Q 2831 559 2490 242 
Q 2150 -75 1597 -75 
Q 994 -75 656 303 
Q 388 606 388 966 
Q 388 1247 577 1523 
Q 766 1800 1228 2134 
z
M 1719 2469 
Q 2094 2806 2194 3001 
Q 2294 3197 2294 3444 
Q 2294 3772 2109 3958 
Q 1925 4144 1606 4144 
Q 1288 4144 1088 3959 
Q 888 3775 888 3528 
Q 888 3366 970 3203 
Q 1053 3041 1206 2894 
L 1719 2469 
z
M 1375 2016 
Q 1116 1797 991 1539 
Q 866 1281 866 981 
Q 866 578 1086 336 
Q 1306 94 1647 94 
Q 1984 94 2187 284 
Q 2391 475 2391 747 
Q 2391 972 2272 1150 
Q 2050 1481 1375 2016 
z
" transform="scale(0.015625)"/>
       </defs>
       <use xlink:href="#TimesNewRomanPSMT-38"/>
       <use xlink:href="#TimesNewRomanPSMT-30" transform="translate(50 0)"/>
      </g>
     </g>
    </g>
    <g id="ytick_6">
     <g id="line2d_15">
      <g>
       <use xlink:href="#mb501f299fb" x="62.549063" y="89.903817" style="stroke: #000000; stroke-width: 0.8"/>
      </g>
     </g>
     <g id="text_6">
      <!-- 100 -->
      <g transform="translate(31.549063 95.458817) scale(0.16 -0.16)">
       <defs>
        <path id="TimesNewRomanPSMT-31" d="M 750 3822 
L 1781 4325 
L 1884 4325 
L 1884 747 
Q 1884 391 1914 303 
Q 1944 216 2037 169 
Q 2131 122 2419 116 
L 2419 0 
L 825 0 
L 825 116 
Q 1125 122 1212 167 
Q 1300 213 1334 289 
Q 1369 366 1369 747 
L 1369 3034 
Q 1369 3497 1338 3628 
Q 1316 3728 1258 3775 
Q 1200 3822 1119 3822 
Q 1003 3822 797 3725 
L 750 3822 
z
" transform="scale(0.015625)"/>
       </defs>
       <use xlink:href="#TimesNewRomanPSMT-31"/>
       <use xlink:href="#TimesNewRomanPSMT-30" transform="translate(50 0)"/>
       <use xlink:href="#TimesNewRomanPSMT-30" transform="translate(100 0)"/>
      </g>
     </g>
    </g>
    <g id="ytick_7">
     <g id="line2d_16">
      <g>
       <use xlink:href="#mb501f299fb" x="62.549063" y="36.719409" style="stroke: #000000; stroke-width: 0.8"/>
      </g>
     </g>
     <g id="text_7">
      <!-- 120 -->
      <g transform="translate(31.549063 42.274409) scale(0.16 -0.16)">
       <use xlink:href="#TimesNewRomanPSMT-31"/>
       <use xlink:href="#TimesNewRomanPSMT-32" transform="translate(50 0)"/>
       <use xlink:href="#TimesNewRomanPSMT-30" transform="translate(100 0)"/>
      </g>
     </g>
    </g>
    <g id="text_8">
     <!-- Smoothed Return -->
     <g transform="translate(23.69875 262.199219) rotate(-90) scale(0.18 -0.18)">
      <defs>
       <path id="TimesNewRomanPSMT-53" d="M 2934 4334 
L 2934 2869 
L 2819 2869 
Q 2763 3291 2617 3541 
Q 2472 3791 2203 3937 
Q 1934 4084 1647 4084 
Q 1322 4084 1109 3886 
Q 897 3688 897 3434 
Q 897 3241 1031 3081 
Q 1225 2847 1953 2456 
Q 2547 2138 2764 1967 
Q 2981 1797 3098 1565 
Q 3216 1334 3216 1081 
Q 3216 600 2842 251 
Q 2469 -97 1881 -97 
Q 1697 -97 1534 -69 
Q 1438 -53 1133 45 
Q 828 144 747 144 
Q 669 144 623 97 
Q 578 50 556 -97 
L 441 -97 
L 441 1356 
L 556 1356 
Q 638 900 775 673 
Q 913 447 1195 297 
Q 1478 147 1816 147 
Q 2206 147 2432 353 
Q 2659 559 2659 841 
Q 2659 997 2573 1156 
Q 2488 1316 2306 1453 
Q 2184 1547 1640 1851 
Q 1097 2156 867 2337 
Q 638 2519 519 2737 
Q 400 2956 400 3219 
Q 400 3675 750 4004 
Q 1100 4334 1641 4334 
Q 1978 4334 2356 4169 
Q 2531 4091 2603 4091 
Q 2684 4091 2736 4139 
Q 2788 4188 2819 4334 
L 2934 4334 
z
" transform="scale(0.015625)"/>
       <path id="TimesNewRomanPSMT-6d" d="M 1050 2338 
Q 1363 2650 1419 2697 
Q 1559 2816 1721 2881 
Q 1884 2947 2044 2947 
Q 2313 2947 2506 2790 
Q 2700 2634 2766 2338 
Q 3088 2713 3309 2830 
Q 3531 2947 3766 2947 
Q 3994 2947 4170 2830 
Q 4347 2713 4450 2447 
Q 4519 2266 4519 1878 
L 4519 647 
Q 4519 378 4559 278 
Q 4591 209 4675 161 
Q 4759 113 4950 113 
L 4950 0 
L 3538 0 
L 3538 113 
L 3597 113 
Q 3781 113 3884 184 
Q 3956 234 3988 344 
Q 4000 397 4000 647 
L 4000 1878 
Q 4000 2228 3916 2372 
Q 3794 2572 3525 2572 
Q 3359 2572 3192 2489 
Q 3025 2406 2788 2181 
L 2781 2147 
L 2788 2013 
L 2788 647 
Q 2788 353 2820 281 
Q 2853 209 2943 161 
Q 3034 113 3253 113 
L 3253 0 
L 1806 0 
L 1806 113 
Q 2044 113 2133 169 
Q 2222 225 2256 338 
Q 2272 391 2272 647 
L 2272 1878 
Q 2272 2228 2169 2381 
Q 2031 2581 1784 2581 
Q 1616 2581 1450 2491 
Q 1191 2353 1050 2181 
L 1050 647 
Q 1050 366 1089 281 
Q 1128 197 1204 155 
Q 1281 113 1516 113 
L 1516 0 
L 100 0 
L 100 113 
Q 297 113 375 155 
Q 453 197 493 289 
Q 534 381 534 647 
L 534 1741 
Q 534 2213 506 2350 
Q 484 2453 437 2492 
Q 391 2531 309 2531 
Q 222 2531 100 2484 
L 53 2597 
L 916 2947 
L 1050 2947 
L 1050 2338 
z
" transform="scale(0.015625)"/>
       <path id="TimesNewRomanPSMT-6f" d="M 1600 2947 
Q 2250 2947 2644 2453 
Q 2978 2031 2978 1484 
Q 2978 1100 2793 706 
Q 2609 313 2286 112 
Q 1963 -88 1566 -88 
Q 919 -88 538 428 
Q 216 863 216 1403 
Q 216 1797 411 2186 
Q 606 2575 925 2761 
Q 1244 2947 1600 2947 
z
M 1503 2744 
Q 1338 2744 1170 2645 
Q 1003 2547 900 2300 
Q 797 2053 797 1666 
Q 797 1041 1045 587 
Q 1294 134 1700 134 
Q 2003 134 2200 384 
Q 2397 634 2397 1244 
Q 2397 2006 2069 2444 
Q 1847 2744 1503 2744 
z
" transform="scale(0.015625)"/>
       <path id="TimesNewRomanPSMT-74" d="M 1031 3803 
L 1031 2863 
L 1700 2863 
L 1700 2644 
L 1031 2644 
L 1031 788 
Q 1031 509 1111 412 
Q 1191 316 1316 316 
Q 1419 316 1516 380 
Q 1613 444 1666 569 
L 1788 569 
Q 1678 263 1478 108 
Q 1278 -47 1066 -47 
Q 922 -47 784 33 
Q 647 113 581 261 
Q 516 409 516 719 
L 516 2644 
L 63 2644 
L 63 2747 
Q 234 2816 414 2980 
Q 594 3144 734 3369 
Q 806 3488 934 3803 
L 1031 3803 
z
" transform="scale(0.015625)"/>
       <path id="TimesNewRomanPSMT-68" d="M 1041 4444 
L 1041 2350 
Q 1388 2731 1591 2839 
Q 1794 2947 1997 2947 
Q 2241 2947 2416 2812 
Q 2591 2678 2675 2391 
Q 2734 2191 2734 1659 
L 2734 647 
Q 2734 375 2778 275 
Q 2809 200 2884 156 
Q 2959 113 3159 113 
L 3159 0 
L 1753 0 
L 1753 113 
L 1819 113 
Q 2019 113 2097 173 
Q 2175 234 2206 353 
Q 2216 403 2216 647 
L 2216 1659 
Q 2216 2128 2167 2275 
Q 2119 2422 2012 2495 
Q 1906 2569 1756 2569 
Q 1603 2569 1437 2487 
Q 1272 2406 1041 2159 
L 1041 647 
Q 1041 353 1073 281 
Q 1106 209 1195 161 
Q 1284 113 1503 113 
L 1503 0 
L 84 0 
L 84 113 
Q 275 113 384 172 
Q 447 203 484 290 
Q 522 378 522 647 
L 522 3238 
Q 522 3728 498 3840 
Q 475 3953 426 3993 
Q 378 4034 297 4034 
Q 231 4034 84 3984 
L 41 4094 
L 897 4444 
L 1041 4444 
z
" transform="scale(0.015625)"/>
       <path id="TimesNewRomanPSMT-65" d="M 681 1784 
Q 678 1147 991 784 
Q 1303 422 1725 422 
Q 2006 422 2214 576 
Q 2422 731 2563 1106 
L 2659 1044 
Q 2594 616 2278 264 
Q 1963 -88 1488 -88 
Q 972 -88 605 314 
Q 238 716 238 1394 
Q 238 2128 614 2539 
Q 991 2950 1559 2950 
Q 2041 2950 2350 2633 
Q 2659 2316 2659 1784 
L 681 1784 
z
M 681 1966 
L 2006 1966 
Q 1991 2241 1941 2353 
Q 1863 2528 1708 2628 
Q 1553 2728 1384 2728 
Q 1125 2728 920 2526 
Q 716 2325 681 1966 
z
" transform="scale(0.015625)"/>
       <path id="TimesNewRomanPSMT-64" d="M 2222 322 
Q 2013 103 1813 7 
Q 1613 -88 1381 -88 
Q 913 -88 563 304 
Q 213 697 213 1313 
Q 213 1928 600 2439 
Q 988 2950 1597 2950 
Q 1975 2950 2222 2709 
L 2222 3238 
Q 2222 3728 2198 3840 
Q 2175 3953 2125 3993 
Q 2075 4034 2000 4034 
Q 1919 4034 1784 3984 
L 1744 4094 
L 2597 4444 
L 2738 4444 
L 2738 1134 
Q 2738 631 2761 520 
Q 2784 409 2836 365 
Q 2888 322 2956 322 
Q 3041 322 3181 375 
L 3216 266 
L 2366 -88 
L 2222 -88 
L 2222 322 
z
M 2222 541 
L 2222 2016 
Q 2203 2228 2109 2403 
Q 2016 2578 1861 2667 
Q 1706 2756 1559 2756 
Q 1284 2756 1069 2509 
Q 784 2184 784 1559 
Q 784 928 1059 592 
Q 1334 256 1672 256 
Q 1956 256 2222 541 
z
" transform="scale(0.015625)"/>
       <path id="TimesNewRomanPSMT-20" transform="scale(0.015625)"/>
       <path id="TimesNewRomanPSMT-52" d="M 4325 0 
L 3194 0 
L 1759 1981 
Q 1600 1975 1500 1975 
Q 1459 1975 1412 1976 
Q 1366 1978 1316 1981 
L 1316 750 
Q 1316 350 1403 253 
Q 1522 116 1759 116 
L 1925 116 
L 1925 0 
L 109 0 
L 109 116 
L 269 116 
Q 538 116 653 291 
Q 719 388 719 750 
L 719 3488 
Q 719 3888 631 3984 
Q 509 4122 269 4122 
L 109 4122 
L 109 4238 
L 1653 4238 
Q 2328 4238 2648 4139 
Q 2969 4041 3192 3777 
Q 3416 3513 3416 3147 
Q 3416 2756 3161 2468 
Q 2906 2181 2372 2063 
L 3247 847 
Q 3547 428 3762 290 
Q 3978 153 4325 116 
L 4325 0 
z
M 1316 2178 
Q 1375 2178 1419 2176 
Q 1463 2175 1491 2175 
Q 2097 2175 2405 2437 
Q 2713 2700 2713 3106 
Q 2713 3503 2464 3751 
Q 2216 4000 1806 4000 
Q 1625 4000 1316 3941 
L 1316 2178 
z
" transform="scale(0.015625)"/>
       <path id="TimesNewRomanPSMT-75" d="M 2709 2863 
L 2709 1128 
Q 2709 631 2732 520 
Q 2756 409 2807 365 
Q 2859 322 2928 322 
Q 3025 322 3147 375 
L 3191 266 
L 2334 -88 
L 2194 -88 
L 2194 519 
Q 1825 119 1631 15 
Q 1438 -88 1222 -88 
Q 981 -88 804 51 
Q 628 191 559 409 
Q 491 628 491 1028 
L 491 2306 
Q 491 2509 447 2587 
Q 403 2666 317 2708 
Q 231 2750 6 2747 
L 6 2863 
L 1009 2863 
L 1009 947 
Q 1009 547 1148 422 
Q 1288 297 1484 297 
Q 1619 297 1789 381 
Q 1959 466 2194 703 
L 2194 2325 
Q 2194 2569 2105 2655 
Q 2016 2741 1734 2747 
L 1734 2863 
L 2709 2863 
z
" transform="scale(0.015625)"/>
       <path id="TimesNewRomanPSMT-72" d="M 1038 2947 
L 1038 2303 
Q 1397 2947 1775 2947 
Q 1947 2947 2059 2842 
Q 2172 2738 2172 2600 
Q 2172 2478 2090 2393 
Q 2009 2309 1897 2309 
Q 1788 2309 1652 2417 
Q 1516 2525 1450 2525 
Q 1394 2525 1328 2463 
Q 1188 2334 1038 2041 
L 1038 669 
Q 1038 431 1097 309 
Q 1138 225 1241 169 
Q 1344 113 1538 113 
L 1538 0 
L 72 0 
L 72 113 
Q 291 113 397 181 
Q 475 231 506 341 
Q 522 394 522 644 
L 522 1753 
Q 522 2253 501 2348 
Q 481 2444 426 2487 
Q 372 2531 291 2531 
Q 194 2531 72 2484 
L 41 2597 
L 906 2947 
L 1038 2947 
z
" transform="scale(0.015625)"/>
       <path id="TimesNewRomanPSMT-6e" d="M 1034 2341 
Q 1538 2947 1994 2947 
Q 2228 2947 2397 2830 
Q 2566 2713 2666 2444 
Q 2734 2256 2734 1869 
L 2734 647 
Q 2734 375 2778 278 
Q 2813 200 2889 156 
Q 2966 113 3172 113 
L 3172 0 
L 1756 0 
L 1756 113 
L 1816 113 
Q 2016 113 2095 173 
Q 2175 234 2206 353 
Q 2219 400 2219 647 
L 2219 1819 
Q 2219 2209 2117 2386 
Q 2016 2563 1775 2563 
Q 1403 2563 1034 2156 
L 1034 647 
Q 1034 356 1069 288 
Q 1113 197 1189 155 
Q 1266 113 1500 113 
L 1500 0 
L 84 0 
L 84 113 
L 147 113 
Q 366 113 442 223 
Q 519 334 519 647 
L 519 1709 
Q 519 2225 495 2337 
Q 472 2450 423 2490 
Q 375 2531 294 2531 
Q 206 2531 84 2484 
L 38 2597 
L 900 2947 
L 1034 2947 
L 1034 2341 
z
" transform="scale(0.015625)"/>
      </defs>
      <use xlink:href="#TimesNewRomanPSMT-53"/>
      <use xlink:href="#TimesNewRomanPSMT-6d" transform="translate(55.615234 0)"/>
      <use xlink:href="#TimesNewRomanPSMT-6f" transform="translate(133.398438 0)"/>
      <use xlink:href="#TimesNewRomanPSMT-6f" transform="translate(183.398438 0)"/>
      <use xlink:href="#TimesNewRomanPSMT-74" transform="translate(233.398438 0)"/>
      <use xlink:href="#TimesNewRomanPSMT-68" transform="translate(261.181641 0)"/>
      <use xlink:href="#TimesNewRomanPSMT-65" transform="translate(311.181641 0)"/>
      <use xlink:href="#TimesNewRomanPSMT-64" transform="translate(355.566406 0)"/>
      <use xlink:href="#TimesNewRomanPSMT-20" transform="translate(405.566406 0)"/>
      <use xlink:href="#TimesNewRomanPSMT-52" transform="translate(430.566406 0)"/>
      <use xlink:href="#TimesNewRomanPSMT-65" transform="translate(497.265625 0)"/>
      <use xlink:href="#TimesNewRomanPSMT-74" transform="translate(541.650391 0)"/>
      <use xlink:href="#TimesNewRomanPSMT-75" transform="translate(569.433594 0)"/>
      <use xlink:href="#TimesNewRomanPSMT-72" transform="translate(619.433594 0)"/>
      <use xlink:href="#TimesNewRomanPSMT-6e" transform="translate(652.734375 0)"/>
     </g>
    </g>
   </g>
   <g id="line2d_17">
    <path d="M 90.849063 251.664191 
L 96.566234 250.621777 
L 102.283406 249.169842 
L 108.000578 247.616858 
L 113.717749 245.90432 
L 119.434921 244.399201 
L 125.152093 243.144049 
L 130.869265 241.724025 
L 136.586436 240.261454 
L 142.303608 238.798883 
L 148.02078 224.146579 
L 153.737951 206.957378 
L 159.455123 191.50199 
L 165.172295 176.450802 
L 170.889467 158.618071 
L 176.606638 142.439374 
L 182.32381 130.308011 
L 188.040982 108.17266 
L 193.758153 93.249116 
L 199.475325 76.958732 
L 205.192497 59.530202 
L 210.909669 55.440321 
L 216.62684 53.701191 
L 222.344012 52.307759 
L 228.061184 50.94092 
L 233.778355 49.164561 
L 239.495527 47.478615 
L 245.212699 46.042636 
L 250.929871 45.287417 
L 256.647042 46.031999 
L 262.364214 46.81381 
L 268.081386 51.228116 
L 273.798557 55.153125 
L 279.515729 60.391789 
L 285.232901 67.093024 
L 290.950073 74.256964 
L 296.667244 79.266935 
L 302.384416 84.697063 
L 308.101588 93.855418 
L 313.818759 104.08278 
L 319.535931 114.352689 
L 325.253103 113.735749 
L 330.970275 113.177313 
L 336.687446 112.448687 
L 342.404618 101.184229 
L 348.12179 91.797182 
L 353.838961 82.367586 
L 359.556133 69.90648 
L 365.273305 61.801176 
L 370.990477 52.541771 
L 376.707648 50.435668 
L 382.42482 49.058192 
L 388.141992 47.63285 
L 393.859164 46.696804 
L 399.576335 46.64362 
L 405.293507 46.090502 
L 411.010679 45.303373 
L 416.72785 44.617294 
L 422.445022 43.037717 
L 428.162194 42.080398 
L 433.879366 54.674465 
L 439.596537 69.305496 
L 445.313709 82.633508 
L 451.030881 94.956335 
L 456.748052 111.018026 
L 462.465224 125.021481 
L 468.182396 129.175183 
L 473.899568 141.476736 
L 479.616739 145.657031 
L 485.333911 152.900747 
L 491.051083 160.607167 
L 496.768254 155.325956 
L 502.485426 148.268385 
L 508.202598 139.769517 
L 513.91977 131.456794 
L 519.636941 124.931067 
L 525.354113 126.723382 
L 531.071285 128.409327 
L 536.788456 130.238871 
L 542.505628 131.701442 
L 548.2228 133.153376 
L 553.939972 134.855278 
L 559.657143 136.583771 
L 565.374315 138.876019 
L 571.091487 140.381137 
L 576.808658 142.130904 
L 582.52583 144.32742 
L 588.243002 146.768585 
L 593.960174 148.656631 
L 599.677345 150.145795 
L 605.394517 152.214668 
L 611.111689 154.171854 
L 616.82886 156.017353 
L 622.546032 157.719254 
L 628.263204 170.308003 
L 633.980376 180.684281 
L 639.697547 191.119062 
L 645.414719 204.601309 
L 651.131891 213.855396 
L 656.849063 224.710333 
" clip-path="url(#p1fca1b47bf)" style="fill: none; stroke: #0000ff; stroke-width: 2; stroke-linecap: square"/>
   </g>
   <g id="line2d_18">
    <path d="M 90.849063 335.121163 
L 96.566234 334.264894 
L 102.283406 333.190569 
L 108.000578 332.121562 
L 113.717749 331.116377 
L 119.434921 330.111191 
L 125.152093 328.845403 
L 130.869265 327.643435 
L 136.586436 326.436149 
L 142.303608 325.282047 
L 148.02078 324.026895 
L 153.737951 322.862157 
L 159.455123 321.771876 
L 165.172295 320.218892 
L 170.889467 318.580812 
L 176.606638 317.511805 
L 182.32381 316.400251 
L 188.040982 315.214239 
L 193.758153 314.544115 
L 199.475325 313.714439 
L 205.192497 312.980494 
L 210.909669 312.124225 
L 216.62684 311.347733 
L 222.344012 310.560603 
L 228.061184 309.72029 
L 233.778355 308.879976 
L 239.495527 308.241763 
L 245.212699 307.74183 
L 250.929871 307.204667 
L 256.647042 306.699415 
L 262.364214 306.231393 
L 268.081386 305.880376 
L 273.798557 305.859102 
L 279.515729 305.630409 
L 285.232901 305.571906 
L 290.950073 305.662319 
L 296.667244 305.614454 
L 302.384416 305.401716 
L 308.101588 305.848465 
L 313.818759 305.62509 
L 319.535931 305.59318 
L 325.253103 305.619772 
L 330.970275 305.151749 
L 336.687446 305.125157 
L 342.404618 305.135794 
L 348.12179 305.598498 
L 353.838961 305.614454 
L 359.556133 305.587861 
L 365.273305 305.837828 
L 370.990477 305.928242 
L 376.707648 305.752733 
L 382.42482 305.513403 
L 388.141992 305.486811 
L 393.859164 305.492129 
L 399.576335 305.226207 
L 405.293507 304.816687 
L 411.010679 304.864553 
L 416.72785 304.752866 
L 422.445022 304.752866 
L 428.162194 304.625224 
L 433.879366 304.577358 
L 439.596537 304.572039 
L 445.313709 304.284843 
L 451.030881 304.439078 
L 456.748052 304.896464 
L 462.465224 304.641179 
L 468.182396 304.502899 
L 473.899568 304.460352 
L 479.616739 303.752999 
L 485.333911 303.396664 
L 491.051083 302.838227 
L 496.768254 302.31702 
L 502.485426 301.684126 
L 508.202598 301.152282 
L 513.91977 300.434292 
L 519.636941 299.764169 
L 525.354113 300.50875 
L 531.071285 301.29588 
L 536.788456 302.168104 
L 542.505628 303.013736 
L 548.2228 303.870005 
L 553.939972 304.731592 
L 559.657143 305.508085 
L 565.374315 306.337761 
L 571.091487 307.178075 
L 576.808658 308.172623 
L 582.52583 309.039529 
L 588.243002 309.964938 
L 593.960174 310.900984 
L 599.677345 311.86894 
L 605.394517 312.703935 
L 611.111689 313.671891 
L 616.82886 315.028094 
L 622.546032 315.958821 
L 628.263204 317.081012 
L 633.980376 318.001102 
L 639.697547 319.048835 
L 645.414719 320.367808 
L 651.131891 321.35172 
L 656.849063 322.468592 
" clip-path="url(#p1fca1b47bf)" style="fill: none; stroke-dasharray: 7.4,3.2; stroke-dashoffset: 0; stroke: #0000ff; stroke-width: 2"/>
   </g>
   <g id="patch_3">
    <path d="M 62.549063 371.513125 
L 62.549063 26.393125 
" style="fill: none; stroke: #000000; stroke-width: 0.8; stroke-linejoin: miter; stroke-linecap: square"/>
   </g>
   <g id="patch_4">
    <path d="M 62.549063 371.513125 
L 685.149063 371.513125 
" style="fill: none; stroke: #000000; stroke-width: 0.8; stroke-linejoin: miter; stroke-linecap: square"/>
   </g>
   <g id="text_9">
    <!-- Length -->
    <g transform="translate(346.940313 20.393125) scale(0.19 -0.19)">
     <defs>
      <path id="TimesNewRomanPSMT-4c" d="M 3669 1172 
L 3772 1150 
L 3409 0 
L 128 0 
L 128 116 
L 288 116 
Q 556 116 672 291 
Q 738 391 738 753 
L 738 3488 
Q 738 3884 650 3984 
Q 528 4122 288 4122 
L 128 4122 
L 128 4238 
L 2047 4238 
L 2047 4122 
Q 1709 4125 1573 4059 
Q 1438 3994 1388 3894 
Q 1338 3794 1338 3416 
L 1338 753 
Q 1338 494 1388 397 
Q 1425 331 1503 300 
Q 1581 269 1991 269 
L 2300 269 
Q 2788 269 2984 341 
Q 3181 413 3343 595 
Q 3506 778 3669 1172 
z
" transform="scale(0.015625)"/>
      <path id="TimesNewRomanPSMT-67" d="M 966 1044 
Q 703 1172 562 1401 
Q 422 1631 422 1909 
Q 422 2334 742 2640 
Q 1063 2947 1563 2947 
Q 1972 2947 2272 2747 
L 2878 2747 
Q 3013 2747 3034 2739 
Q 3056 2731 3066 2713 
Q 3084 2684 3084 2613 
Q 3084 2531 3069 2500 
Q 3059 2484 3036 2475 
Q 3013 2466 2878 2466 
L 2506 2466 
Q 2681 2241 2681 1891 
Q 2681 1491 2375 1206 
Q 2069 922 1553 922 
Q 1341 922 1119 984 
Q 981 866 932 777 
Q 884 688 884 625 
Q 884 572 936 522 
Q 988 472 1138 450 
Q 1225 438 1575 428 
Q 2219 413 2409 384 
Q 2700 344 2873 169 
Q 3047 -6 3047 -263 
Q 3047 -616 2716 -925 
Q 2228 -1381 1444 -1381 
Q 841 -1381 425 -1109 
Q 191 -953 191 -784 
Q 191 -709 225 -634 
Q 278 -519 444 -313 
Q 466 -284 763 25 
Q 600 122 533 198 
Q 466 275 466 372 
Q 466 481 555 628 
Q 644 775 966 1044 
z
M 1509 2797 
Q 1278 2797 1122 2612 
Q 966 2428 966 2047 
Q 966 1553 1178 1281 
Q 1341 1075 1591 1075 
Q 1828 1075 1981 1253 
Q 2134 1431 2134 1813 
Q 2134 2309 1919 2591 
Q 1759 2797 1509 2797 
z
M 934 0 
Q 788 -159 713 -296 
Q 638 -434 638 -550 
Q 638 -700 819 -813 
Q 1131 -1006 1722 -1006 
Q 2284 -1006 2551 -807 
Q 2819 -609 2819 -384 
Q 2819 -222 2659 -153 
Q 2497 -84 2016 -72 
Q 1313 -53 934 0 
z
" transform="scale(0.015625)"/>
     </defs>
     <use xlink:href="#TimesNewRomanPSMT-4c"/>
     <use xlink:href="#TimesNewRomanPSMT-65" transform="translate(61.083984 0)"/>
     <use xlink:href="#TimesNewRomanPSMT-6e" transform="translate(105.46875 0)"/>
     <use xlink:href="#TimesNewRomanPSMT-67" transform="translate(155.46875 0)"/>
     <use xlink:href="#TimesNewRomanPSMT-74" transform="translate(205.46875 0)"/>
     <use xlink:href="#TimesNewRomanPSMT-68" transform="translate(233.251953 0)"/>
    </g>
   </g>
   <g id="legend_1">
    <g id="patch_5">
     <path d="M 587.677188 86.89375 
L 676.749063 86.89375 
Q 679.149063 86.89375 679.149063 84.49375 
L 679.149063 34.793125 
Q 679.149063 32.393125 676.749063 32.393125 
L 587.677188 32.393125 
Q 585.277188 32.393125 585.277188 34.793125 
L 585.277188 84.49375 
Q 585.277188 86.89375 587.677188 86.89375 
z
" style="fill: #ffffff; opacity: 0.8; stroke: #cccccc; stroke-linejoin: miter"/>
    </g>
    <g id="line2d_19">
     <path d="M 590.077188 41.393125 
L 602.077188 41.393125 
L 614.077188 41.393125 
" style="fill: none; stroke: #0000ff; stroke-width: 2; stroke-linecap: square"/>
    </g>
    <g id="text_10">
     <!-- COIN -->
     <g transform="translate(623.677188 45.593125) scale(0.12 -0.12)">
      <defs>
       <path id="TimesNewRomanPSMT-43" d="M 3853 4334 
L 3950 2894 
L 3853 2894 
Q 3659 3541 3300 3825 
Q 2941 4109 2438 4109 
Q 2016 4109 1675 3895 
Q 1334 3681 1139 3212 
Q 944 2744 944 2047 
Q 944 1472 1128 1050 
Q 1313 628 1683 403 
Q 2053 178 2528 178 
Q 2941 178 3256 354 
Q 3572 531 3950 1056 
L 4047 994 
Q 3728 428 3303 165 
Q 2878 -97 2294 -97 
Q 1241 -97 663 684 
Q 231 1266 231 2053 
Q 231 2688 515 3219 
Q 800 3750 1298 4042 
Q 1797 4334 2388 4334 
Q 2847 4334 3294 4109 
Q 3425 4041 3481 4041 
Q 3566 4041 3628 4100 
Q 3709 4184 3744 4334 
L 3853 4334 
z
" transform="scale(0.015625)"/>
       <path id="TimesNewRomanPSMT-4f" d="M 2341 4334 
Q 3166 4334 3770 3707 
Q 4375 3081 4375 2144 
Q 4375 1178 3765 540 
Q 3156 -97 2291 -97 
Q 1416 -97 820 525 
Q 225 1147 225 2134 
Q 225 3144 913 3781 
Q 1509 4334 2341 4334 
z
M 2281 4106 
Q 1713 4106 1369 3684 
Q 941 3159 941 2147 
Q 941 1109 1384 550 
Q 1725 125 2284 125 
Q 2881 125 3270 590 
Q 3659 1056 3659 2059 
Q 3659 3147 3231 3681 
Q 2888 4106 2281 4106 
z
" transform="scale(0.015625)"/>
       <path id="TimesNewRomanPSMT-49" d="M 1975 116 
L 1975 0 
L 159 0 
L 159 116 
L 309 116 
Q 572 116 691 269 
Q 766 369 766 750 
L 766 3488 
Q 766 3809 725 3913 
Q 694 3991 597 4047 
Q 459 4122 309 4122 
L 159 4122 
L 159 4238 
L 1975 4238 
L 1975 4122 
L 1822 4122 
Q 1563 4122 1444 3969 
Q 1366 3869 1366 3488 
L 1366 750 
Q 1366 428 1406 325 
Q 1438 247 1538 191 
Q 1672 116 1822 116 
L 1975 116 
z
" transform="scale(0.015625)"/>
       <path id="TimesNewRomanPSMT-4e" d="M -84 4238 
L 1066 4238 
L 3656 1059 
L 3656 3503 
Q 3656 3894 3569 3991 
Q 3453 4122 3203 4122 
L 3056 4122 
L 3056 4238 
L 4531 4238 
L 4531 4122 
L 4381 4122 
Q 4113 4122 4000 3959 
Q 3931 3859 3931 3503 
L 3931 -69 
L 3819 -69 
L 1025 3344 
L 1025 734 
Q 1025 344 1109 247 
Q 1228 116 1475 116 
L 1625 116 
L 1625 0 
L 150 0 
L 150 116 
L 297 116 
Q 569 116 681 278 
Q 750 378 750 734 
L 750 3681 
Q 566 3897 470 3965 
Q 375 4034 191 4094 
Q 100 4122 -84 4122 
L -84 4238 
z
" transform="scale(0.015625)"/>
      </defs>
      <use xlink:href="#TimesNewRomanPSMT-43"/>
      <use xlink:href="#TimesNewRomanPSMT-4f" transform="translate(66.699219 0)"/>
      <use xlink:href="#TimesNewRomanPSMT-49" transform="translate(138.916016 0)"/>
      <use xlink:href="#TimesNewRomanPSMT-4e" transform="translate(172.216797 0)"/>
     </g>
    </g>
    <g id="line2d_20">
     <path d="M 590.077188 58.36 
L 602.077188 58.36 
L 614.077188 58.36 
" style="fill: none; stroke-dasharray: 7.4,3.2; stroke-dashoffset: 0; stroke: #0000ff; stroke-width: 2"/>
    </g>
    <g id="text_11">
     <!-- KMEANS -->
     <g transform="translate(623.677188 62.56) scale(0.12 -0.12)">
      <defs>
       <path id="TimesNewRomanPSMT-4b" d="M 1913 2350 
L 3475 797 
Q 3859 413 4131 273 
Q 4403 134 4675 116 
L 4675 0 
L 2659 0 
L 2659 116 
Q 2841 116 2920 177 
Q 3000 238 3000 313 
Q 3000 388 2970 447 
Q 2941 506 2775 669 
L 1313 2116 
L 1313 750 
Q 1313 428 1353 325 
Q 1384 247 1484 191 
Q 1619 116 1769 116 
L 1913 116 
L 1913 0 
L 106 0 
L 106 116 
L 256 116 
Q 519 116 638 269 
Q 713 369 713 750 
L 713 3488 
Q 713 3809 672 3916 
Q 641 3991 544 4047 
Q 406 4122 256 4122 
L 106 4122 
L 106 4238 
L 1913 4238 
L 1913 4122 
L 1769 4122 
Q 1622 4122 1484 4050 
Q 1388 4000 1350 3900 
Q 1313 3800 1313 3488 
L 1313 2191 
Q 1375 2250 1741 2588 
Q 2669 3438 2863 3722 
Q 2947 3847 2947 3941 
Q 2947 4013 2881 4067 
Q 2816 4122 2659 4122 
L 2563 4122 
L 2563 4238 
L 4119 4238 
L 4119 4122 
Q 3981 4119 3868 4084 
Q 3756 4050 3593 3951 
Q 3431 3853 3194 3634 
Q 3125 3572 2559 2994 
L 1913 2350 
z
" transform="scale(0.015625)"/>
       <path id="TimesNewRomanPSMT-4d" d="M 2619 0 
L 981 3566 
L 981 734 
Q 981 344 1066 247 
Q 1181 116 1431 116 
L 1581 116 
L 1581 0 
L 106 0 
L 106 116 
L 256 116 
Q 525 116 638 278 
Q 706 378 706 734 
L 706 3503 
Q 706 3784 644 3909 
Q 600 4000 483 4061 
Q 366 4122 106 4122 
L 106 4238 
L 1306 4238 
L 2844 922 
L 4356 4238 
L 5556 4238 
L 5556 4122 
L 5409 4122 
Q 5138 4122 5025 3959 
Q 4956 3859 4956 3503 
L 4956 734 
Q 4956 344 5044 247 
Q 5159 116 5409 116 
L 5556 116 
L 5556 0 
L 3756 0 
L 3756 116 
L 3906 116 
Q 4178 116 4288 278 
Q 4356 378 4356 734 
L 4356 3566 
L 2722 0 
L 2619 0 
z
" transform="scale(0.015625)"/>
       <path id="TimesNewRomanPSMT-45" d="M 1338 4006 
L 1338 2331 
L 2269 2331 
Q 2631 2331 2753 2441 
Q 2916 2584 2934 2947 
L 3050 2947 
L 3050 1472 
L 2934 1472 
Q 2891 1781 2847 1869 
Q 2791 1978 2662 2040 
Q 2534 2103 2269 2103 
L 1338 2103 
L 1338 706 
Q 1338 425 1363 364 
Q 1388 303 1450 267 
Q 1513 231 1688 231 
L 2406 231 
Q 2766 231 2928 281 
Q 3091 331 3241 478 
Q 3434 672 3638 1063 
L 3763 1063 
L 3397 0 
L 131 0 
L 131 116 
L 281 116 
Q 431 116 566 188 
Q 666 238 702 338 
Q 738 438 738 747 
L 738 3500 
Q 738 3903 656 3997 
Q 544 4122 281 4122 
L 131 4122 
L 131 4238 
L 3397 4238 
L 3444 3309 
L 3322 3309 
Q 3256 3644 3176 3769 
Q 3097 3894 2941 3959 
Q 2816 4006 2500 4006 
L 1338 4006 
z
" transform="scale(0.015625)"/>
       <path id="TimesNewRomanPSMT-41" d="M 2928 1419 
L 1288 1419 
L 1000 750 
Q 894 503 894 381 
Q 894 284 986 211 
Q 1078 138 1384 116 
L 1384 0 
L 50 0 
L 50 116 
Q 316 163 394 238 
Q 553 388 747 847 
L 2238 4334 
L 2347 4334 
L 3822 809 
Q 4000 384 4145 257 
Q 4291 131 4550 116 
L 4550 0 
L 2878 0 
L 2878 116 
Q 3131 128 3220 200 
Q 3309 272 3309 375 
Q 3309 513 3184 809 
L 2928 1419 
z
M 2841 1650 
L 2122 3363 
L 1384 1650 
L 2841 1650 
z
" transform="scale(0.015625)"/>
      </defs>
      <use xlink:href="#TimesNewRomanPSMT-4b"/>
      <use xlink:href="#TimesNewRomanPSMT-4d" transform="translate(72.216797 0)"/>
      <use xlink:href="#TimesNewRomanPSMT-45" transform="translate(161.132812 0)"/>
      <use xlink:href="#TimesNewRomanPSMT-41" transform="translate(222.216797 0)"/>
      <use xlink:href="#TimesNewRomanPSMT-4e" transform="translate(294.433594 0)"/>
      <use xlink:href="#TimesNewRomanPSMT-53" transform="translate(366.650391 0)"/>
     </g>
    </g>
    <g id="PathCollection_2">
     <path d="M 602.077188 80.249858 
C 603.104315 80.249858 604.089512 79.841776 604.8158 79.115488 
C 605.542089 78.389199 605.950171 77.404002 605.950171 76.376875 
C 605.950171 75.349748 605.542089 74.364551 604.8158 73.638262 
C 604.089512 72.911974 603.104315 72.503892 602.077188 72.503892 
C 601.05006 72.503892 600.064863 72.911974 599.338575 73.638262 
C 598.612286 74.364551 598.204204 75.349748 598.204204 76.376875 
C 598.204204 77.404002 598.612286 78.389199 599.338575 79.115488 
C 600.064863 79.841776 601.05006 80.249858 602.077188 80.249858 
z
" style="fill: #ff0000; fill-opacity: 0.15"/>
    </g>
    <g id="text_12">
     <!-- Train data -->
     <g transform="translate(623.677188 79.526875) scale(0.12 -0.12)">
      <defs>
       <path id="TimesNewRomanPSMT-54" d="M 3703 4238 
L 3750 3244 
L 3631 3244 
Q 3597 3506 3538 3619 
Q 3441 3800 3280 3886 
Q 3119 3972 2856 3972 
L 2259 3972 
L 2259 734 
Q 2259 344 2344 247 
Q 2463 116 2709 116 
L 2856 116 
L 2856 0 
L 1059 0 
L 1059 116 
L 1209 116 
Q 1478 116 1591 278 
Q 1659 378 1659 734 
L 1659 3972 
L 1150 3972 
Q 853 3972 728 3928 
Q 566 3869 450 3700 
Q 334 3531 313 3244 
L 194 3244 
L 244 4238 
L 3703 4238 
z
" transform="scale(0.015625)"/>
       <path id="TimesNewRomanPSMT-61" d="M 1822 413 
Q 1381 72 1269 19 
Q 1100 -59 909 -59 
Q 613 -59 420 144 
Q 228 347 228 678 
Q 228 888 322 1041 
Q 450 1253 767 1440 
Q 1084 1628 1822 1897 
L 1822 2009 
Q 1822 2438 1686 2597 
Q 1550 2756 1291 2756 
Q 1094 2756 978 2650 
Q 859 2544 859 2406 
L 866 2225 
Q 866 2081 792 2003 
Q 719 1925 600 1925 
Q 484 1925 411 2006 
Q 338 2088 338 2228 
Q 338 2497 613 2722 
Q 888 2947 1384 2947 
Q 1766 2947 2009 2819 
Q 2194 2722 2281 2516 
Q 2338 2381 2338 1966 
L 2338 994 
Q 2338 584 2353 492 
Q 2369 400 2405 369 
Q 2441 338 2488 338 
Q 2538 338 2575 359 
Q 2641 400 2828 588 
L 2828 413 
Q 2478 -56 2159 -56 
Q 2006 -56 1915 50 
Q 1825 156 1822 413 
z
M 1822 616 
L 1822 1706 
Q 1350 1519 1213 1441 
Q 966 1303 859 1153 
Q 753 1003 753 825 
Q 753 600 887 451 
Q 1022 303 1197 303 
Q 1434 303 1822 616 
z
" transform="scale(0.015625)"/>
       <path id="TimesNewRomanPSMT-69" d="M 928 4444 
Q 1059 4444 1151 4351 
Q 1244 4259 1244 4128 
Q 1244 3997 1151 3903 
Q 1059 3809 928 3809 
Q 797 3809 703 3903 
Q 609 3997 609 4128 
Q 609 4259 701 4351 
Q 794 4444 928 4444 
z
M 1188 2947 
L 1188 647 
Q 1188 378 1227 289 
Q 1266 200 1342 156 
Q 1419 113 1622 113 
L 1622 0 
L 231 0 
L 231 113 
Q 441 113 512 153 
Q 584 194 626 287 
Q 669 381 669 647 
L 669 1750 
Q 669 2216 641 2353 
Q 619 2453 572 2492 
Q 525 2531 444 2531 
Q 356 2531 231 2484 
L 188 2597 
L 1050 2947 
L 1188 2947 
z
" transform="scale(0.015625)"/>
      </defs>
      <use xlink:href="#TimesNewRomanPSMT-54"/>
      <use xlink:href="#TimesNewRomanPSMT-72" transform="translate(57.583984 0)"/>
      <use xlink:href="#TimesNewRomanPSMT-61" transform="translate(90.884766 0)"/>
      <use xlink:href="#TimesNewRomanPSMT-69" transform="translate(135.269531 0)"/>
      <use xlink:href="#TimesNewRomanPSMT-6e" transform="translate(163.052734 0)"/>
      <use xlink:href="#TimesNewRomanPSMT-20" transform="translate(213.052734 0)"/>
      <use xlink:href="#TimesNewRomanPSMT-64" transform="translate(238.052734 0)"/>
      <use xlink:href="#TimesNewRomanPSMT-61" transform="translate(288.052734 0)"/>
      <use xlink:href="#TimesNewRomanPSMT-74" transform="translate(332.4375 0)"/>
      <use xlink:href="#TimesNewRomanPSMT-61" transform="translate(360.220703 0)"/>
     </g>
    </g>
   </g>
  </g>
  <g id="axes_2">
   <g id="patch_6">
    <path d="M 62.549063 759.613125 
L 685.149063 759.613125 
L 685.149063 414.493125 
L 62.549063 414.493125 
z
" style="fill: #ffffff"/>
   </g>
   <g id="PathCollection_3">
    <defs>
     <path id="C1_0_547f05e75b" d="M 0 3.872983 
C 1.027127 3.872983 2.012324 3.464901 2.738613 2.738613 
C 3.464901 2.012324 3.872983 1.027127 3.872983 -0 
C 3.872983 -1.027127 3.464901 -2.012324 2.738613 -2.738613 
C 2.012324 -3.464901 1.027127 -3.872983 0 -3.872983 
C -1.027127 -3.872983 -2.012324 -3.464901 -2.738613 -2.738613 
C -3.464901 -2.012324 -3.872983 -1.027127 -3.872983 0 
C -3.872983 1.027127 -3.464901 2.012324 -2.738613 2.738613 
C -2.012324 3.464901 -1.027127 3.872983 0 3.872983 
z
"/>
    </defs>
    <g clip-path="url(#pfd8da12b09)">
     <use xlink:href="#C1_0_547f05e75b" x="144.889264" y="743.925852" style="fill: #ff0000; fill-opacity: 0.15"/>
    </g>
    <g clip-path="url(#pfd8da12b09)">
     <use xlink:href="#C1_0_547f05e75b" x="144.889264" y="743.925852" style="fill: #ff0000; fill-opacity: 0.15"/>
    </g>
    <g clip-path="url(#pfd8da12b09)">
     <use xlink:href="#C1_0_547f05e75b" x="144.889264" y="743.925852" style="fill: #ff0000; fill-opacity: 0.15"/>
    </g>
    <g clip-path="url(#pfd8da12b09)">
     <use xlink:href="#C1_0_547f05e75b" x="144.889264" y="743.925852" style="fill: #ff0000; fill-opacity: 0.15"/>
    </g>
    <g clip-path="url(#pfd8da12b09)">
     <use xlink:href="#C1_0_547f05e75b" x="144.889264" y="743.925852" style="fill: #ff0000; fill-opacity: 0.15"/>
    </g>
    <g clip-path="url(#pfd8da12b09)">
     <use xlink:href="#C1_0_547f05e75b" x="372.426952" y="743.925852" style="fill: #ff0000; fill-opacity: 0.15"/>
    </g>
    <g clip-path="url(#pfd8da12b09)">
     <use xlink:href="#C1_0_547f05e75b" x="372.426952" y="743.925852" style="fill: #ff0000; fill-opacity: 0.15"/>
    </g>
    <g clip-path="url(#pfd8da12b09)">
     <use xlink:href="#C1_0_547f05e75b" x="372.426952" y="743.925852" style="fill: #ff0000; fill-opacity: 0.15"/>
    </g>
    <g clip-path="url(#pfd8da12b09)">
     <use xlink:href="#C1_0_547f05e75b" x="372.426952" y="743.925852" style="fill: #ff0000; fill-opacity: 0.15"/>
    </g>
    <g clip-path="url(#pfd8da12b09)">
     <use xlink:href="#C1_0_547f05e75b" x="372.426952" y="743.925852" style="fill: #ff0000; fill-opacity: 0.15"/>
    </g>
    <g clip-path="url(#pfd8da12b09)">
     <use xlink:href="#C1_0_547f05e75b" x="372.426952" y="743.925852" style="fill: #ff0000; fill-opacity: 0.15"/>
    </g>
    <g clip-path="url(#pfd8da12b09)">
     <use xlink:href="#C1_0_547f05e75b" x="429.311374" y="743.925852" style="fill: #ff0000; fill-opacity: 0.15"/>
    </g>
    <g clip-path="url(#pfd8da12b09)">
     <use xlink:href="#C1_0_547f05e75b" x="486.195796" y="743.925852" style="fill: #ff0000; fill-opacity: 0.15"/>
    </g>
    <g clip-path="url(#pfd8da12b09)">
     <use xlink:href="#C1_0_547f05e75b" x="543.080218" y="743.925852" style="fill: #ff0000; fill-opacity: 0.15"/>
    </g>
    <g clip-path="url(#pfd8da12b09)">
     <use xlink:href="#C1_0_547f05e75b" x="599.96464" y="743.925852" style="fill: #ff0000; fill-opacity: 0.15"/>
    </g>
    <g clip-path="url(#pfd8da12b09)">
     <use xlink:href="#C1_0_547f05e75b" x="372.426952" y="743.925852" style="fill: #ff0000; fill-opacity: 0.15"/>
    </g>
    <g clip-path="url(#pfd8da12b09)">
     <use xlink:href="#C1_0_547f05e75b" x="372.426952" y="743.925852" style="fill: #ff0000; fill-opacity: 0.15"/>
    </g>
    <g clip-path="url(#pfd8da12b09)">
     <use xlink:href="#C1_0_547f05e75b" x="372.426952" y="743.925852" style="fill: #ff0000; fill-opacity: 0.15"/>
    </g>
    <g clip-path="url(#pfd8da12b09)">
     <use xlink:href="#C1_0_547f05e75b" x="372.426952" y="743.925852" style="fill: #ff0000; fill-opacity: 0.15"/>
    </g>
    <g clip-path="url(#pfd8da12b09)">
     <use xlink:href="#C1_0_547f05e75b" x="372.426952" y="743.925852" style="fill: #ff0000; fill-opacity: 0.15"/>
    </g>
   </g>
   <g id="matplotlib.axis_3">
    <g id="xtick_10">
     <g id="line2d_21">
      <g>
       <use xlink:href="#mb43a0a0242" x="88.004841" y="759.613125" style="stroke: #000000; stroke-width: 0.8"/>
      </g>
     </g>
    </g>
    <g id="xtick_11">
     <g id="line2d_22">
      <g>
       <use xlink:href="#mb43a0a0242" x="159.110369" y="759.613125" style="stroke: #000000; stroke-width: 0.8"/>
      </g>
     </g>
    </g>
    <g id="xtick_12">
     <g id="line2d_23">
      <g>
       <use xlink:href="#mb43a0a0242" x="230.215897" y="759.613125" style="stroke: #000000; stroke-width: 0.8"/>
      </g>
     </g>
    </g>
    <g id="xtick_13">
     <g id="line2d_24">
      <g>
       <use xlink:href="#mb43a0a0242" x="301.321424" y="759.613125" style="stroke: #000000; stroke-width: 0.8"/>
      </g>
     </g>
    </g>
    <g id="xtick_14">
     <g id="line2d_25">
      <g>
       <use xlink:href="#mb43a0a0242" x="372.426952" y="759.613125" style="stroke: #000000; stroke-width: 0.8"/>
      </g>
     </g>
    </g>
    <g id="xtick_15">
     <g id="line2d_26">
      <g>
       <use xlink:href="#mb43a0a0242" x="443.53248" y="759.613125" style="stroke: #000000; stroke-width: 0.8"/>
      </g>
     </g>
    </g>
    <g id="xtick_16">
     <g id="line2d_27">
      <g>
       <use xlink:href="#mb43a0a0242" x="514.638007" y="759.613125" style="stroke: #000000; stroke-width: 0.8"/>
      </g>
     </g>
    </g>
    <g id="xtick_17">
     <g id="line2d_28">
      <g>
       <use xlink:href="#mb43a0a0242" x="585.743535" y="759.613125" style="stroke: #000000; stroke-width: 0.8"/>
      </g>
     </g>
    </g>
    <g id="xtick_18">
     <g id="line2d_29">
      <g>
       <use xlink:href="#mb43a0a0242" x="656.849063" y="759.613125" style="stroke: #000000; stroke-width: 0.8"/>
      </g>
     </g>
    </g>
   </g>
   <g id="matplotlib.axis_4">
    <g id="ytick_8">
     <g id="line2d_30">
      <g>
       <use xlink:href="#mb501f299fb" x="62.549063" y="743.925852" style="stroke: #000000; stroke-width: 0.8"/>
      </g>
     </g>
     <g id="text_13">
      <!-- 0 -->
      <g transform="translate(47.549063 749.480852) scale(0.16 -0.16)">
       <use xlink:href="#TimesNewRomanPSMT-30"/>
      </g>
     </g>
    </g>
    <g id="ytick_9">
     <g id="line2d_31">
      <g>
       <use xlink:href="#mb501f299fb" x="62.549063" y="689.179573" style="stroke: #000000; stroke-width: 0.8"/>
      </g>
     </g>
     <g id="text_14">
      <!-- 20 -->
      <g transform="translate(39.549063 694.734573) scale(0.16 -0.16)">
       <use xlink:href="#TimesNewRomanPSMT-32"/>
       <use xlink:href="#TimesNewRomanPSMT-30" transform="translate(50 0)"/>
      </g>
     </g>
    </g>
    <g id="ytick_10">
     <g id="line2d_32">
      <g>
       <use xlink:href="#mb501f299fb" x="62.549063" y="634.433293" style="stroke: #000000; stroke-width: 0.8"/>
      </g>
     </g>
     <g id="text_15">
      <!-- 40 -->
      <g transform="translate(39.549063 639.988293) scale(0.16 -0.16)">
       <use xlink:href="#TimesNewRomanPSMT-34"/>
       <use xlink:href="#TimesNewRomanPSMT-30" transform="translate(50 0)"/>
      </g>
     </g>
    </g>
    <g id="ytick_11">
     <g id="line2d_33">
      <g>
       <use xlink:href="#mb501f299fb" x="62.549063" y="579.687013" style="stroke: #000000; stroke-width: 0.8"/>
      </g>
     </g>
     <g id="text_16">
      <!-- 60 -->
      <g transform="translate(39.549063 585.242013) scale(0.16 -0.16)">
       <use xlink:href="#TimesNewRomanPSMT-36"/>
       <use xlink:href="#TimesNewRomanPSMT-30" transform="translate(50 0)"/>
      </g>
     </g>
    </g>
    <g id="ytick_12">
     <g id="line2d_34">
      <g>
       <use xlink:href="#mb501f299fb" x="62.549063" y="524.940733" style="stroke: #000000; stroke-width: 0.8"/>
      </g>
     </g>
     <g id="text_17">
      <!-- 80 -->
      <g transform="translate(39.549063 530.495733) scale(0.16 -0.16)">
       <use xlink:href="#TimesNewRomanPSMT-38"/>
       <use xlink:href="#TimesNewRomanPSMT-30" transform="translate(50 0)"/>
      </g>
     </g>
    </g>
    <g id="ytick_13">
     <g id="line2d_35">
      <g>
       <use xlink:href="#mb501f299fb" x="62.549063" y="470.194454" style="stroke: #000000; stroke-width: 0.8"/>
      </g>
     </g>
     <g id="text_18">
      <!-- 100 -->
      <g transform="translate(31.549063 475.749454) scale(0.16 -0.16)">
       <use xlink:href="#TimesNewRomanPSMT-31"/>
       <use xlink:href="#TimesNewRomanPSMT-30" transform="translate(50 0)"/>
       <use xlink:href="#TimesNewRomanPSMT-30" transform="translate(100 0)"/>
      </g>
     </g>
    </g>
    <g id="ytick_14">
     <g id="line2d_36">
      <g>
       <use xlink:href="#mb501f299fb" x="62.549063" y="415.448174" style="stroke: #000000; stroke-width: 0.8"/>
      </g>
     </g>
     <g id="text_19">
      <!-- 120 -->
      <g transform="translate(31.549063 421.003174) scale(0.16 -0.16)">
       <use xlink:href="#TimesNewRomanPSMT-31"/>
       <use xlink:href="#TimesNewRomanPSMT-32" transform="translate(50 0)"/>
       <use xlink:href="#TimesNewRomanPSMT-30" transform="translate(100 0)"/>
      </g>
     </g>
    </g>
    <g id="text_20">
     <!-- Smoothed Return -->
     <g transform="translate(23.69875 650.299219) rotate(-90) scale(0.18 -0.18)">
      <use xlink:href="#TimesNewRomanPSMT-53"/>
      <use xlink:href="#TimesNewRomanPSMT-6d" transform="translate(55.615234 0)"/>
      <use xlink:href="#TimesNewRomanPSMT-6f" transform="translate(133.398438 0)"/>
      <use xlink:href="#TimesNewRomanPSMT-6f" transform="translate(183.398438 0)"/>
      <use xlink:href="#TimesNewRomanPSMT-74" transform="translate(233.398438 0)"/>
      <use xlink:href="#TimesNewRomanPSMT-68" transform="translate(261.181641 0)"/>
      <use xlink:href="#TimesNewRomanPSMT-65" transform="translate(311.181641 0)"/>
      <use xlink:href="#TimesNewRomanPSMT-64" transform="translate(355.566406 0)"/>
      <use xlink:href="#TimesNewRomanPSMT-20" transform="translate(405.566406 0)"/>
      <use xlink:href="#TimesNewRomanPSMT-52" transform="translate(430.566406 0)"/>
      <use xlink:href="#TimesNewRomanPSMT-65" transform="translate(497.265625 0)"/>
      <use xlink:href="#TimesNewRomanPSMT-74" transform="translate(541.650391 0)"/>
      <use xlink:href="#TimesNewRomanPSMT-75" transform="translate(569.433594 0)"/>
      <use xlink:href="#TimesNewRomanPSMT-72" transform="translate(619.433594 0)"/>
      <use xlink:href="#TimesNewRomanPSMT-6e" transform="translate(652.734375 0)"/>
     </g>
    </g>
   </g>
   <g id="line2d_37">
    <path d="M 90.849063 584.855062 
L 96.566234 583.792984 
L 102.283406 582.511921 
L 108.000578 581.236333 
L 113.717749 579.878625 
L 119.434921 577.842063 
L 125.152093 576.741663 
L 130.869265 575.701484 
L 136.586436 574.212385 
L 142.303608 564.243088 
L 148.02078 555.385139 
L 153.737951 543.740606 
L 159.455123 533.973869 
L 165.172295 522.646864 
L 170.889467 513.745119 
L 176.606638 503.628007 
L 182.32381 490.833801 
L 188.040982 480.109005 
L 193.758153 471.185361 
L 199.475325 462.064631 
L 205.192497 452.423811 
L 210.909669 442.536633 
L 216.62684 433.667736 
L 222.344012 432.633031 
L 228.061184 431.368392 
L 233.778355 430.180398 
L 239.495527 439.454418 
L 245.212699 449.139034 
L 250.929871 457.624708 
L 256.647042 462.74896 
L 262.364214 469.575821 
L 268.081386 476.473852 
L 273.798557 483.831752 
L 279.515729 489.89764 
L 285.232901 496.751874 
L 290.950073 504.569643 
L 296.667244 512.141053 
L 302.384416 520.703371 
L 308.101588 529.03028 
L 313.818759 536.240365 
L 319.535931 543.67491 
L 325.253103 551.591222 
L 330.970275 557.635212 
L 336.687446 555.992823 
L 342.404618 555.357766 
L 348.12179 554.279265 
L 353.838961 552.954405 
L 359.556133 551.465306 
L 365.273305 549.987156 
L 370.990477 548.821061 
L 376.707648 547.167723 
L 382.42482 546.445072 
L 388.141992 546.658582 
L 393.859164 546.921365 
L 399.576335 547.271741 
L 405.293507 547.884899 
L 411.010679 547.967019 
L 416.72785 547.310063 
L 422.445022 547.753508 
L 428.162194 556.41437 
L 433.879366 564.150019 
L 439.596537 574.601084 
L 445.313709 583.201724 
L 451.030881 593.258616 
L 456.748052 600.934044 
L 462.465224 609.562058 
L 468.182396 620.385397 
L 473.899568 629.522552 
L 479.616739 636.727162 
L 485.333911 644.145283 
L 491.051083 652.231308 
L 496.768254 660.010755 
L 502.485426 666.536511 
L 508.202598 666.071168 
L 513.91977 665.644147 
L 519.636941 665.069311 
L 525.354113 666.186135 
L 531.071285 667.275586 
L 536.788456 668.206273 
L 542.505628 669.416166 
L 548.2228 670.801246 
L 553.939972 672.449109 
L 559.657143 673.648053 
L 565.374315 674.857946 
L 571.091487 675.82148 
L 576.808658 676.927355 
L 582.52583 678.4712 
L 588.243002 679.785111 
L 593.960174 680.90741 
L 599.677345 682.00781 
L 605.394517 683.464061 
L 611.111689 684.630157 
L 616.82886 685.878372 
L 622.546032 688.987961 
L 628.263204 691.440594 
L 633.980376 694.030093 
L 639.697547 696.444404 
L 645.414719 699.663485 
L 651.131891 702.296781 
L 656.849063 704.371665 
" clip-path="url(#pfd8da12b09)" style="fill: none; stroke: #ffa500; stroke-width: 2; stroke-linecap: square"/>
   </g>
   <g id="line2d_38">
    <path d="M 90.849063 534.910031 
L 96.566234 532.961063 
L 102.283406 531.346048 
L 108.000578 529.539421 
L 113.717749 528.280256 
L 119.434921 526.659767 
L 125.152093 524.656053 
L 130.869265 522.816578 
L 136.586436 520.911407 
L 142.303608 519.055508 
L 148.02078 516.504332 
L 153.737951 514.714128 
L 159.455123 512.55165 
L 165.172295 510.427495 
L 170.889467 507.679231 
L 176.606638 505.702891 
L 182.32381 503.556836 
L 188.040982 501.153475 
L 193.758153 495.509133 
L 199.475325 491.178703 
L 205.192497 485.676701 
L 210.909669 479.610814 
L 216.62684 474.776717 
L 222.344012 469.011934 
L 228.061184 464.966184 
L 233.778355 461.363879 
L 239.495527 465.108524 
L 245.212699 470.610525 
L 250.929871 474.88621 
L 256.647042 477.470234 
L 262.364214 481.888259 
L 268.081386 488.649424 
L 273.798557 492.372172 
L 279.515729 497.709934 
L 285.232901 503.036747 
L 290.950073 510.274205 
L 296.667244 516.745215 
L 302.384416 519.017186 
L 308.101588 526.221796 
L 313.818759 535.835243 
L 319.535931 544.145728 
L 325.253103 552.516434 
L 330.970275 559.901708 
L 336.687446 571.124695 
L 342.404618 578.783699 
L 348.12179 585.008351 
L 353.838961 594.561577 
L 359.556133 601.629322 
L 365.273305 608.609473 
L 370.990477 609.332124 
L 376.707648 610.208064 
L 382.42482 611.554822 
L 388.141992 612.540256 
L 393.859164 613.651605 
L 399.576335 614.210017 
L 405.293507 615.19545 
L 411.010679 616.525785 
L 416.72785 617.790424 
L 422.445022 619.09886 
L 428.162194 620.3416 
L 433.879366 622.241296 
L 439.596537 623.429291 
L 445.313709 624.912915 
L 451.030881 626.336318 
L 456.748052 628.356456 
L 462.465224 629.714163 
L 468.182396 631.148516 
L 473.899568 632.812803 
L 479.616739 637.734493 
L 485.333911 641.24373 
L 491.051083 646.028555 
L 496.768254 651.338944 
L 502.485426 655.51061 
L 508.202598 660.618438 
L 513.91977 663.941538 
L 519.636941 666.85404 
L 525.354113 672.279396 
L 531.071285 676.111636 
L 536.788456 681.268735 
L 542.505628 686.392987 
L 548.2228 690.871233 
L 553.939972 695.015526 
L 559.657143 699.30216 
L 565.374315 703.599743 
L 571.091487 707.754985 
L 576.808658 711.264222 
L 582.52583 714.477828 
L 588.243002 718.435984 
L 593.960174 719.109364 
L 599.677345 719.760844 
L 605.394517 720.390427 
L 611.111689 721.074755 
L 616.82886 721.698863 
L 622.546032 722.366767 
L 628.263204 722.979926 
L 633.980376 723.686153 
L 639.697547 724.375956 
L 645.414719 725.04386 
L 651.131891 725.744613 
L 656.849063 726.324923 
" clip-path="url(#pfd8da12b09)" style="fill: none; stroke-dasharray: 7.4,3.2; stroke-dashoffset: 0; stroke: #ffa500; stroke-width: 2"/>
   </g>
   <g id="patch_7">
    <path d="M 62.549063 759.613125 
L 62.549063 414.493125 
" style="fill: none; stroke: #000000; stroke-width: 0.8; stroke-linejoin: miter; stroke-linecap: square"/>
   </g>
   <g id="patch_8">
    <path d="M 62.549063 759.613125 
L 685.149063 759.613125 
" style="fill: none; stroke: #000000; stroke-width: 0.8; stroke-linejoin: miter; stroke-linecap: square"/>
   </g>
   <g id="text_21">
    <!-- MassPole -->
    <g transform="translate(336.9 408.493125) scale(0.19 -0.19)">
     <defs>
      <path id="TimesNewRomanPSMT-73" d="M 2050 2947 
L 2050 1972 
L 1947 1972 
Q 1828 2431 1642 2597 
Q 1456 2763 1169 2763 
Q 950 2763 815 2647 
Q 681 2531 681 2391 
Q 681 2216 781 2091 
Q 878 1963 1175 1819 
L 1631 1597 
Q 2266 1288 2266 781 
Q 2266 391 1970 151 
Q 1675 -88 1309 -88 
Q 1047 -88 709 6 
Q 606 38 541 38 
Q 469 38 428 -44 
L 325 -44 
L 325 978 
L 428 978 
Q 516 541 762 319 
Q 1009 97 1316 97 
Q 1531 97 1667 223 
Q 1803 350 1803 528 
Q 1803 744 1651 891 
Q 1500 1038 1047 1263 
Q 594 1488 453 1669 
Q 313 1847 313 2119 
Q 313 2472 555 2709 
Q 797 2947 1181 2947 
Q 1350 2947 1591 2875 
Q 1750 2828 1803 2828 
Q 1853 2828 1881 2850 
Q 1909 2872 1947 2947 
L 2050 2947 
z
" transform="scale(0.015625)"/>
      <path id="TimesNewRomanPSMT-50" d="M 1313 1984 
L 1313 750 
Q 1313 350 1400 253 
Q 1519 116 1759 116 
L 1922 116 
L 1922 0 
L 106 0 
L 106 116 
L 266 116 
Q 534 116 650 291 
Q 713 388 713 750 
L 713 3488 
Q 713 3888 628 3984 
Q 506 4122 266 4122 
L 106 4122 
L 106 4238 
L 1659 4238 
Q 2228 4238 2556 4120 
Q 2884 4003 3109 3725 
Q 3334 3447 3334 3066 
Q 3334 2547 2992 2222 
Q 2650 1897 2025 1897 
Q 1872 1897 1694 1919 
Q 1516 1941 1313 1984 
z
M 1313 2163 
Q 1478 2131 1606 2115 
Q 1734 2100 1825 2100 
Q 2150 2100 2386 2351 
Q 2622 2603 2622 3003 
Q 2622 3278 2509 3514 
Q 2397 3750 2190 3867 
Q 1984 3984 1722 3984 
Q 1563 3984 1313 3925 
L 1313 2163 
z
" transform="scale(0.015625)"/>
      <path id="TimesNewRomanPSMT-6c" d="M 1184 4444 
L 1184 647 
Q 1184 378 1223 290 
Q 1263 203 1344 158 
Q 1425 113 1647 113 
L 1647 0 
L 244 0 
L 244 113 
Q 441 113 512 153 
Q 584 194 625 287 
Q 666 381 666 647 
L 666 3247 
Q 666 3731 644 3842 
Q 622 3953 573 3993 
Q 525 4034 450 4034 
Q 369 4034 244 3984 
L 191 4094 
L 1044 4444 
L 1184 4444 
z
" transform="scale(0.015625)"/>
     </defs>
     <use xlink:href="#TimesNewRomanPSMT-4d"/>
     <use xlink:href="#TimesNewRomanPSMT-61" transform="translate(88.916016 0)"/>
     <use xlink:href="#TimesNewRomanPSMT-73" transform="translate(133.300781 0)"/>
     <use xlink:href="#TimesNewRomanPSMT-73" transform="translate(172.216797 0)"/>
     <use xlink:href="#TimesNewRomanPSMT-50" transform="translate(211.132812 0)"/>
     <use xlink:href="#TimesNewRomanPSMT-6f" transform="translate(266.748047 0)"/>
     <use xlink:href="#TimesNewRomanPSMT-6c" transform="translate(316.748047 0)"/>
     <use xlink:href="#TimesNewRomanPSMT-65" transform="translate(344.53125 0)"/>
    </g>
   </g>
   <g id="legend_2">
    <g id="patch_9">
     <path d="M 587.677188 474.99375 
L 676.749063 474.99375 
Q 679.149063 474.99375 679.149063 472.59375 
L 679.149063 422.893125 
Q 679.149063 420.493125 676.749063 420.493125 
L 587.677188 420.493125 
Q 585.277188 420.493125 585.277188 422.893125 
L 585.277188 472.59375 
Q 585.277188 474.99375 587.677188 474.99375 
z
" style="fill: #ffffff; opacity: 0.8; stroke: #cccccc; stroke-linejoin: miter"/>
    </g>
    <g id="line2d_39">
     <path d="M 590.077188 429.493125 
L 602.077188 429.493125 
L 614.077188 429.493125 
" style="fill: none; stroke: #ffa500; stroke-width: 2; stroke-linecap: square"/>
    </g>
    <g id="text_22">
     <!-- COIN -->
     <g transform="translate(623.677188 433.693125) scale(0.12 -0.12)">
      <use xlink:href="#TimesNewRomanPSMT-43"/>
      <use xlink:href="#TimesNewRomanPSMT-4f" transform="translate(66.699219 0)"/>
      <use xlink:href="#TimesNewRomanPSMT-49" transform="translate(138.916016 0)"/>
      <use xlink:href="#TimesNewRomanPSMT-4e" transform="translate(172.216797 0)"/>
     </g>
    </g>
    <g id="line2d_40">
     <path d="M 590.077188 446.46 
L 602.077188 446.46 
L 614.077188 446.46 
" style="fill: none; stroke-dasharray: 7.4,3.2; stroke-dashoffset: 0; stroke: #ffa500; stroke-width: 2"/>
    </g>
    <g id="text_23">
     <!-- KMEANS -->
     <g transform="translate(623.677188 450.66) scale(0.12 -0.12)">
      <use xlink:href="#TimesNewRomanPSMT-4b"/>
      <use xlink:href="#TimesNewRomanPSMT-4d" transform="translate(72.216797 0)"/>
      <use xlink:href="#TimesNewRomanPSMT-45" transform="translate(161.132812 0)"/>
      <use xlink:href="#TimesNewRomanPSMT-41" transform="translate(222.216797 0)"/>
      <use xlink:href="#TimesNewRomanPSMT-4e" transform="translate(294.433594 0)"/>
      <use xlink:href="#TimesNewRomanPSMT-53" transform="translate(366.650391 0)"/>
     </g>
    </g>
    <g id="PathCollection_4">
     <path d="M 602.077188 468.349858 
C 603.104315 468.349858 604.089512 467.941776 604.8158 467.215488 
C 605.542089 466.489199 605.950171 465.504002 605.950171 464.476875 
C 605.950171 463.449748 605.542089 462.464551 604.8158 461.738262 
C 604.089512 461.011974 603.104315 460.603892 602.077188 460.603892 
C 601.05006 460.603892 600.064863 461.011974 599.338575 461.738262 
C 598.612286 462.464551 598.204204 463.449748 598.204204 464.476875 
C 598.204204 465.504002 598.612286 466.489199 599.338575 467.215488 
C 600.064863 467.941776 601.05006 468.349858 602.077188 468.349858 
z
" style="fill: #ff0000; fill-opacity: 0.15"/>
    </g>
    <g id="text_24">
     <!-- Train data -->
     <g transform="translate(623.677188 467.626875) scale(0.12 -0.12)">
      <use xlink:href="#TimesNewRomanPSMT-54"/>
      <use xlink:href="#TimesNewRomanPSMT-72" transform="translate(57.583984 0)"/>
      <use xlink:href="#TimesNewRomanPSMT-61" transform="translate(90.884766 0)"/>
      <use xlink:href="#TimesNewRomanPSMT-69" transform="translate(135.269531 0)"/>
      <use xlink:href="#TimesNewRomanPSMT-6e" transform="translate(163.052734 0)"/>
      <use xlink:href="#TimesNewRomanPSMT-20" transform="translate(213.052734 0)"/>
      <use xlink:href="#TimesNewRomanPSMT-64" transform="translate(238.052734 0)"/>
      <use xlink:href="#TimesNewRomanPSMT-61" transform="translate(288.052734 0)"/>
      <use xlink:href="#TimesNewRomanPSMT-74" transform="translate(332.4375 0)"/>
      <use xlink:href="#TimesNewRomanPSMT-61" transform="translate(360.220703 0)"/>
     </g>
    </g>
   </g>
  </g>
  <g id="axes_3">
   <g id="patch_10">
    <path d="M 62.549063 1147.713125 
L 685.149063 1147.713125 
L 685.149063 802.593125 
L 62.549063 802.593125 
z
" style="fill: #ffffff"/>
   </g>
   <g id="PathCollection_5">
    <defs>
     <path id="C2_0_3b8ae3fdf3" d="M 0 3.872983 
C 1.027127 3.872983 2.012324 3.464901 2.738613 2.738613 
C 3.464901 2.012324 3.872983 1.027127 3.872983 -0 
C 3.872983 -1.027127 3.464901 -2.012324 2.738613 -2.738613 
C 2.012324 -3.464901 1.027127 -3.872983 0 -3.872983 
C -1.027127 -3.872983 -2.012324 -3.464901 -2.738613 -2.738613 
C -3.464901 -2.012324 -3.872983 -1.027127 -3.872983 0 
C -3.872983 1.027127 -3.464901 2.012324 -2.738613 2.738613 
C -2.012324 3.464901 -1.027127 3.872983 0 3.872983 
z
"/>
    </defs>
    <g clip-path="url(#p0cd0396106)">
     <use xlink:href="#C2_0_3b8ae3fdf3" x="144.889264" y="1132.025852" style="fill: #ff0000; fill-opacity: 0.15"/>
    </g>
    <g clip-path="url(#p0cd0396106)">
     <use xlink:href="#C2_0_3b8ae3fdf3" x="144.889264" y="1132.025852" style="fill: #ff0000; fill-opacity: 0.15"/>
    </g>
    <g clip-path="url(#p0cd0396106)">
     <use xlink:href="#C2_0_3b8ae3fdf3" x="144.889264" y="1132.025852" style="fill: #ff0000; fill-opacity: 0.15"/>
    </g>
    <g clip-path="url(#p0cd0396106)">
     <use xlink:href="#C2_0_3b8ae3fdf3" x="144.889264" y="1132.025852" style="fill: #ff0000; fill-opacity: 0.15"/>
    </g>
    <g clip-path="url(#p0cd0396106)">
     <use xlink:href="#C2_0_3b8ae3fdf3" x="144.889264" y="1132.025852" style="fill: #ff0000; fill-opacity: 0.15"/>
    </g>
    <g clip-path="url(#p0cd0396106)">
     <use xlink:href="#C2_0_3b8ae3fdf3" x="372.426952" y="1132.025852" style="fill: #ff0000; fill-opacity: 0.15"/>
    </g>
    <g clip-path="url(#p0cd0396106)">
     <use xlink:href="#C2_0_3b8ae3fdf3" x="372.426952" y="1132.025852" style="fill: #ff0000; fill-opacity: 0.15"/>
    </g>
    <g clip-path="url(#p0cd0396106)">
     <use xlink:href="#C2_0_3b8ae3fdf3" x="372.426952" y="1132.025852" style="fill: #ff0000; fill-opacity: 0.15"/>
    </g>
    <g clip-path="url(#p0cd0396106)">
     <use xlink:href="#C2_0_3b8ae3fdf3" x="372.426952" y="1132.025852" style="fill: #ff0000; fill-opacity: 0.15"/>
    </g>
    <g clip-path="url(#p0cd0396106)">
     <use xlink:href="#C2_0_3b8ae3fdf3" x="372.426952" y="1132.025852" style="fill: #ff0000; fill-opacity: 0.15"/>
    </g>
    <g clip-path="url(#p0cd0396106)">
     <use xlink:href="#C2_0_3b8ae3fdf3" x="372.426952" y="1132.025852" style="fill: #ff0000; fill-opacity: 0.15"/>
    </g>
    <g clip-path="url(#p0cd0396106)">
     <use xlink:href="#C2_0_3b8ae3fdf3" x="429.311374" y="1132.025852" style="fill: #ff0000; fill-opacity: 0.15"/>
    </g>
    <g clip-path="url(#p0cd0396106)">
     <use xlink:href="#C2_0_3b8ae3fdf3" x="486.195796" y="1132.025852" style="fill: #ff0000; fill-opacity: 0.15"/>
    </g>
    <g clip-path="url(#p0cd0396106)">
     <use xlink:href="#C2_0_3b8ae3fdf3" x="543.080218" y="1132.025852" style="fill: #ff0000; fill-opacity: 0.15"/>
    </g>
    <g clip-path="url(#p0cd0396106)">
     <use xlink:href="#C2_0_3b8ae3fdf3" x="599.96464" y="1132.025852" style="fill: #ff0000; fill-opacity: 0.15"/>
    </g>
    <g clip-path="url(#p0cd0396106)">
     <use xlink:href="#C2_0_3b8ae3fdf3" x="372.426952" y="1132.025852" style="fill: #ff0000; fill-opacity: 0.15"/>
    </g>
    <g clip-path="url(#p0cd0396106)">
     <use xlink:href="#C2_0_3b8ae3fdf3" x="372.426952" y="1132.025852" style="fill: #ff0000; fill-opacity: 0.15"/>
    </g>
    <g clip-path="url(#p0cd0396106)">
     <use xlink:href="#C2_0_3b8ae3fdf3" x="372.426952" y="1132.025852" style="fill: #ff0000; fill-opacity: 0.15"/>
    </g>
    <g clip-path="url(#p0cd0396106)">
     <use xlink:href="#C2_0_3b8ae3fdf3" x="372.426952" y="1132.025852" style="fill: #ff0000; fill-opacity: 0.15"/>
    </g>
    <g clip-path="url(#p0cd0396106)">
     <use xlink:href="#C2_0_3b8ae3fdf3" x="372.426952" y="1132.025852" style="fill: #ff0000; fill-opacity: 0.15"/>
    </g>
   </g>
   <g id="matplotlib.axis_5">
    <g id="xtick_19">
     <g id="line2d_41">
      <g>
       <use xlink:href="#mb43a0a0242" x="88.004841" y="1147.713125" style="stroke: #000000; stroke-width: 0.8"/>
      </g>
     </g>
     <g id="text_25">
      <!-- 0.00 -->
      <g transform="translate(74.004841 1165.823125) scale(0.16 -0.16)">
       <defs>
        <path id="TimesNewRomanPSMT-2e" d="M 800 606 
Q 947 606 1047 504 
Q 1147 403 1147 259 
Q 1147 116 1045 14 
Q 944 -88 800 -88 
Q 656 -88 554 14 
Q 453 116 453 259 
Q 453 406 554 506 
Q 656 606 800 606 
z
" transform="scale(0.015625)"/>
       </defs>
       <use xlink:href="#TimesNewRomanPSMT-30"/>
       <use xlink:href="#TimesNewRomanPSMT-2e" transform="translate(50 0)"/>
       <use xlink:href="#TimesNewRomanPSMT-30" transform="translate(75 0)"/>
       <use xlink:href="#TimesNewRomanPSMT-30" transform="translate(125 0)"/>
      </g>
     </g>
    </g>
    <g id="xtick_20">
     <g id="line2d_42">
      <g>
       <use xlink:href="#mb43a0a0242" x="159.110369" y="1147.713125" style="stroke: #000000; stroke-width: 0.8"/>
      </g>
     </g>
     <g id="text_26">
      <!-- 0.25 -->
      <g transform="translate(145.110369 1165.823125) scale(0.16 -0.16)">
       <defs>
        <path id="TimesNewRomanPSMT-35" d="M 2778 4238 
L 2534 3706 
L 1259 3706 
L 981 3138 
Q 1809 3016 2294 2522 
Q 2709 2097 2709 1522 
Q 2709 1188 2573 903 
Q 2438 619 2231 419 
Q 2025 219 1772 97 
Q 1413 -75 1034 -75 
Q 653 -75 479 54 
Q 306 184 306 341 
Q 306 428 378 495 
Q 450 563 559 563 
Q 641 563 702 538 
Q 763 513 909 409 
Q 1144 247 1384 247 
Q 1750 247 2026 523 
Q 2303 800 2303 1197 
Q 2303 1581 2056 1914 
Q 1809 2247 1375 2428 
Q 1034 2569 447 2591 
L 1259 4238 
L 2778 4238 
z
" transform="scale(0.015625)"/>
       </defs>
       <use xlink:href="#TimesNewRomanPSMT-30"/>
       <use xlink:href="#TimesNewRomanPSMT-2e" transform="translate(50 0)"/>
       <use xlink:href="#TimesNewRomanPSMT-32" transform="translate(75 0)"/>
       <use xlink:href="#TimesNewRomanPSMT-35" transform="translate(125 0)"/>
      </g>
     </g>
    </g>
    <g id="xtick_21">
     <g id="line2d_43">
      <g>
       <use xlink:href="#mb43a0a0242" x="230.215897" y="1147.713125" style="stroke: #000000; stroke-width: 0.8"/>
      </g>
     </g>
     <g id="text_27">
      <!-- 0.50 -->
      <g transform="translate(216.215897 1165.823125) scale(0.16 -0.16)">
       <use xlink:href="#TimesNewRomanPSMT-30"/>
       <use xlink:href="#TimesNewRomanPSMT-2e" transform="translate(50 0)"/>
       <use xlink:href="#TimesNewRomanPSMT-35" transform="translate(75 0)"/>
       <use xlink:href="#TimesNewRomanPSMT-30" transform="translate(125 0)"/>
      </g>
     </g>
    </g>
    <g id="xtick_22">
     <g id="line2d_44">
      <g>
       <use xlink:href="#mb43a0a0242" x="301.321424" y="1147.713125" style="stroke: #000000; stroke-width: 0.8"/>
      </g>
     </g>
     <g id="text_28">
      <!-- 0.75 -->
      <g transform="translate(287.321424 1165.823125) scale(0.16 -0.16)">
       <defs>
        <path id="TimesNewRomanPSMT-37" d="M 644 4238 
L 2916 4238 
L 2916 4119 
L 1503 -88 
L 1153 -88 
L 2419 3728 
L 1253 3728 
Q 900 3728 750 3644 
Q 488 3500 328 3200 
L 238 3234 
L 644 4238 
z
" transform="scale(0.015625)"/>
       </defs>
       <use xlink:href="#TimesNewRomanPSMT-30"/>
       <use xlink:href="#TimesNewRomanPSMT-2e" transform="translate(50 0)"/>
       <use xlink:href="#TimesNewRomanPSMT-37" transform="translate(75 0)"/>
       <use xlink:href="#TimesNewRomanPSMT-35" transform="translate(125 0)"/>
      </g>
     </g>
    </g>
    <g id="xtick_23">
     <g id="line2d_45">
      <g>
       <use xlink:href="#mb43a0a0242" x="372.426952" y="1147.713125" style="stroke: #000000; stroke-width: 0.8"/>
      </g>
     </g>
     <g id="text_29">
      <!-- 1.00 -->
      <g transform="translate(358.426952 1165.823125) scale(0.16 -0.16)">
       <use xlink:href="#TimesNewRomanPSMT-31"/>
       <use xlink:href="#TimesNewRomanPSMT-2e" transform="translate(50 0)"/>
       <use xlink:href="#TimesNewRomanPSMT-30" transform="translate(75 0)"/>
       <use xlink:href="#TimesNewRomanPSMT-30" transform="translate(125 0)"/>
      </g>
     </g>
    </g>
    <g id="xtick_24">
     <g id="line2d_46">
      <g>
       <use xlink:href="#mb43a0a0242" x="443.53248" y="1147.713125" style="stroke: #000000; stroke-width: 0.8"/>
      </g>
     </g>
     <g id="text_30">
      <!-- 1.25 -->
      <g transform="translate(429.53248 1165.823125) scale(0.16 -0.16)">
       <use xlink:href="#TimesNewRomanPSMT-31"/>
       <use xlink:href="#TimesNewRomanPSMT-2e" transform="translate(50 0)"/>
       <use xlink:href="#TimesNewRomanPSMT-32" transform="translate(75 0)"/>
       <use xlink:href="#TimesNewRomanPSMT-35" transform="translate(125 0)"/>
      </g>
     </g>
    </g>
    <g id="xtick_25">
     <g id="line2d_47">
      <g>
       <use xlink:href="#mb43a0a0242" x="514.638007" y="1147.713125" style="stroke: #000000; stroke-width: 0.8"/>
      </g>
     </g>
     <g id="text_31">
      <!-- 1.50 -->
      <g transform="translate(500.638007 1165.823125) scale(0.16 -0.16)">
       <use xlink:href="#TimesNewRomanPSMT-31"/>
       <use xlink:href="#TimesNewRomanPSMT-2e" transform="translate(50 0)"/>
       <use xlink:href="#TimesNewRomanPSMT-35" transform="translate(75 0)"/>
       <use xlink:href="#TimesNewRomanPSMT-30" transform="translate(125 0)"/>
      </g>
     </g>
    </g>
    <g id="xtick_26">
     <g id="line2d_48">
      <g>
       <use xlink:href="#mb43a0a0242" x="585.743535" y="1147.713125" style="stroke: #000000; stroke-width: 0.8"/>
      </g>
     </g>
     <g id="text_32">
      <!-- 1.75 -->
      <g transform="translate(571.743535 1165.823125) scale(0.16 -0.16)">
       <use xlink:href="#TimesNewRomanPSMT-31"/>
       <use xlink:href="#TimesNewRomanPSMT-2e" transform="translate(50 0)"/>
       <use xlink:href="#TimesNewRomanPSMT-37" transform="translate(75 0)"/>
       <use xlink:href="#TimesNewRomanPSMT-35" transform="translate(125 0)"/>
      </g>
     </g>
    </g>
    <g id="xtick_27">
     <g id="line2d_49">
      <g>
       <use xlink:href="#mb43a0a0242" x="656.849063" y="1147.713125" style="stroke: #000000; stroke-width: 0.8"/>
      </g>
     </g>
     <g id="text_33">
      <!-- 2.00 -->
      <g transform="translate(642.849063 1165.823125) scale(0.16 -0.16)">
       <use xlink:href="#TimesNewRomanPSMT-32"/>
       <use xlink:href="#TimesNewRomanPSMT-2e" transform="translate(50 0)"/>
       <use xlink:href="#TimesNewRomanPSMT-30" transform="translate(75 0)"/>
       <use xlink:href="#TimesNewRomanPSMT-30" transform="translate(125 0)"/>
      </g>
     </g>
    </g>
    <g id="text_34">
     <!-- Test Parameter Value -->
     <g transform="translate(297.6725 1185.744375) scale(0.18 -0.18)">
      <defs>
       <path id="TimesNewRomanPSMT-56" d="M 4544 4238 
L 4544 4122 
Q 4319 4081 4203 3978 
Q 4038 3825 3909 3509 
L 2431 -97 
L 2316 -97 
L 728 3556 
Q 606 3838 556 3900 
Q 478 3997 364 4051 
Q 250 4106 56 4122 
L 56 4238 
L 1788 4238 
L 1788 4122 
Q 1494 4094 1406 4022 
Q 1319 3950 1319 3838 
Q 1319 3681 1463 3350 
L 2541 866 
L 3541 3319 
Q 3688 3681 3688 3822 
Q 3688 3913 3597 3995 
Q 3506 4078 3291 4113 
Q 3275 4116 3238 4122 
L 3238 4238 
L 4544 4238 
z
" transform="scale(0.015625)"/>
      </defs>
      <use xlink:href="#TimesNewRomanPSMT-54"/>
      <use xlink:href="#TimesNewRomanPSMT-65" transform="translate(54.083984 0)"/>
      <use xlink:href="#TimesNewRomanPSMT-73" transform="translate(98.46875 0)"/>
      <use xlink:href="#TimesNewRomanPSMT-74" transform="translate(137.384766 0)"/>
      <use xlink:href="#TimesNewRomanPSMT-20" transform="translate(165.167969 0)"/>
      <use xlink:href="#TimesNewRomanPSMT-50" transform="translate(190.167969 0)"/>
      <use xlink:href="#TimesNewRomanPSMT-61" transform="translate(245.783203 0)"/>
      <use xlink:href="#TimesNewRomanPSMT-72" transform="translate(290.167969 0)"/>
      <use xlink:href="#TimesNewRomanPSMT-61" transform="translate(323.46875 0)"/>
      <use xlink:href="#TimesNewRomanPSMT-6d" transform="translate(367.853516 0)"/>
      <use xlink:href="#TimesNewRomanPSMT-65" transform="translate(445.636719 0)"/>
      <use xlink:href="#TimesNewRomanPSMT-74" transform="translate(490.021484 0)"/>
      <use xlink:href="#TimesNewRomanPSMT-65" transform="translate(517.804688 0)"/>
      <use xlink:href="#TimesNewRomanPSMT-72" transform="translate(562.189453 0)"/>
      <use xlink:href="#TimesNewRomanPSMT-20" transform="translate(595.490234 0)"/>
      <use xlink:href="#TimesNewRomanPSMT-56" transform="translate(618.740234 0)"/>
      <use xlink:href="#TimesNewRomanPSMT-61" transform="translate(679.832031 0)"/>
      <use xlink:href="#TimesNewRomanPSMT-6c" transform="translate(724.216797 0)"/>
      <use xlink:href="#TimesNewRomanPSMT-75" transform="translate(752 0)"/>
      <use xlink:href="#TimesNewRomanPSMT-65" transform="translate(802 0)"/>
     </g>
    </g>
   </g>
   <g id="matplotlib.axis_6">
    <g id="ytick_15">
     <g id="line2d_50">
      <g>
       <use xlink:href="#mb501f299fb" x="62.549063" y="1132.025852" style="stroke: #000000; stroke-width: 0.8"/>
      </g>
     </g>
     <g id="text_35">
      <!-- 0.0 -->
      <g transform="translate(35.549063 1137.580852) scale(0.16 -0.16)">
       <use xlink:href="#TimesNewRomanPSMT-30"/>
       <use xlink:href="#TimesNewRomanPSMT-2e" transform="translate(50 0)"/>
       <use xlink:href="#TimesNewRomanPSMT-30" transform="translate(75 0)"/>
      </g>
     </g>
    </g>
    <g id="ytick_16">
     <g id="line2d_51">
      <g>
       <use xlink:href="#mb501f299fb" x="62.549063" y="1088.216445" style="stroke: #000000; stroke-width: 0.8"/>
      </g>
     </g>
     <g id="text_36">
      <!-- 2.5 -->
      <g transform="translate(35.549063 1093.771445) scale(0.16 -0.16)">
       <use xlink:href="#TimesNewRomanPSMT-32"/>
       <use xlink:href="#TimesNewRomanPSMT-2e" transform="translate(50 0)"/>
       <use xlink:href="#TimesNewRomanPSMT-35" transform="translate(75 0)"/>
      </g>
     </g>
    </g>
    <g id="ytick_17">
     <g id="line2d_52">
      <g>
       <use xlink:href="#mb501f299fb" x="62.549063" y="1044.407037" style="stroke: #000000; stroke-width: 0.8"/>
      </g>
     </g>
     <g id="text_37">
      <!-- 5.0 -->
      <g transform="translate(35.549063 1049.962037) scale(0.16 -0.16)">
       <use xlink:href="#TimesNewRomanPSMT-35"/>
       <use xlink:href="#TimesNewRomanPSMT-2e" transform="translate(50 0)"/>
       <use xlink:href="#TimesNewRomanPSMT-30" transform="translate(75 0)"/>
      </g>
     </g>
    </g>
    <g id="ytick_18">
     <g id="line2d_53">
      <g>
       <use xlink:href="#mb501f299fb" x="62.549063" y="1000.597629" style="stroke: #000000; stroke-width: 0.8"/>
      </g>
     </g>
     <g id="text_38">
      <!-- 7.5 -->
      <g transform="translate(35.549063 1006.152629) scale(0.16 -0.16)">
       <use xlink:href="#TimesNewRomanPSMT-37"/>
       <use xlink:href="#TimesNewRomanPSMT-2e" transform="translate(50 0)"/>
       <use xlink:href="#TimesNewRomanPSMT-35" transform="translate(75 0)"/>
      </g>
     </g>
    </g>
    <g id="ytick_19">
     <g id="line2d_54">
      <g>
       <use xlink:href="#mb501f299fb" x="62.549063" y="956.788221" style="stroke: #000000; stroke-width: 0.8"/>
      </g>
     </g>
     <g id="text_39">
      <!-- 10.0 -->
      <g transform="translate(27.549063 962.343221) scale(0.16 -0.16)">
       <use xlink:href="#TimesNewRomanPSMT-31"/>
       <use xlink:href="#TimesNewRomanPSMT-30" transform="translate(50 0)"/>
       <use xlink:href="#TimesNewRomanPSMT-2e" transform="translate(100 0)"/>
       <use xlink:href="#TimesNewRomanPSMT-30" transform="translate(125 0)"/>
      </g>
     </g>
    </g>
    <g id="ytick_20">
     <g id="line2d_55">
      <g>
       <use xlink:href="#mb501f299fb" x="62.549063" y="912.978814" style="stroke: #000000; stroke-width: 0.8"/>
      </g>
     </g>
     <g id="text_40">
      <!-- 12.5 -->
      <g transform="translate(27.549063 918.533814) scale(0.16 -0.16)">
       <use xlink:href="#TimesNewRomanPSMT-31"/>
       <use xlink:href="#TimesNewRomanPSMT-32" transform="translate(50 0)"/>
       <use xlink:href="#TimesNewRomanPSMT-2e" transform="translate(100 0)"/>
       <use xlink:href="#TimesNewRomanPSMT-35" transform="translate(125 0)"/>
      </g>
     </g>
    </g>
    <g id="ytick_21">
     <g id="line2d_56">
      <g>
       <use xlink:href="#mb501f299fb" x="62.549063" y="869.169406" style="stroke: #000000; stroke-width: 0.8"/>
      </g>
     </g>
     <g id="text_41">
      <!-- 15.0 -->
      <g transform="translate(27.549063 874.724406) scale(0.16 -0.16)">
       <use xlink:href="#TimesNewRomanPSMT-31"/>
       <use xlink:href="#TimesNewRomanPSMT-35" transform="translate(50 0)"/>
       <use xlink:href="#TimesNewRomanPSMT-2e" transform="translate(100 0)"/>
       <use xlink:href="#TimesNewRomanPSMT-30" transform="translate(125 0)"/>
      </g>
     </g>
    </g>
    <g id="ytick_22">
     <g id="line2d_57">
      <g>
       <use xlink:href="#mb501f299fb" x="62.549063" y="825.359998" style="stroke: #000000; stroke-width: 0.8"/>
      </g>
     </g>
     <g id="text_42">
      <!-- 17.5 -->
      <g transform="translate(27.549063 830.914998) scale(0.16 -0.16)">
       <use xlink:href="#TimesNewRomanPSMT-31"/>
       <use xlink:href="#TimesNewRomanPSMT-37" transform="translate(50 0)"/>
       <use xlink:href="#TimesNewRomanPSMT-2e" transform="translate(100 0)"/>
       <use xlink:href="#TimesNewRomanPSMT-35" transform="translate(125 0)"/>
      </g>
     </g>
    </g>
    <g id="text_43">
     <!-- Smoothed Return -->
     <g transform="translate(19.69875 1038.399219) rotate(-90) scale(0.18 -0.18)">
      <use xlink:href="#TimesNewRomanPSMT-53"/>
      <use xlink:href="#TimesNewRomanPSMT-6d" transform="translate(55.615234 0)"/>
      <use xlink:href="#TimesNewRomanPSMT-6f" transform="translate(133.398438 0)"/>
      <use xlink:href="#TimesNewRomanPSMT-6f" transform="translate(183.398438 0)"/>
      <use xlink:href="#TimesNewRomanPSMT-74" transform="translate(233.398438 0)"/>
      <use xlink:href="#TimesNewRomanPSMT-68" transform="translate(261.181641 0)"/>
      <use xlink:href="#TimesNewRomanPSMT-65" transform="translate(311.181641 0)"/>
      <use xlink:href="#TimesNewRomanPSMT-64" transform="translate(355.566406 0)"/>
      <use xlink:href="#TimesNewRomanPSMT-20" transform="translate(405.566406 0)"/>
      <use xlink:href="#TimesNewRomanPSMT-52" transform="translate(430.566406 0)"/>
      <use xlink:href="#TimesNewRomanPSMT-65" transform="translate(497.265625 0)"/>
      <use xlink:href="#TimesNewRomanPSMT-74" transform="translate(541.650391 0)"/>
      <use xlink:href="#TimesNewRomanPSMT-75" transform="translate(569.433594 0)"/>
      <use xlink:href="#TimesNewRomanPSMT-72" transform="translate(619.433594 0)"/>
      <use xlink:href="#TimesNewRomanPSMT-6e" transform="translate(652.734375 0)"/>
     </g>
    </g>
   </g>
   <g id="line2d_58">
    <path d="M 90.849063 1012.548835 
L 96.566234 1006.590756 
L 102.283406 998.59992 
L 108.000578 991.23994 
L 113.717749 982.828533 
L 119.434921 976.344741 
L 125.152093 964.253344 
L 130.869265 960.292974 
L 136.586436 957.068601 
L 142.303608 953.914324 
L 148.02078 950.724999 
L 153.737951 947.710912 
L 159.455123 944.62673 
L 165.172295 941.472452 
L 170.889467 938.353222 
L 176.606638 935.233993 
L 182.32381 932.079715 
L 188.040982 928.820295 
L 193.758153 925.771161 
L 199.475325 922.476693 
L 205.192497 919.322416 
L 210.909669 916.133091 
L 216.62684 913.013861 
L 222.344012 909.824536 
L 228.061184 902.744936 
L 233.778355 894.158292 
L 239.495527 890.162874 
L 245.212699 886.342694 
L 250.929871 880.910327 
L 256.647042 875.33777 
L 262.364214 871.447495 
L 268.081386 868.748835 
L 273.798557 864.227705 
L 279.515729 859.250956 
L 285.232901 854.51954 
L 290.950073 848.105843 
L 296.667244 844.075377 
L 302.384416 840.115007 
L 308.101588 838.08225 
L 313.818759 831.458268 
L 319.535931 827.147422 
L 325.253103 823.642669 
L 330.970275 818.38554 
L 336.687446 818.280398 
L 342.404618 820.838867 
L 348.12179 826.271234 
L 353.838961 832.334456 
L 359.556133 838.08225 
L 365.273305 842.393096 
L 370.990477 845.617468 
L 376.707648 853.923732 
L 382.42482 856.692486 
L 388.141992 858.19953 
L 393.859164 859.110766 
L 399.576335 860.127144 
L 405.293507 859.461241 
L 411.010679 864.262752 
L 416.72785 861.108475 
L 422.445022 855.010205 
L 428.162194 851.014787 
L 433.879366 845.231945 
L 439.596537 842.498238 
L 445.313709 836.470064 
L 451.030881 833.666262 
L 456.748052 829.600749 
L 462.465224 825.570283 
L 468.182396 825.465141 
L 473.899568 825.289903 
L 479.616739 824.834285 
L 485.333911 824.098287 
L 491.051083 823.327242 
L 496.768254 822.801529 
L 502.485426 821.715055 
L 508.202598 821.0842 
L 513.91977 825.009523 
L 519.636941 829.495606 
L 525.354113 836.890634 
L 531.071285 844.075377 
L 536.788456 852.907354 
L 542.505628 861.809425 
L 548.2228 869.064263 
L 553.939972 875.232628 
L 559.657143 883.153369 
L 565.374315 891.424585 
L 571.091487 899.730849 
L 576.808658 909.999774 
L 582.52583 917.429849 
L 588.243002 924.684687 
L 593.960174 930.467529 
L 599.677345 940.561217 
L 605.394517 948.341767 
L 611.111689 955.10594 
L 616.82886 963.832774 
L 622.546032 967.267432 
L 628.263204 970.491804 
L 633.980376 973.646081 
L 639.697547 976.800359 
L 645.414719 979.989684 
L 651.131891 983.003771 
L 656.849063 986.158048 
" clip-path="url(#p0cd0396106)" style="fill: none; stroke: #008000; stroke-width: 2; stroke-linecap: square"/>
   </g>
   <g id="line2d_59">
    <path d="M 90.849063 1042.549518 
L 96.566234 1037.712959 
L 102.283406 1031.965165 
L 108.000578 1026.567846 
L 113.717749 1020.890147 
L 119.434921 1015.142352 
L 125.152093 1010.270746 
L 130.869265 1005.013617 
L 136.586436 999.756488 
L 142.303608 994.884882 
L 148.02078 988.82166 
L 153.737951 983.179008 
L 159.455123 977.396167 
L 165.172295 970.737137 
L 170.889467 965.515055 
L 176.606638 960.748592 
L 182.32381 955.596605 
L 188.040982 949.638526 
L 193.758153 946.379106 
L 199.475325 943.014543 
L 205.192497 939.825219 
L 210.909669 936.425609 
L 216.62684 933.166189 
L 222.344012 929.556293 
L 228.061184 925.981446 
L 233.778355 922.616883 
L 239.495527 922.686978 
L 245.212699 922.967358 
L 250.929871 922.932311 
L 256.647042 922.651931 
L 262.364214 922.546788 
L 268.081386 922.616883 
L 273.798557 922.406598 
L 279.515729 922.336503 
L 285.232901 922.511741 
L 290.950073 922.161265 
L 296.667244 922.021075 
L 302.384416 922.266408 
L 308.101588 922.09117 
L 313.818759 921.635552 
L 319.535931 921.425267 
L 325.253103 921.425267 
L 330.970275 920.969649 
L 336.687446 920.478984 
L 342.404618 920.303746 
L 348.12179 920.023366 
L 353.838961 919.953271 
L 359.556133 919.672891 
L 365.273305 918.936893 
L 370.990477 920.408889 
L 376.707648 923.878594 
L 382.42482 925.245448 
L 388.141992 927.278204 
L 393.859164 929.416103 
L 399.576335 931.58905 
L 405.293507 933.867139 
L 411.010679 935.163898 
L 416.72785 937.126559 
L 422.445022 938.38827 
L 428.162194 939.790171 
L 433.879366 942.06826 
L 439.596537 943.820637 
L 445.313709 945.713203 
L 451.030881 949.217956 
L 456.748052 951.110522 
L 462.465224 952.652613 
L 468.182396 954.264799 
L 473.899568 956.683079 
L 479.616739 956.612984 
L 485.333911 956.157366 
L 491.051083 955.561558 
L 496.768254 955.38632 
L 502.485426 955.176035 
L 508.202598 955.140988 
L 513.91977 954.96575 
L 519.636941 954.96575 
L 525.354113 958.295265 
L 531.071285 961.62478 
L 536.788456 964.8842 
L 542.505628 968.353905 
L 548.2228 971.753515 
L 553.939972 975.293315 
L 559.657143 978.692925 
L 565.374315 982.092535 
L 571.091487 985.492145 
L 576.808658 989.066993 
L 582.52583 992.606793 
L 588.243002 995.866213 
L 593.960174 999.406013 
L 599.677345 1003.015908 
L 605.394517 1006.520661 
L 611.111689 1009.639891 
L 616.82886 1013.565214 
L 622.546032 1017.245204 
L 628.263204 1020.749957 
L 633.980376 1024.464994 
L 639.697547 1027.934699 
L 645.414719 1031.439452 
L 651.131891 1035.645155 
L 656.849063 1039.535431 
" clip-path="url(#p0cd0396106)" style="fill: none; stroke-dasharray: 7.4,3.2; stroke-dashoffset: 0; stroke: #008000; stroke-width: 2"/>
   </g>
   <g id="patch_11">
    <path d="M 62.549063 1147.713125 
L 62.549063 802.593125 
" style="fill: none; stroke: #000000; stroke-width: 0.8; stroke-linejoin: miter; stroke-linecap: square"/>
   </g>
   <g id="patch_12">
    <path d="M 62.549063 1147.713125 
L 685.149063 1147.713125 
" style="fill: none; stroke: #000000; stroke-width: 0.8; stroke-linejoin: miter; stroke-linecap: square"/>
   </g>
   <g id="text_44">
    <!-- Gravity -->
    <g transform="translate(344.829531 796.593125) scale(0.19 -0.19)">
     <defs>
      <path id="TimesNewRomanPSMT-47" d="M 3928 4334 
L 4038 2997 
L 3928 2997 
Q 3763 3497 3500 3750 
Q 3122 4116 2528 4116 
Q 1719 4116 1297 3475 
Q 944 2934 944 2188 
Q 944 1581 1178 1081 
Q 1413 581 1792 348 
Q 2172 116 2572 116 
Q 2806 116 3025 175 
Q 3244 234 3447 350 
L 3447 1575 
Q 3447 1894 3398 1992 
Q 3350 2091 3248 2142 
Q 3147 2194 2891 2194 
L 2891 2313 
L 4531 2313 
L 4531 2194 
L 4453 2194 
Q 4209 2194 4119 2031 
Q 4056 1916 4056 1575 
L 4056 278 
Q 3697 84 3347 -6 
Q 2997 -97 2569 -97 
Q 1341 -97 703 691 
Q 225 1281 225 2053 
Q 225 2613 494 3125 
Q 813 3734 1369 4063 
Q 1834 4334 2469 4334 
Q 2700 4334 2889 4296 
Q 3078 4259 3425 4131 
Q 3600 4066 3659 4066 
Q 3719 4066 3761 4120 
Q 3803 4175 3813 4334 
L 3928 4334 
z
" transform="scale(0.015625)"/>
      <path id="TimesNewRomanPSMT-76" d="M 53 2863 
L 1400 2863 
L 1400 2747 
L 1313 2747 
Q 1191 2747 1127 2687 
Q 1063 2628 1063 2528 
Q 1063 2419 1128 2269 
L 1794 688 
L 2463 2328 
Q 2534 2503 2534 2594 
Q 2534 2638 2509 2666 
Q 2475 2713 2422 2730 
Q 2369 2747 2206 2747 
L 2206 2863 
L 3141 2863 
L 3141 2747 
Q 2978 2734 2916 2681 
Q 2806 2588 2719 2369 
L 1703 -88 
L 1575 -88 
L 553 2328 
Q 484 2497 421 2570 
Q 359 2644 263 2694 
Q 209 2722 53 2747 
L 53 2863 
z
" transform="scale(0.015625)"/>
      <path id="TimesNewRomanPSMT-79" d="M 38 2863 
L 1372 2863 
L 1372 2747 
L 1306 2747 
Q 1166 2747 1095 2686 
Q 1025 2625 1025 2534 
Q 1025 2413 1128 2197 
L 1825 753 
L 2466 2334 
Q 2519 2463 2519 2588 
Q 2519 2644 2497 2672 
Q 2472 2706 2419 2726 
Q 2366 2747 2231 2747 
L 2231 2863 
L 3163 2863 
L 3163 2747 
Q 3047 2734 2984 2696 
Q 2922 2659 2847 2556 
Q 2819 2513 2741 2316 
L 1575 -541 
Q 1406 -956 1132 -1168 
Q 859 -1381 606 -1381 
Q 422 -1381 303 -1275 
Q 184 -1169 184 -1031 
Q 184 -900 270 -820 
Q 356 -741 506 -741 
Q 609 -741 788 -809 
Q 913 -856 944 -856 
Q 1038 -856 1148 -759 
Q 1259 -663 1372 -384 
L 1575 113 
L 547 2272 
Q 500 2369 397 2513 
Q 319 2622 269 2659 
Q 197 2709 38 2747 
L 38 2863 
z
" transform="scale(0.015625)"/>
     </defs>
     <use xlink:href="#TimesNewRomanPSMT-47"/>
     <use xlink:href="#TimesNewRomanPSMT-72" transform="translate(72.216797 0)"/>
     <use xlink:href="#TimesNewRomanPSMT-61" transform="translate(105.517578 0)"/>
     <use xlink:href="#TimesNewRomanPSMT-76" transform="translate(149.902344 0)"/>
     <use xlink:href="#TimesNewRomanPSMT-69" transform="translate(199.902344 0)"/>
     <use xlink:href="#TimesNewRomanPSMT-74" transform="translate(227.685547 0)"/>
     <use xlink:href="#TimesNewRomanPSMT-79" transform="translate(255.46875 0)"/>
    </g>
   </g>
   <g id="legend_3">
    <g id="patch_13">
     <path d="M 587.677188 863.09375 
L 676.749063 863.09375 
Q 679.149063 863.09375 679.149063 860.69375 
L 679.149063 810.993125 
Q 679.149063 808.593125 676.749063 808.593125 
L 587.677188 808.593125 
Q 585.277188 808.593125 585.277188 810.993125 
L 585.277188 860.69375 
Q 585.277188 863.09375 587.677188 863.09375 
z
" style="fill: #ffffff; opacity: 0.8; stroke: #cccccc; stroke-linejoin: miter"/>
    </g>
    <g id="line2d_60">
     <path d="M 590.077188 817.593125 
L 602.077188 817.593125 
L 614.077188 817.593125 
" style="fill: none; stroke: #008000; stroke-width: 2; stroke-linecap: square"/>
    </g>
    <g id="text_45">
     <!-- COIN -->
     <g transform="translate(623.677188 821.793125) scale(0.12 -0.12)">
      <use xlink:href="#TimesNewRomanPSMT-43"/>
      <use xlink:href="#TimesNewRomanPSMT-4f" transform="translate(66.699219 0)"/>
      <use xlink:href="#TimesNewRomanPSMT-49" transform="translate(138.916016 0)"/>
      <use xlink:href="#TimesNewRomanPSMT-4e" transform="translate(172.216797 0)"/>
     </g>
    </g>
    <g id="line2d_61">
     <path d="M 590.077188 834.56 
L 602.077188 834.56 
L 614.077188 834.56 
" style="fill: none; stroke-dasharray: 7.4,3.2; stroke-dashoffset: 0; stroke: #008000; stroke-width: 2"/>
    </g>
    <g id="text_46">
     <!-- KMEANS -->
     <g transform="translate(623.677188 838.76) scale(0.12 -0.12)">
      <use xlink:href="#TimesNewRomanPSMT-4b"/>
      <use xlink:href="#TimesNewRomanPSMT-4d" transform="translate(72.216797 0)"/>
      <use xlink:href="#TimesNewRomanPSMT-45" transform="translate(161.132812 0)"/>
      <use xlink:href="#TimesNewRomanPSMT-41" transform="translate(222.216797 0)"/>
      <use xlink:href="#TimesNewRomanPSMT-4e" transform="translate(294.433594 0)"/>
      <use xlink:href="#TimesNewRomanPSMT-53" transform="translate(366.650391 0)"/>
     </g>
    </g>
    <g id="PathCollection_6">
     <path d="M 602.077188 856.449858 
C 603.104315 856.449858 604.089512 856.041776 604.8158 855.315488 
C 605.542089 854.589199 605.950171 853.604002 605.950171 852.576875 
C 605.950171 851.549748 605.542089 850.564551 604.8158 849.838262 
C 604.089512 849.111974 603.104315 848.703892 602.077188 848.703892 
C 601.05006 848.703892 600.064863 849.111974 599.338575 849.838262 
C 598.612286 850.564551 598.204204 851.549748 598.204204 852.576875 
C 598.204204 853.604002 598.612286 854.589199 599.338575 855.315488 
C 600.064863 856.041776 601.05006 856.449858 602.077188 856.449858 
z
" style="fill: #ff0000; fill-opacity: 0.15"/>
    </g>
    <g id="text_47">
     <!-- Train data -->
     <g transform="translate(623.677188 855.726875) scale(0.12 -0.12)">
      <use xlink:href="#TimesNewRomanPSMT-54"/>
      <use xlink:href="#TimesNewRomanPSMT-72" transform="translate(57.583984 0)"/>
      <use xlink:href="#TimesNewRomanPSMT-61" transform="translate(90.884766 0)"/>
      <use xlink:href="#TimesNewRomanPSMT-69" transform="translate(135.269531 0)"/>
      <use xlink:href="#TimesNewRomanPSMT-6e" transform="translate(163.052734 0)"/>
      <use xlink:href="#TimesNewRomanPSMT-20" transform="translate(213.052734 0)"/>
      <use xlink:href="#TimesNewRomanPSMT-64" transform="translate(238.052734 0)"/>
      <use xlink:href="#TimesNewRomanPSMT-61" transform="translate(288.052734 0)"/>
      <use xlink:href="#TimesNewRomanPSMT-74" transform="translate(332.4375 0)"/>
      <use xlink:href="#TimesNewRomanPSMT-61" transform="translate(360.220703 0)"/>
     </g>
    </g>
   </g>
  </g>
 </g>
 <defs>
  <clipPath id="p1fca1b47bf">
   <rect x="62.549063" y="26.393125" width="622.6" height="345.12"/>
  </clipPath>
  <clipPath id="pfd8da12b09">
   <rect x="62.549063" y="414.493125" width="622.6" height="345.12"/>
  </clipPath>
  <clipPath id="p0cd0396106">
   <rect x="62.549063" y="802.593125" width="622.6" height="345.12"/>
  </clipPath>
 </defs>
</svg>
